<?xml version="1.0" encoding="utf-8"?>
<!-- Generator: Adobe Illustrator 21.0.2, SVG Export Plug-In . SVG Version: 6.00 Build 0)  -->
<svg version="1.1" xmlns="http://www.w3.org/2000/svg" xmlns:xlink="http://www.w3.org/1999/xlink" x="0px" y="0px"
	 viewBox="0 0 900 900" style="enable-background:new 0 0 900 900;" xml:space="preserve">
<style type="text/css">
	.st0{display:none;}
	.st1{display:inline;}
	.st2{fill:none;stroke:#000000;stroke-width:4;stroke-miterlimit:10;}
</style>
<g id="sagittarius" class="st0">
	<g id="Z6LrcZ_1_" class="st1">
		
			<image style="overflow:visible;" width="1024" height="1024" id="Z6LrcZ" xlink:href="582B8DD32C76A534.jpg"  transform="matrix(1 0 0 1 -62 -62)">
		</image>
	</g>
</g>
<g id="aries" class="st0">
	<g id="_x34_TjpzY_1_" class="st1">
		
			<image style="overflow:visible;" width="1600" height="1700" id="_x34_TjpzY" xlink:href="582B8DD32C76A535.jpg"  transform="matrix(1 0 0 1 -205 -389)">
		</image>
	</g>
</g>
<g id="Livello_3">
	<g>
		<line class="st2" x1="72" y1="126.6" x2="771.4" y2="471.8"/>
		<line class="st2" x1="787.5" y1="502.7" x2="839.1" y2="675.9"/>
		<line class="st2" x1="786.3" y1="772.2" x2="839.1" y2="675.9"/>
		<g>
			<g id="Layer_53">
				<path d="M766.4,517.7c-1,0-1.9-0.3-2.6-1c-1.3-1-1.9-2.6-1.9-4.2l1.6-18.4l-12-13.9c-1-1.3-1.3-2.9-1-4.5
					c0.6-1.6,1.6-2.6,3.2-3.2l17.8-1l9-19.1c1.3-2.3,4.2-2.9,6.5-1.9c0.6,0.3,1.3,1,1.9,1.9l8.4,19.1l17.1,1
					c1.6,0.3,2.9,1.6,3.2,3.2c0.6,1.6,0.3,3.2-1,4.5l-11.6,13.9l1.6,18.4c0,1.6-0.6,3.2-1.9,4.2s-2.9,1-4.5,0.3l-16.2-10.7L768,517
					C767.7,517.3,767,517.7,766.4,517.7z M772.8,470.1L772.8,470.1z"/>
			</g>
			<g id="Layer_53_1_">
				<path d="M828.3,704.6c-1,0-1.9-0.3-2.6-1c-1.3-1-1.9-2.6-1.9-4.2l1.6-18.4l-12-13.9c-1-1.3-1.3-2.9-1-4.5
					c0.6-1.6,1.6-2.6,3.2-3.2l17.8-1l9-19.1c1.3-2.3,4.2-2.9,6.5-1.9c0.6,0.3,1.3,1,1.9,1.9l8.4,19.1l17.1,1
					c1.6,0.3,2.9,1.6,3.2,3.2c0.6,1.6,0.3,3.2-1,4.5L867.1,681l1.6,18.4c0,1.6-0.6,3.2-1.9,4.2s-2.9,1-4.5,0.3l-16.2-10.7
					l-16.2,10.7C829.6,704.2,828.9,704.6,828.3,704.6z M834.8,657.1L834.8,657.1z"/>
			</g>
			<g id="Layer_53_2_">
				<path d="M757.2,813.5c-1,0-1.9-0.3-2.6-1c-1.3-1-1.9-2.6-1.9-4.2l1.6-18.4l-12-13.9c-1-1.3-1.3-2.9-1-4.5
					c0.6-1.6,1.6-2.6,3.2-3.2l17.8-1l9-19.1c1.3-2.3,4.2-2.9,6.5-1.9c0.6,0.3,1.3,1,1.9,1.9l8.4,19.1l17.1,1
					c1.6,0.3,2.9,1.6,3.2,3.2c0.6,1.6,0.3,3.2-1,4.5L796,789.9l1.6,18.4c0,1.6-0.6,3.2-1.9,4.2c-1.3,1-2.9,1-4.5,0.3L775,802.2
					l-16.2,10.7C758.5,813.2,757.8,813.5,757.2,813.5z M763.7,766L763.7,766z"/>
			</g>
			<g id="Layer_53_3_">
				<path d="M36,154.2c-1,0-1.9-0.3-2.6-1c-1.3-1-1.9-2.6-1.9-4.2l1.6-18.4l-12-13.9c-1-1.3-1.3-2.9-1-4.5c0.6-1.6,1.6-2.6,3.2-3.2
					l17.8-1l9-19.1c1.3-2.3,4.2-2.9,6.5-1.9c0.6,0.3,1.3,1,1.9,1.9L67,108l17.1,1c1.6,0.3,2.9,1.6,3.2,3.2c0.6,1.6,0.3,3.2-1,4.5
					l-11.6,13.9l1.6,18.4c0,1.6-0.6,3.2-1.9,4.2c-1.3,1-2.9,1-4.5,0.3l-16.2-10.7l-16.2,10.7C37.2,153.8,36.6,154.2,36,154.2z
					 M42.4,106.7L42.4,106.7z"/>
			</g>
		</g>
	</g>
</g>
</svg>
