<?xml version="1.0" encoding="utf-8"?>
<!-- Generator: Adobe Illustrator 21.0.2, SVG Export Plug-In . SVG Version: 6.00 Build 0)  -->
<svg version="1.1" id="Livello_1" xmlns="http://www.w3.org/2000/svg" xmlns:xlink="http://www.w3.org/1999/xlink" x="0px" y="0px"
	 viewBox="0 0 240 120" style="enable-background:new 0 0 240 120;" xml:space="preserve">
<style type="text/css">
	.st0{fill:url(#SVGID_1_);}
	.st1{fill:url(#SVGID_2_);}
</style>
<g>
	<linearGradient id="SVGID_1_" gradientUnits="userSpaceOnUse" x1="134.4606" y1="104.4814" x2="118.3074" y2="12.8723">
		<stop  offset="0" style="stop-color:#FAECBD"/>
		<stop  offset="0.8121" style="stop-color:#DAA090"/>
		<stop  offset="1" style="stop-color:#D38FD2"/>
	</linearGradient>
	<path class="st0" d="M157.7,20.9c0-1.1-0.9-2-2-2s-2,0.9-2,2c0,18.6-15.1,33.7-33.7,33.7c-18.6,0-33.7-15.1-33.7-33.7
		c0-1.1-0.9-2-2-2s-2,0.9-2,2c0,20.1,15.8,36.6,35.7,37.6v26.4h-17c-1.1,0-2,0.9-2,2s0.9,2,2,2h17V105c0,1.1,0.9,2,2,2s2-0.9,2-2
		V88.9h17c1.1,0,2-0.9,2-2s-0.9-2-2-2h-17V58.5C141.9,57.5,157.7,41,157.7,20.9z"/>
	<linearGradient id="SVGID_2_" gradientUnits="userSpaceOnUse" x1="122.3098" y1="39.3994" x2="117.6903" y2="13.2007">
		<stop  offset="0" style="stop-color:#FAECBD"/>
		<stop  offset="0.8121" style="stop-color:#DAA090"/>
		<stop  offset="1" style="stop-color:#D38FD2"/>
	</linearGradient>
	<path class="st1" d="M120,39.6c7.3,0,13.3-6,13.3-13.3c0-7.3-6-13.3-13.3-13.3c-7.3,0-13.3,6-13.3,13.3
		C106.7,33.6,112.7,39.6,120,39.6z M120,17c5.1,0,9.3,4.2,9.3,9.3c0,5.1-4.2,9.3-9.3,9.3s-9.3-4.2-9.3-9.3
		C110.7,21.2,114.9,17,120,17z"/>
</g>
</svg>
