<?xml version="1.0" encoding="utf-8"?>
<!-- Generator: Adobe Illustrator 21.0.2, SVG Export Plug-In . SVG Version: 6.00 Build 0)  -->
<svg version="1.1" id="Livello_1" xmlns="http://www.w3.org/2000/svg" xmlns:xlink="http://www.w3.org/1999/xlink" x="0px" y="0px"
	 viewBox="0 0 120 120" style="enable-background:new 0 0 120 120;" xml:space="preserve">
<style type="text/css">
	.st0{fill:none;stroke:#000000;stroke-width:4;stroke-linecap:round;stroke-linejoin:round;stroke-miterlimit:10;}
</style>
<g>
	<path class="st0" d="M76.6,13.4c-5-1.4-10-1-15-0.1c-11.1,2-20.5,7.2-27.9,15.8C22.8,41.8,19,56.5,23.1,72.7
		c4.6,18.4,16.6,30.1,34.8,35.4c3.1,0.9,6.2,1.3,9.4,1.4c-0.6-0.1-1.3-0.2-1.9-0.3c-16.3-3.3-24.6-21.8-16.1-36.1
		c4.2-7.1,10.5-11,18.7-11.8c2-0.2,4-0.1,5.9-0.4C87.1,58.8,96,46.7,94.3,33.6C93,23.9,86,15.9,76.6,13.4z M70.2,43.3
		c-3.5,0-6.5-2.9-6.5-6.4c0-3.5,3-6.4,6.5-6.4c3.5,0,6.5,3,6.4,6.5C76.6,40.4,73.7,43.2,70.2,43.3z"/>
	<path d="M70.2,30.4c-3.5,0-6.5,2.9-6.5,6.4c0,3.5,3,6.5,6.5,6.4c3.5,0,6.4-2.9,6.4-6.4C76.7,33.4,73.8,30.4,70.2,30.4z"/>
</g>
</svg>
