<?xml version="1.0" encoding="utf-8"?>
<!-- Generator: Adobe Illustrator 21.0.2, SVG Export Plug-In . SVG Version: 6.00 Build 0)  -->
<svg version="1.1" id="Livello_1" xmlns="http://www.w3.org/2000/svg" xmlns:xlink="http://www.w3.org/1999/xlink" x="0px" y="0px"
	 viewBox="0 0 122 122" style="enable-background:new 0 0 122 122;" xml:space="preserve">
<style type="text/css">
	.st0{fill:#FFFFFF;}
</style>
<g id="FTtCDG_1_">
	<g>
		<path class="st0" d="M60.9,40.9c-11.5,11.5-22.8,22.7-34.1,34c-4.4,4.4-8.7,8.7-13,13.1c-1.9,1.9-4.1,3.3-6.4,1
			c-2.5-2.5-0.7-4.5,1.2-6.3c16.3-16.2,32.5-32.5,48.7-48.8c2.8-2.8,5-2.5,7.6,0.1c16.2,16.3,32.5,32.5,48.7,48.7
			c1.9,1.9,3.6,4,0.9,6.3c-2.4,2.2-4.5,0.8-6.5-1.2c-14.5-14.5-29-29-43.4-43.4C63.5,43.3,62.3,42.2,60.9,40.9z"/>
	</g>
</g>
</svg>
