<?xml version="1.0" encoding="utf-8"?>
<!-- Generator: Adobe Illustrator 21.0.2, SVG Export Plug-In . SVG Version: 6.00 Build 0)  -->
<svg version="1.1" xmlns="http://www.w3.org/2000/svg" xmlns:xlink="http://www.w3.org/1999/xlink" x="0px" y="0px"
	 viewBox="0 0 299 72" style="enable-background:new 0 0 299 72;" xml:space="preserve">
<style type="text/css">
	.st0{fill:#FFFFFF;}
	.st1{fill:#EC6A4B;}
	.st2{fill:#AC2517;}
	.st3{fill:#FDC901;}
	.st4{fill:#D1A208;}
	.st5{fill:#5DC2D9;}
	.st6{fill:#228595;}
	.st7{fill:#AACA53;}
	.st8{fill:#77932A;}
	.st9{fill:#7FA02A;}
	.st10{fill:#EAEAEA;}
	.st11{fill:#A46226;}
</style>
<g id="Livello_2">
	<g>
		<rect y="-1" class="st0" width="299" height="73"/>
	</g>
</g>
<g id="Livello_1">
	<g>
		<g>
			<path class="st1" d="M15.9,11.2l8.2,1c0.8,0.1,1.4,0.9,1.3,1.7l-6,46.7c-0.1,0.8-0.9,1.4-1.7,1.3l-8.2-1
				c-0.8-0.1-1.4-0.9-1.3-1.7l6-46.7C14.3,11.7,15.1,11.1,15.9,11.2z"/>
			<rect x="13.7" y="14.9" transform="matrix(0.992 0.1264 -0.1264 0.992 2.2178 -2.3259)" class="st2" width="11.4" height="2.8"/>
			<rect x="13.2" y="19.8" transform="matrix(0.992 0.1264 -0.1264 0.992 2.7409 -2.2253)" class="st2" width="11.4" height="1.4"/>
			<rect x="8.6" y="55.5" transform="matrix(0.992 0.1264 -0.1264 0.992 7.3112 -1.3455)" class="st2" width="11.4" height="2.8"/>
			<rect x="9.1" y="52" transform="matrix(0.992 0.1264 -0.1264 0.992 6.7882 -1.4462)" class="st2" width="11.4" height="1.4"/>
		</g>
		<path class="st2" d="M17.2,46.6L14,46.2c-0.8-0.1-1.4-0.9-1.3-1.7l2.1-16.6c0.1-0.8,0.9-1.4,1.7-1.3l3.2,0.4
			c0.8,0.1,1.4,0.9,1.3,1.7l-2.1,16.6C18.8,46.1,18,46.7,17.2,46.6z"/>
	</g>
	<g>
		<g>
			<g>
				<path class="st3" d="M28,11.5l8.3,0.1c0.8,0,1.5,0.7,1.5,1.6l-0.3,47.1c0,0.8-0.7,1.5-1.6,1.5l-8.3-0.1c-0.8,0-1.5-0.7-1.5-1.6
					L26.4,13C26.4,12.2,27.1,11.5,28,11.5z"/>
				
					<rect x="26.4" y="14.8" transform="matrix(1 6.376930e-03 -6.376930e-03 1 0.1036 -0.2043)" class="st4" width="11.4" height="2.8"/>
				
					<rect x="26.4" y="19.6" transform="matrix(1 6.376930e-03 -6.376930e-03 1 0.1304 -0.204)" class="st4" width="11.4" height="1.4"/>
				
					<rect x="26.1" y="55.7" transform="matrix(1 6.376930e-03 -6.376930e-03 1 0.3647 -0.2018)" class="st4" width="11.4" height="2.8"/>
				
					<rect x="26.1" y="52.2" transform="matrix(1 6.376930e-03 -6.376930e-03 1 0.3379 -0.202)" class="st4" width="11.4" height="1.4"/>
			</g>
			<path class="st4" d="M33.5,46.5l-3.3,0c-0.8,0-1.5-0.7-1.5-1.6l0.1-16.7c0-0.8,0.7-1.5,1.6-1.5l3.3,0c0.8,0,1.5,0.7,1.5,1.6
				L35.1,45C35.1,45.8,34.4,46.5,33.5,46.5z"/>
		</g>
		<polygon class="st4" points="37.5,48 26.1,48 26.3,24.8 37.7,24.8 		"/>
	</g>
	<g>
		<g>
			<g>
				<path class="st5" d="M39.7,19l8.3,0c0.8,0,1.5,0.6,1.5,1.3l-0.3,40.1c0,0.7-0.7,1.3-1.6,1.3l-8.3,0c-0.8,0-1.5-0.6-1.5-1.3
					l0.3-40.1C38.1,19.6,38.8,19,39.7,19z"/>
				<polygon class="st6" points="49.4,30.6 38,30.5 38.1,21.8 49.5,21.8 				"/>
				<polygon class="st6" points="49.2,58.9 37.8,58.9 37.9,48.2 49.3,48.2 				"/>
			</g>
		</g>
	</g>
	<g>
		<g>
			<g>
				<path class="st5" d="M170,41.4l0,8.3c0,0.8-0.6,1.5-1.3,1.5l-40.1-0.3c-0.7,0-1.3-0.7-1.3-1.6l0-8.3c0-0.8,0.6-1.5,1.3-1.5
					l40.1,0.3C169.5,39.8,170,40.5,170,41.4z"/>
				<polygon class="st6" points="158.4,51.1 158.5,39.7 167.2,39.8 167.2,51.2 				"/>
				<polygon class="st6" points="130.1,50.9 130.1,39.5 140.8,39.6 140.8,51 				"/>
			</g>
		</g>
	</g>
	<g>
		<g>
			<g>
				<path class="st7" d="M51.4,12.1l8.3,0.1c0.8,0,1.5,0.7,1.5,1.5l-0.3,46.5c0,0.8-0.7,1.5-1.6,1.5L51,61.7c-0.8,0-1.5-0.7-1.5-1.5
					l0.3-46.5C49.8,12.8,50.5,12.1,51.4,12.1z"/>
				<polygon class="st8" points="61.1,25.6 49.7,25.5 49.8,15.4 61.2,15.4 				"/>
			</g>
		</g>
	</g>
	<circle class="st8" cx="55.2" cy="53.6" r="4.1"/>
	<g>
		<g>
			<path class="st5" d="M62.7,11.5l8.3,0c0.8,0,1.5,0.7,1.5,1.5l0.1,47.1c0,0.8-0.7,1.5-1.5,1.5l-8.3,0c-0.8,0-1.5-0.7-1.5-1.5
				l-0.1-47.1C61.2,12.2,61.9,11.5,62.7,11.5z"/>
			
				<rect x="61.2" y="14.8" transform="matrix(1 -1.215641e-03 1.215641e-03 1 -1.957556e-02 8.128350e-02)" class="st1" width="11.4" height="2.8"/>
			
				<rect x="61.2" y="19.6" transform="matrix(1 -1.215641e-03 1.215641e-03 1 -2.468662e-02 8.129282e-02)" class="st1" width="11.4" height="1.4"/>
			
				<rect x="61.2" y="55.7" transform="matrix(1 -1.215641e-03 1.215641e-03 1 -6.934675e-02 8.137426e-02)" class="st1" width="11.4" height="2.8"/>
			
				<rect x="61.2" y="52.2" transform="matrix(1 -1.215641e-03 1.215641e-03 1 -6.423569e-02 8.136494e-02)" class="st1" width="11.4" height="1.4"/>
		</g>
		<path class="st1" d="M68.5,46.5l-3.3,0c-0.8,0-1.5-0.7-1.5-1.5l0-16.7c0-0.8,0.7-1.5,1.5-1.5l3.3,0c0.8,0,1.5,0.7,1.5,1.5l0,16.7
			C70.1,45.8,69.4,46.5,68.5,46.5z"/>
	</g>
	<g>
		<g>
			<g>
				<path class="st7" d="M74.4,11.5l8.3,0.1c0.8,0,1.5,0.7,1.5,1.6L84,60.2c0,0.8-0.7,1.5-1.6,1.5l-8.3-0.1c-0.8,0-1.5-0.7-1.5-1.6
					L72.9,13C72.9,12.2,73.6,11.5,74.4,11.5z"/>
				
					<rect x="72.8" y="18.3" transform="matrix(1 6.376930e-03 -6.376930e-03 1 0.1273 -0.5005)" class="st5" width="11.4" height="2.8"/>
				
					<rect x="77.9" y="17.2" transform="matrix(6.376930e-03 -1 1 6.376930e-03 55.1512 101.237)" class="st5" width="1.3" height="11.4"/>
				
					<rect x="72.6" y="52.5" transform="matrix(1 6.376930e-03 -6.376930e-03 1 0.3449 -0.4981)" class="st5" width="11.4" height="2.8"/>
			</g>
			<path class="st4" d="M80,46.5l-3.3,0c-0.8,0-1.5-0.7-1.5-1.6l0.1-16.7c0-0.8,0.7-1.5,1.6-1.5l3.3,0c0.8,0,1.5,0.7,1.5,1.6
				L81.5,45C81.5,45.8,80.8,46.5,80,46.5z"/>
		</g>
		<polygon class="st5" points="84,48 72.6,48 72.8,24.8 84.1,24.8 		"/>
	</g>
	<g>
		<g>
			<g>
				<path class="st4" d="M86.1,19l8.3,0c0.8,0,1.5,0.6,1.5,1.3l-0.3,40.1c0,0.7-0.7,1.3-1.6,1.3l-8.3,0c-0.8,0-1.5-0.6-1.5-1.3
					l0.3-40.1C84.6,19.6,85.3,19,86.1,19z"/>
				<polygon class="st3" points="95.9,30.6 84.5,30.5 84.5,21.8 96,21.8 				"/>
				<polygon class="st3" points="95.7,58.9 84.3,58.9 84.3,48.2 95.7,48.2 				"/>
			</g>
		</g>
	</g>
	<g>
		<g>
			<g>
				<path class="st1" d="M97.8,12.1l8.3,0.1c0.8,0,1.5,0.7,1.5,1.5l-0.3,46.5c0,0.8-0.7,1.5-1.6,1.5l-8.3-0.1
					c-0.8,0-1.5-0.7-1.5-1.5l0.3-46.5C96.3,12.8,97,12.1,97.8,12.1z"/>
				<polygon class="st6" points="107.6,58.4 96.2,58.4 96.2,48.2 107.6,48.2 				"/>
			</g>
		</g>
	</g>
	<circle class="st6" cx="101.7" cy="22.7" r="4.1"/>
	<g>
		<g>
			<path class="st1" d="M176.4,11.5l8.3,0.1c0.8,0,1.5,0.7,1.5,1.6l-0.3,47.1c0,0.8-0.7,1.5-1.6,1.5l-8.3-0.1
				c-0.8,0-1.5-0.7-1.5-1.6l0.3-47.1C174.9,12.2,175.6,11.5,176.4,11.5z"/>
			
				<rect x="174.8" y="14.8" transform="matrix(1 6.932118e-03 -6.932118e-03 1 0.1163 -1.251)" class="st2" width="11.4" height="2.8"/>
			
				<rect x="174.8" y="19.6" transform="matrix(1 6.932118e-03 -6.932118e-03 1 0.1454 -1.2507)" class="st2" width="11.4" height="1.4"/>
			
				<rect x="174.5" y="55.7" transform="matrix(1 6.932118e-03 -6.932118e-03 1 0.4001 -1.248)" class="st2" width="11.4" height="2.8"/>
			
				<rect x="174.6" y="52.2" transform="matrix(1 6.932118e-03 -6.932118e-03 1 0.3709 -1.2483)" class="st2" width="11.4" height="1.4"/>
		</g>
		<path class="st2" d="M181.9,46.5l-3.3,0c-0.8,0-1.5-0.7-1.5-1.6l0.1-16.7c0-0.8,0.7-1.5,1.6-1.5l3.3,0c0.8,0,1.5,0.7,1.5,1.6
			L183.5,45C183.5,45.8,182.8,46.5,181.9,46.5z"/>
	</g>
	<g>
		<g>
			<g>
				<path class="st3" d="M109.8,12l8.3-0.8c0.8-0.1,1.6,0.5,1.7,1.4l4.5,46.9c0.1,0.8-0.5,1.6-1.4,1.7l-8.3,0.8
					c-0.8,0.1-1.6-0.5-1.7-1.4l-4.5-46.9C108.3,12.9,108.9,12.1,109.8,12z"/>
				
					<rect x="108.6" y="14.9" transform="matrix(0.9955 -9.487569e-02 9.487569e-02 0.9955 -1.0247 10.9198)" class="st4" width="11.4" height="2.8"/>
				
					<rect x="109" y="19.7" transform="matrix(0.9955 -9.487569e-02 9.487569e-02 0.9955 -1.42 10.9766)" class="st4" width="11.4" height="1.4"/>
				
					<rect x="112.5" y="55.6" transform="matrix(0.9955 -9.487569e-02 9.487569e-02 0.9955 -4.8741 11.4722)" class="st4" width="11.4" height="2.8"/>
				
					<rect x="112.1" y="52.1" transform="matrix(0.9955 -9.487569e-02 9.487569e-02 0.9955 -4.4788 11.4155)" class="st4" width="11.4" height="1.4"/>
			</g>
			<path class="st4" d="M118.8,46.3l-3.2,0.3c-0.8,0.1-1.6-0.5-1.7-1.4l-1.6-16.6c-0.1-0.8,0.5-1.6,1.4-1.7l3.2-0.3
				c0.8-0.1,1.6,0.5,1.7,1.4l1.6,16.6C120.3,45.5,119.7,46.2,118.8,46.3z"/>
		</g>
		<polygon class="st4" points="123,47.4 111.6,48.6 109.4,25.5 120.8,24.3 		"/>
	</g>
	<g>
		<g>
			<g>
				<path class="st5" d="M189.2,19l8.3,0c0.8,0,1.5,0.6,1.5,1.3l-0.3,40.1c0,0.7-0.7,1.3-1.6,1.3l-8.3,0c-0.8,0-1.5-0.6-1.5-1.3
					l0.3-40.1C187.7,19.6,188.4,19,189.2,19z"/>
				<polygon class="st6" points="199,30.6 187.6,30.5 187.6,21.8 199.1,21.8 				"/>
				<polygon class="st6" points="198.8,58.9 187.4,58.9 187.4,48.2 198.8,48.2 				"/>
			</g>
		</g>
	</g>
	<g>
		<g>
			<g>
				<path class="st7" d="M200.9,12.1l8.3,0.1c0.8,0,1.5,0.7,1.5,1.5l-0.3,46.5c0,0.8-0.7,1.5-1.6,1.5l-8.3-0.1
					c-0.8,0-1.5-0.7-1.5-1.5l0.3-46.5C199.4,12.8,200.1,12.1,200.9,12.1z"/>
				<polygon class="st8" points="210.7,25.6 199.3,25.5 199.3,15.4 210.7,15.4 				"/>
			</g>
		</g>
	</g>
	<circle class="st8" cx="204.8" cy="53.6" r="4.1"/>
	<g>
		<g>
			<g>
				<path class="st7" d="M174.7,53l-0.1,8.3c0,0.8-0.7,1.5-1.5,1.5l-46.5-0.3c-0.8,0-1.5-0.7-1.5-1.6l0.1-8.3c0-0.8,0.7-1.5,1.5-1.5
					l46.5,0.3C174,51.4,174.7,52.1,174.7,53z"/>
				<polygon class="st8" points="161.3,62.7 161.3,51.3 171.5,51.4 171.4,62.8 				"/>
			</g>
		</g>
	</g>
	<circle class="st8" cx="133.3" cy="56.8" r="4.1"/>
	<g>
		<g>
			<path class="st5" d="M212.3,11.5l8.3,0c0.8,0,1.5,0.7,1.5,1.5l0.1,47.1c0,0.8-0.7,1.5-1.5,1.5l-8.3,0c-0.8,0-1.5-0.7-1.5-1.5
				l-0.1-47.1C210.7,12.2,211.4,11.5,212.3,11.5z"/>
			
				<rect x="210.7" y="14.8" transform="matrix(1 -1.215641e-03 1.215641e-03 1 -1.946505e-02 0.2631)" class="st1" width="11.4" height="2.8"/>
			
				<rect x="210.7" y="19.6" transform="matrix(1 -1.215641e-03 1.215641e-03 1 -2.457611e-02 0.2631)" class="st1" width="11.4" height="1.4"/>
			
				<rect x="210.8" y="55.7" transform="matrix(1 -1.215641e-03 1.215641e-03 1 -6.923624e-02 0.2632)" class="st1" width="11.4" height="2.8"/>
			
				<rect x="210.8" y="52.2" transform="matrix(1 -1.215641e-03 1.215641e-03 1 -6.412518e-02 0.2632)" class="st1" width="11.4" height="1.4"/>
		</g>
		<path class="st1" d="M218.1,46.5l-3.3,0c-0.8,0-1.5-0.7-1.5-1.5l0-16.7c0-0.8,0.7-1.5,1.5-1.5l3.3,0c0.8,0,1.5,0.7,1.5,1.5l0,16.7
			C219.6,45.8,218.9,46.5,218.1,46.5z"/>
	</g>
	<g>
		<g>
			<g>
				<path class="st7" d="M224,11.5l8.3,0.1c0.8,0,1.5,0.7,1.5,1.6l-0.3,47.1c0,0.8-0.7,1.5-1.6,1.5l-8.3-0.1c-0.8,0-1.5-0.7-1.5-1.6
					l0.3-47.1C222.4,12.2,223.1,11.5,224,11.5z"/>
				
					<rect x="222.4" y="18.3" transform="matrix(1 6.376930e-03 -6.376930e-03 1 0.1304 -1.4542)" class="st5" width="11.4" height="2.8"/>
				
					<rect x="227.4" y="17.2" transform="matrix(6.376930e-03 -1 1 6.376930e-03 203.7577 250.7943)" class="st5" width="1.3" height="11.4"/>
				
					<rect x="222.1" y="52.5" transform="matrix(1 6.376930e-03 -6.376930e-03 1 0.3479 -1.4519)" class="st5" width="11.4" height="2.8"/>
			</g>
			<path class="st4" d="M229.5,46.5l-3.3,0c-0.8,0-1.5-0.7-1.5-1.6l0.1-16.7c0-0.8,0.7-1.5,1.6-1.5l3.3,0c0.8,0,1.5,0.7,1.5,1.6
				L231.1,45C231.1,45.8,230.4,46.5,229.5,46.5z"/>
		</g>
		<polygon class="st5" points="233.5,48 222.2,48 222.3,24.8 233.7,24.8 		"/>
	</g>
	<g>
		<g>
			<g>
				<path class="st4" d="M235.7,19l8.3,0c0.8,0,1.5,0.6,1.5,1.3l-0.3,40.1c0,0.7-0.7,1.3-1.6,1.3l-8.3,0c-0.8,0-1.5-0.6-1.5-1.3
					l0.3-40.1C234.1,19.6,234.8,19,235.7,19z"/>
				<polygon class="st3" points="245.5,30.6 234,30.5 234.1,21.8 245.5,21.8 				"/>
				<polygon class="st3" points="245.2,58.9 233.8,58.9 233.9,48.2 245.3,48.2 				"/>
			</g>
		</g>
	</g>
	<g>
		<g>
			<g>
				<path class="st1" d="M247.4,12.1l8.3,0.1c0.8,0,1.5,0.7,1.5,1.5l-0.3,46.5c0,0.8-0.7,1.5-1.6,1.5l-8.3-0.1
					c-0.8,0-1.5-0.7-1.5-1.5l0.3-46.5C245.8,12.8,246.5,12.1,247.4,12.1z"/>
				<polygon class="st6" points="257.2,58.4 245.7,58.4 245.8,48.2 257.2,48.2 				"/>
			</g>
		</g>
	</g>
	<circle class="st6" cx="251.2" cy="22.7" r="4.1"/>
	<g id="W0AWhy_1_">
		<g>
			<path class="st0" d="M268.2,15.4c0,2.4,0.8,4.6,2,6.7c0.6,1,1.4,1.8,2.2,2.6c0.7,0.7,1.7,0.9,2.6,0.3c1.1-0.6,2.2-0.6,3.3,0
				c0.8,0.4,1.6,0.4,2.3-0.1c0.5-0.3,1-0.7,1.4-1.2c1.8-2.2,2.8-4.7,3.2-7.4c0.2-2-0.1-3.9-1.4-5.6c-1.3-1.6-3.3-2.1-5.1-1
				c-1.3,0.7-2.5,0.7-3.8,0c-1.8-1-3.8-0.6-5.1,1C268.6,12.1,268.2,13.7,268.2,15.4z M282.2,4.2c-1.2,0.3-2.1,1-2.9,1.9
				C278.4,7,277.6,8,276.7,9C279.7,9.5,282.2,6.8,282.2,4.2z M276,9c0.1-0.1,0.2-0.1,0.2-0.2c-0.4-0.6-0.8-1.3-1.4-1.8
				c-0.2-0.2-0.9-0.3-1.1-0.1c-0.4,0.4,0,0.8,0.4,1.1C274.7,8.2,275.4,8.6,276,9z"/>
			<path class="st1" d="M268.2,15.4c0-1.7,0.4-3.3,1.5-4.7c1.3-1.6,3.3-2,5.1-1c1.3,0.7,2.5,0.7,3.8,0c1.8-1,3.8-0.6,5.1,1
				c1.3,1.6,1.7,3.6,1.4,5.6c-0.3,2.8-1.4,5.3-3.2,7.4c-0.4,0.5-0.9,0.8-1.4,1.2c-0.7,0.5-1.5,0.6-2.3,0.1c-1.1-0.6-2.2-0.6-3.3,0
				c-1,0.5-1.9,0.3-2.6-0.3c-0.8-0.8-1.6-1.7-2.2-2.6C269,20,268.2,17.8,268.2,15.4z"/>
			<path class="st9" d="M282.2,4.2c0.1,2.6-2.5,5.3-5.5,4.7c0.9-1,1.7-2,2.5-2.9C280,5.3,281,4.6,282.2,4.2z"/>
			<path class="st7" d="M280.2,2.5c0.9,2.4-0.5,5.8-3.5,6.3c0.5-1.2,0.9-2.4,1.4-3.6C278.6,4.2,279.3,3.2,280.2,2.5z"/>
			<path class="st3" d="M276,9c-0.6-0.4-1.3-0.7-1.9-1.1c-0.4-0.2-0.8-0.7-0.4-1.1c0.2-0.2,0.9-0.1,1.1,0.1c0.5,0.5,0.9,1.2,1.4,1.8
				C276.2,8.8,276.1,8.9,276,9z"/>
		</g>
	</g>
	<g>
		<path class="st3" d="M294.3,27.5L294.3,27.5c0-0.8-0.7-1.5-1.5-1.5h-4.1h-27.5h-0.3c-0.2,0-0.3,0-0.5,0.1
			c-1.6,0.3-2.9,1.8-2.9,3.5v4.8c0,1.7,1.2,3.2,2.9,3.5c0.1,0,0.3,0.1,0.5,0.1h0.3h27.5h4.1c0.8,0,1.5-0.7,1.5-1.5s-0.7-1.5-1.5-1.5
			h-0.6c0-0.2,0.1-0.4,0.1-0.7v-4.8c0-0.2,0-0.4-0.1-0.7h0.6C293.6,29,294.3,28.3,294.3,27.5z"/>
		<path class="st10" d="M292.6,35.2h-29.7c-1.8,0-2.2-1.4-2.2-3.2v0c0-1.8,0.4-3.2,2.2-3.2h29.7"/>
		<path class="st10" d="M265.1,36.4h-2.5c-2.5,0-3.2-2-3.2-4.4v0c0-2.4,0.6-4.4,3.2-4.4h2.5"/>
	</g>
	<g>
		<path class="st3" d="M294.3,27.5L294.3,27.5c0-0.8-0.7-1.5-1.5-1.5h-4.1h-27.5h-0.3c-0.2,0-0.3,0-0.5,0.1
			c-1.6,0.3-2.9,1.8-2.9,3.5v4.8c0,1.7,1.2,3.2,2.9,3.5c0.1,0,0.3,0.1,0.5,0.1h0.3h27.5h4.1c0.8,0,1.5-0.7,1.5-1.5s-0.7-1.5-1.5-1.5
			h-0.6c0-0.2,0.1-0.4,0.1-0.7v-4.8c0-0.2,0-0.4-0.1-0.7h0.6C293.6,29,294.3,28.3,294.3,27.5z"/>
		<path class="st10" d="M292.6,35.2h-29.7c-1.8,0-2.2-1.4-2.2-3.2v0c0-1.8,0.4-3.2,2.2-3.2h29.7"/>
		<path class="st10" d="M265.1,36.4h-2.5c-2.5,0-3.2-2-3.2-4.4v0c0-2.4,0.6-4.4,3.2-4.4h2.5"/>
	</g>
	<g>
		<path class="st5" d="M257.6,48.5L257.6,48.5c0,0.8,0.7,1.5,1.5,1.5h4.1h27.5h0.3c0.2,0,0.3,0,0.5-0.1c1.6-0.3,2.9-1.8,2.9-3.5
			v-4.8c0-1.7-1.2-3.2-2.9-3.5c-0.1,0-0.3-0.1-0.5-0.1h-0.3h-27.5h-4.1c-0.8,0-1.5,0.7-1.5,1.5s0.7,1.5,1.5,1.5h0.6
			c0,0.2-0.1,0.4-0.1,0.7v4.8c0,0.2,0,0.4,0.1,0.7h-0.6C258.3,47.1,257.6,47.7,257.6,48.5z"/>
		<path class="st10" d="M259.3,40.8H289c1.8,0,2.2,1.4,2.2,3.2v0c0,1.8-0.4,3.2-2.2,3.2h-29.7"/>
		<path class="st10" d="M286.8,39.6h2.5c2.5,0,3.2,2,3.2,4.4v0c0,2.4-0.6,4.4-3.2,4.4h-2.5"/>
	</g>
	<g>
		<path class="st7" d="M294.3,51.5L294.3,51.5c0-0.8-0.7-1.5-1.5-1.5h-4.1h-27.5h-0.3c-0.2,0-0.3,0-0.5,0.1
			c-1.6,0.3-2.9,1.8-2.9,3.5v4.8c0,1.7,1.2,3.2,2.9,3.5c0.1,0,0.3,0.1,0.5,0.1h0.3h27.5h4.1c0.8,0,1.5-0.7,1.5-1.5s-0.7-1.5-1.5-1.5
			h-0.6c0-0.2,0.1-0.4,0.1-0.7v-4.8c0-0.2,0-0.4-0.1-0.7h0.6C293.6,52.9,294.3,52.3,294.3,51.5z"/>
		<path class="st10" d="M292.6,59.2h-29.7c-1.8,0-2.2-1.4-2.2-3.2v0c0-1.8,0.4-3.2,2.2-3.2h29.7"/>
		<path class="st10" d="M265.1,60.4h-2.5c-2.5,0-3.2-2-3.2-4.4v0c0-2.4,0.6-4.4,3.2-4.4h2.5"/>
	</g>
	<rect y="62" class="st11" width="299" height="10"/>
</g>
</svg>
