<?xml version="1.0" encoding="utf-8"?>
<!-- Generator: Adobe Illustrator 21.0.2, SVG Export Plug-In . SVG Version: 6.00 Build 0)  -->
<svg version="1.1" id="Livello_1" xmlns="http://www.w3.org/2000/svg" xmlns:xlink="http://www.w3.org/1999/xlink" x="0px" y="0px"
	 viewBox="0 0 150 150" style="enable-background:new 0 0 150 150;" xml:space="preserve">
<style type="text/css">
	.st0{fill:none;stroke:#000000;stroke-linecap:round;stroke-linejoin:round;stroke-miterlimit:10;}
</style>
<polyline class="st0" points="88,19.5 41.5,57 44,84.5 25,91.5 43,132.5 70.5,105 99,93 126.5,99 "/>
<polyline class="st0" points="98,59 59,72 44,60 "/>
<g id="Layer_53_11_">
	<g>
		<path d="M22.7,95.5c-0.1,0-0.3-0.1-0.4-0.1C22.1,95.2,22,95,22,94.7l0.3-2.7l-1.7-2.1c-0.1-0.2-0.2-0.5-0.1-0.6
			c0.1-0.3,0.3-0.4,0.5-0.5l2.7-0.1l1.4-2.8c0.2-0.3,0.6-0.5,1-0.3c0.1,0.1,0.2,0.1,0.3,0.3l1.2,2.8l2.5,0.1
			c0.3,0.1,0.5,0.3,0.5,0.5c0.1,0.3,0.1,0.5-0.1,0.6L28.4,92l0.3,2.7c0,0.3-0.1,0.5-0.3,0.6c-0.2,0.1-0.5,0.1-0.6,0.1l-2.4-1.6
			L23,95.4C22.9,95.5,22.7,95.5,22.7,95.5z"/>
	</g>
</g>
<g id="Layer_53_12_">
	<g>
		<path d="M39.3,135.5c-0.1,0-0.3-0.1-0.4-0.1c-0.2-0.1-0.3-0.4-0.3-0.6l0.3-2.7l-1.7-2.1c-0.1-0.2-0.2-0.5-0.1-0.6
			c0.1-0.3,0.3-0.4,0.5-0.5l2.7-0.1l1.4-2.8c0.2-0.3,0.6-0.5,1-0.3c0.1,0.1,0.2,0.1,0.3,0.3l1.2,2.8l2.5,0.1
			c0.3,0.1,0.5,0.3,0.5,0.5c0.1,0.3,0.1,0.5-0.1,0.6l-2.1,2l0.2,2.7c0,0.3-0.1,0.5-0.3,0.6s-0.5,0.1-0.6,0.1l-2.4-1.6l-2.4,1.6
			C39.4,135.4,39.3,135.5,39.3,135.5z"/>
	</g>
</g>
<g id="Layer_53_13_">
	<g>
		<path d="M65.3,110.1c-0.1,0-0.3-0.1-0.4-0.1c-0.2-0.1-0.3-0.4-0.3-0.6l0.3-2.7l-1.7-2.1c-0.1-0.2-0.2-0.5-0.1-0.6
			c0.1-0.3,0.3-0.4,0.5-0.5l2.7-0.1l1.4-2.8c0.2-0.3,0.6-0.5,1-0.3c0.1,0.1,0.2,0.1,0.3,0.3l1.2,2.8l2.5,0.1
			c0.3,0.1,0.5,0.3,0.5,0.5c0.1,0.3,0.1,0.5-0.1,0.6l-1.7,2.1l0.3,2.7c0,0.3-0.1,0.5-0.3,0.6c-0.2,0.1-0.5,0.1-0.6,0.1l-2.4-1.6
			l-2.4,1.6C65.4,110,65.3,110.1,65.3,110.1z"/>
	</g>
</g>
<g id="Layer_53_14_">
	<g>
		<path d="M97.3,97.2c-0.1,0-0.3-0.1-0.4-0.1c-0.2-0.1-0.3-0.4-0.3-0.6l0.3-2.7l-1.7-2.1C95,91.4,94.9,91.2,95,91
			c0.1-0.3,0.3-0.4,0.5-0.5l2.7-0.1l1.4-2.8c0.2-0.3,0.6-0.5,1-0.3c0.1,0.1,0.2,0.1,0.3,0.3l1.2,2.8l2.5,0.1
			c0.3,0.1,0.5,0.3,0.5,0.5c0.1,0.3,0.1,0.5-0.1,0.6l-1.7,2.1l0.3,2.7c0,0.3-0.1,0.5-0.3,0.6c-0.2,0.1-0.5,0.1-0.6,0.1l-2.4-1.6
			l-2.4,1.6C97.4,97.1,97.3,97.2,97.3,97.2z"/>
	</g>
</g>
<g id="Layer_53_15_">
	<g>
		<path d="M95.6,64c-0.1,0-0.3-0.1-0.4-0.1c-0.2-0.1-0.3-0.4-0.3-0.6l0.3-2.7l-1.7-2.1c-0.1-0.2-0.2-0.5-0.1-0.6
			c0.1-0.3,0.3-0.4,0.5-0.5l2.7-0.1l1.4-2.8c0.2-0.3,0.6-0.5,1-0.3c0.1,0.1,0.2,0.1,0.3,0.3l1.2,2.8l2.5,0.1
			c0.3,0.1,0.5,0.3,0.5,0.5c0.1,0.3,0.1,0.5-0.1,0.6l-1.7,2.1l0.3,2.7c0,0.3-0.1,0.5-0.3,0.6c-0.2,0.1-0.5,0.1-0.6,0.1l-2.4-1.6
			L96.3,64C95.8,64,95.6,64,95.6,64z"/>
	</g>
</g>
<g id="Layer_53_16_">
	<g>
		<path d="M56.3,75.5c-0.1,0-0.3-0.1-0.4-0.1c-0.2-0.1-0.3-0.4-0.3-0.6l0.3-2.7L54.2,70c-0.1-0.2-0.2-0.5-0.1-0.6
			c0.1-0.3,0.3-0.4,0.5-0.5l2.7-0.1l1.4-2.8c0.2-0.3,0.6-0.5,1-0.3c0.1,0.1,0.2,0.1,0.3,0.3l1.2,2.8l2.5,0.1
			c0.3,0.1,0.5,0.3,0.5,0.5c0.1,0.3,0.1,0.5-0.1,0.6L62,72l0.2,2.7c0,0.3-0.1,0.5-0.3,0.6s-0.5,0.1-0.6,0.1l-2.4-1.6l-2.4,1.6
			C56.4,75.5,56.3,75.5,56.3,75.5z"/>
	</g>
</g>
<g id="Layer_53_17_">
	<g>
		<path d="M40.6,62c-0.1,0-0.3-0.1-0.4-0.1c-0.2-0.1-0.3-0.4-0.3-0.6l0.3-2.7l-1.7-2.1c-0.1-0.2-0.2-0.5-0.1-0.6
			c0.1-0.3,0.3-0.4,0.5-0.5l2.7-0.1l1.4-2.8c0.2-0.3,0.6-0.5,1-0.3c0.1,0.1,0.2,0.1,0.3,0.3l1.2,2.8l2.5,0.1
			c0.3,0.1,0.5,0.3,0.5,0.5c0.1,0.3,0.1,0.5-0.1,0.6l-1.7,2.1l0.3,2.7c0,0.3-0.1,0.5-0.3,0.6S46.2,62,46.1,62l-2.4-1.6L41.3,62
			C40.8,62,40.6,62,40.6,62z"/>
	</g>
</g>
<g id="Layer_53_18_">
	<g>
		<path d="M85.1,23.7c-0.1,0-0.3-0.1-0.4-0.1c-0.2-0.1-0.3-0.4-0.3-0.6l0.3-2.7L83,18.2c-0.1-0.2-0.2-0.5-0.1-0.6
			c0.1-0.3,0.3-0.4,0.5-0.5l2.7-0.1l1.2-3c0.2-0.3,0.6-0.5,1-0.3c0.1,0.1,0.2,0.1,0.3,0.3l1.2,2.8l2.5,0.1c0.3,0.1,0.5,0.3,0.5,0.5
			c0.1,0.3,0.1,0.5-0.1,0.6L91,20.1l0.3,2.7c0,0.3-0.1,0.5-0.3,0.6c-0.2,0.1-0.5,0.1-0.6,0.1L88,21.9l-2.5,1.5
			C85.3,23.6,85.2,23.7,85.1,23.7z"/>
	</g>
</g>
<g id="Layer_53_19_">
	<g>
		<path d="M123,103.3c-0.1,0-0.3-0.1-0.4-0.1c-0.2-0.1-0.3-0.4-0.3-0.6l0.3-2.7l-1.7-2.1c-0.1-0.2-0.2-0.5-0.1-0.6
			c0.1-0.3,0.3-0.4,0.5-0.5l2.7-0.1l1.4-2.8c0.2-0.3,0.6-0.5,1-0.3c0.1,0.1,0.2,0.1,0.3,0.3l1.2,2.8l2.5,0.1
			c0.3,0.1,0.5,0.3,0.5,0.5c0.1,0.3,0.1,0.5-0.1,0.6l-1.7,2.1l0.3,2.7c0,0.3-0.1,0.5-0.3,0.6s-0.5,0.1-0.6,0.1l-2.4-1.6l-2.4,1.6
			C123.2,103.3,123,103.3,123,103.3z"/>
	</g>
</g>
</svg>
