<?xml version="1.0" encoding="utf-8"?>
<!-- Generator: Adobe Illustrator 21.0.2, SVG Export Plug-In . SVG Version: 6.00 Build 0)  -->
<svg version="1.1" id="Livello_1" xmlns="http://www.w3.org/2000/svg" xmlns:xlink="http://www.w3.org/1999/xlink" x="0px" y="0px"
	 viewBox="0 0 150 110" style="enable-background:new 0 0 150 110;" xml:space="preserve">
<style type="text/css">
	.st0{fill:none;stroke:#000000;stroke-linecap:round;stroke-linejoin:round;stroke-miterlimit:10;}
</style>
<polyline class="st0" points="15.7,85.3 83.3,24.1 122.5,27.3 134.8,49.2 "/>
<g id="Layer_53">
	<g>
		<path d="M81,30.2c-0.2,0-0.3-0.1-0.4-0.2c-0.2-0.2-0.3-0.4-0.3-0.6l0.3-2.7l-1.8-2.1c-0.2-0.2-0.2-0.5-0.2-0.7
			c0.1-0.3,0.3-0.4,0.5-0.5l2.7-0.2l1.4-2.8c0.2-0.4,0.6-0.5,1-0.3c0.1,0.1,0.2,0.2,0.3,0.3l1.3,2.8l2.6,0.2
			c0.3,0.1,0.5,0.3,0.5,0.5c0.1,0.3,0.1,0.5-0.2,0.7L87,26.7l0.3,2.7c0,0.3-0.1,0.5-0.3,0.6c-0.2,0.2-0.5,0.2-0.7,0.1l-2.4-1.6
			l-2.5,1.6C81.2,30.2,81.1,30.2,81,30.2z"/>
	</g>
</g>
<g id="Layer_53_1_">
	<g>
		<path d="M12.6,89.7c-0.2,0-0.3-0.1-0.4-0.2c-0.2-0.2-0.3-0.4-0.3-0.6l0.3-2.7l-1.8-2.1c-0.2-0.2-0.2-0.5-0.2-0.7
			c0.1-0.3,0.3-0.4,0.5-0.5l2.7-0.2l1.4-2.8c0.2-0.4,0.6-0.5,1-0.3c0.1,0.1,0.2,0.2,0.3,0.3l1.3,2.8l2.6,0.2
			c0.3,0.1,0.5,0.3,0.5,0.5c0.1,0.3,0.1,0.5-0.2,0.7l-1.7,2.1l0.3,2.7c0,0.3-0.1,0.5-0.3,0.6c-0.2,0.2-0.5,0.2-0.7,0.1L15.5,88
			l-2.4,1.6C12.8,89.7,12.7,89.7,12.6,89.7z"/>
	</g>
</g>
<g id="Layer_53_2_">
	<g>
		<path d="M117.9,30.9c-0.2,0-0.3-0.1-0.4-0.2c-0.2-0.2-0.3-0.4-0.3-0.6l0.3-2.7l-1.8-2.1c-0.2-0.2-0.2-0.5-0.2-0.7
			c0.1-0.3,0.3-0.4,0.5-0.5l2.7-0.2l1.4-2.8c0.2-0.4,0.6-0.5,1-0.3c0.1,0.1,0.2,0.2,0.3,0.3l1.3,2.8l2.6,0.2
			c0.3,0.1,0.5,0.3,0.5,0.5c0.1,0.3,0.1,0.5-0.2,0.7l-1.7,2.1l0.3,2.7c0,0.3-0.1,0.5-0.3,0.6c-0.2,0.2-0.5,0.2-0.7,0.1l-2.4-1.6
			l-2.4,1.6C118,30.9,117.9,30.9,117.9,30.9z"/>
	</g>
</g>
<g id="Layer_53_3_">
	<g>
		<path d="M132.7,57.5c-0.2,0-0.3-0.1-0.4-0.2c-0.2-0.2-0.3-0.4-0.3-0.6l0.3-2.7l-1.8-2.1c-0.2-0.2-0.2-0.5-0.2-0.7
			c0.1-0.3,0.3-0.4,0.5-0.5l2.7-0.2l1.4-2.8c0.2-0.4,0.6-0.5,1-0.3c0.1,0.1,0.2,0.2,0.3,0.3l1.3,2.8l2.6,0.2
			c0.3,0.1,0.5,0.3,0.5,0.5c0.1,0.3,0.1,0.5-0.2,0.7l-1.7,2.1l0.3,2.7c0,0.3-0.1,0.5-0.3,0.6c-0.2,0.2-0.5,0.2-0.7,0.1l-2.4-1.6
			l-2.4,1.6C132.8,57.5,132.7,57.5,132.7,57.5z"/>
	</g>
</g>
</svg>
