<?xml version="1.0" encoding="utf-8"?>
<!-- Generator: Adobe Illustrator 21.0.2, SVG Export Plug-In . SVG Version: 6.00 Build 0)  -->
<svg version="1.1" id="Livello_1" xmlns="http://www.w3.org/2000/svg" xmlns:xlink="http://www.w3.org/1999/xlink" x="0px" y="0px"
	 viewBox="0 0 140 128" style="enable-background:new 0 0 140 128;" xml:space="preserve">
<style type="text/css">
	.st0{fill:none;stroke:#000000;stroke-linecap:round;stroke-linejoin:round;stroke-miterlimit:10;}
</style>
<g id="Layer_53_59_">
	<g>
		<path d="M122.6,20.3c-0.1,0-0.3,0-0.4-0.1c-0.2-0.1-0.3-0.4-0.3-0.6l0.2-2.7l-1.8-2.1c-0.1-0.2-0.2-0.4-0.1-0.7
			c0.1-0.2,0.2-0.4,0.5-0.5l2.6-0.1l1.3-2.8c0.2-0.3,0.6-0.4,1-0.3c0.1,0,0.2,0.1,0.3,0.3l1.2,2.8l2.5,0.1c0.2,0,0.4,0.2,0.5,0.5
			c0.1,0.2,0,0.5-0.1,0.7l-1.7,2.1l0.2,2.7c0,0.2-0.1,0.5-0.3,0.6c-0.2,0.1-0.4,0.1-0.7,0l-2.4-1.6l-2.4,1.6
			C122.8,20.2,122.7,20.3,122.6,20.3z M123.5,13.2"/>
	</g>
</g>
<g id="Layer_53_60_">
	<g>
		<path d="M116.6,46.3c-0.1,0-0.3,0-0.4-0.1c-0.2-0.1-0.3-0.4-0.3-0.6l0.2-2.7l-1.8-2.1c-0.1-0.2-0.2-0.4-0.1-0.7
			c0.1-0.2,0.2-0.4,0.5-0.5l2.6-0.1l1.3-2.8c0.2-0.3,0.6-0.4,1-0.3c0.1,0,0.2,0.1,0.3,0.3l1.2,2.8l2.5,0.1c0.2,0,0.4,0.2,0.5,0.5
			c0.1,0.2,0,0.5-0.1,0.7l-1.7,2.1l0.2,2.7c0,0.2-0.1,0.5-0.3,0.6c-0.2,0.1-0.4,0.1-0.7,0l-2.4-1.6l-2.4,1.6
			C116.8,46.2,116.7,46.3,116.6,46.3z M117.5,39.2"/>
	</g>
</g>
<g id="Layer_53_61_">
	<g>
		<path d="M80.6,72.3c-0.1,0-0.3,0-0.4-0.1c-0.2-0.1-0.3-0.4-0.3-0.6l0.2-2.7l-1.8-2.1c-0.1-0.2-0.2-0.4-0.1-0.7
			c0.1-0.2,0.2-0.4,0.5-0.5l2.6-0.1l1.3-2.8c0.2-0.3,0.6-0.4,1-0.3c0.1,0,0.2,0.1,0.3,0.3l1.2,2.8l2.5,0.1c0.2,0,0.4,0.2,0.5,0.5
			c0.1,0.2,0,0.5-0.1,0.7l-1.7,2.1l0.2,2.7c0,0.2-0.1,0.5-0.3,0.6c-0.2,0.1-0.4,0.1-0.7,0l-2.4-1.6l-2.4,1.6
			C80.8,72.2,80.7,72.3,80.6,72.3z M81.5,65.2"/>
	</g>
</g>
<g id="Layer_53_62_">
	<g>
		<path d="M30.6,92.3c-0.1,0-0.3,0-0.4-0.1c-0.2-0.1-0.3-0.4-0.3-0.6l0.2-2.7l-1.8-2.1c-0.1-0.2-0.2-0.4-0.1-0.7
			c0.1-0.2,0.2-0.4,0.5-0.5l2.6-0.1l1.3-2.8c0.2-0.3,0.6-0.4,1-0.3c0.1,0,0.2,0.1,0.3,0.3l1.2,2.8l2.5,0.1c0.2,0,0.4,0.2,0.5,0.5
			c0.1,0.2,0,0.5-0.1,0.7l-1.7,2.1l0.2,2.7c0,0.2-0.1,0.5-0.3,0.6s-0.4,0.1-0.7,0l-2.4-1.6l-2.4,1.6C30.8,92.2,30.7,92.3,30.6,92.3z
			 M31.5,85.2"/>
	</g>
</g>
<g id="Layer_53_63_">
	<g>
		<path d="M12.6,105.3c-0.1,0-0.3,0-0.4-0.1c-0.2-0.1-0.3-0.4-0.3-0.6l0.2-2.7l-1.8-2.1c-0.1-0.2-0.2-0.4-0.1-0.7
			c0.1-0.2,0.2-0.4,0.5-0.5l2.6-0.1l1.3-2.8c0.2-0.3,0.6-0.4,1-0.3c0.1,0,0.2,0.1,0.3,0.3l1.2,2.8l2.5,0.1c0.2,0,0.4,0.2,0.5,0.5
			c0.1,0.2,0,0.5-0.1,0.7l-1.7,2.1l0.2,2.7c0,0.2-0.1,0.5-0.3,0.6c-0.2,0.1-0.4,0.1-0.7,0l-2.4-1.6l-2.4,1.6
			C12.8,105.2,12.7,105.3,12.6,105.3z M13.5,98.2"/>
	</g>
</g>
<g id="Layer_53_64_">
	<g>
		<path d="M43.6,105.3c-0.1,0-0.3,0-0.4-0.1c-0.2-0.1-0.3-0.4-0.3-0.6l0.2-2.7l-1.8-2.1c-0.1-0.2-0.2-0.4-0.1-0.7
			c0.1-0.2,0.2-0.4,0.5-0.5l2.6-0.1l1.3-2.8c0.2-0.3,0.6-0.4,1-0.3c0.1,0,0.2,0.1,0.3,0.3l1.2,2.8l2.5,0.1c0.2,0,0.4,0.2,0.5,0.5
			c0.1,0.2,0,0.5-0.1,0.7l-1.7,2.1l0.2,2.7c0,0.2-0.1,0.5-0.3,0.6s-0.4,0.1-0.7,0l-2.4-1.6l-2.4,1.6
			C43.8,105.2,43.7,105.3,43.6,105.3z M44.5,98.2"/>
	</g>
</g>
<g id="Layer_53_65_">
	<g>
		<path d="M61.6,118.3c-0.1,0-0.3,0-0.4-0.1c-0.2-0.1-0.3-0.4-0.3-0.6l0.2-2.7l-1.8-2.1c-0.1-0.2-0.2-0.4-0.1-0.7
			c0.1-0.2,0.2-0.4,0.5-0.5l2.6-0.1l1.3-2.8c0.2-0.3,0.6-0.4,1-0.3c0.1,0,0.2,0.1,0.3,0.3l1.2,2.8l2.5,0.1c0.2,0,0.4,0.2,0.5,0.5
			c0.1,0.2,0,0.5-0.1,0.7l-1.7,2.1l0.2,2.7c0,0.2-0.1,0.5-0.3,0.6c-0.2,0.1-0.4,0.1-0.7,0l-2.4-1.6l-2.4,1.6
			C61.8,118.2,61.7,118.3,61.6,118.3z M62.5,111.2"/>
	</g>
</g>
<g id="Layer_53_66_">
	<g>
		<path d="M106.6,98.3c-0.1,0-0.3,0-0.4-0.1c-0.2-0.1-0.3-0.4-0.3-0.6l0.2-2.7l-1.8-2.1c-0.1-0.2-0.2-0.4-0.1-0.7
			c0.1-0.2,0.2-0.4,0.5-0.5l2.6-0.1l1.3-2.8c0.2-0.3,0.6-0.4,1-0.3c0.1,0,0.2,0.1,0.3,0.3l1.2,2.8l2.5,0.1c0.2,0,0.4,0.2,0.5,0.5
			c0.1,0.2,0,0.5-0.1,0.7l-1.7,2.1l0.2,2.7c0,0.2-0.1,0.5-0.3,0.6c-0.2,0.1-0.4,0.1-0.7,0l-2.4-1.6l-2.4,1.6
			C106.8,98.2,106.7,98.3,106.6,98.3z M107.5,91.2"/>
	</g>
</g>
<polyline class="st0" points="125.5,18 122,43.5 109,95 64.5,115.5 46,101.5 14.5,102 35,89 83.5,67.5 118.5,42 "/>
</svg>
