<?xml version="1.0" encoding="utf-8"?>
<!-- Generator: Adobe Illustrator 21.0.2, SVG Export Plug-In . SVG Version: 6.00 Build 0)  -->
<svg version="1.1" id="Livello_1" xmlns="http://www.w3.org/2000/svg" xmlns:xlink="http://www.w3.org/1999/xlink" x="0px" y="0px"
	 viewBox="0 0 150 110" style="enable-background:new 0 0 150 110;" xml:space="preserve">
<style type="text/css">
	.st0{fill:none;stroke:#000000;stroke-linecap:round;stroke-linejoin:round;stroke-miterlimit:10;}
</style>
<polyline class="st0" points="111.5,16.5 131.2,41.3 96.3,61 61.7,96.2 23.3,91.7 19.8,60.7 41.3,56.7 "/>
<line class="st0" x1="125" y1="70.7" x2="131.5" y2="43"/>
<g id="Layer_53_86_">
	<g>
		<path d="M128.8,46.1c-0.1,0-0.3,0-0.4-0.1c-0.2-0.1-0.3-0.4-0.3-0.6l0.2-2.7l-1.8-2.1c-0.1-0.2-0.2-0.4-0.1-0.7
			c0.1-0.2,0.2-0.4,0.5-0.5l2.6-0.1l1.3-2.8c0.2-0.3,0.6-0.4,1-0.3c0.1,0,0.2,0.1,0.3,0.3l1.2,2.8l2.5,0.1c0.2,0,0.4,0.2,0.5,0.5
			c0.1,0.2,0,0.5-0.1,0.7l-1.7,2.1l0.2,2.7c0,0.2-0.1,0.5-0.3,0.6c-0.2,0.1-0.4,0.1-0.7,0l-2.4-1.6L129,46
			C128.9,46.1,128.9,46.1,128.8,46.1z M129.7,39.1"/>
	</g>
</g>
<g id="Layer_53_87_">
	<g>
		<path d="M108.8,19.1c-0.1,0-0.3,0-0.4-0.1c-0.2-0.1-0.3-0.4-0.3-0.6l0.2-2.7l-1.8-2.1c-0.1-0.2-0.2-0.4-0.1-0.7
			c0.1-0.2,0.2-0.4,0.5-0.5l2.6-0.1l1.3-2.8c0.2-0.3,0.6-0.4,1-0.3c0.1,0,0.2,0.1,0.3,0.3l1.2,2.8l2.5,0.1c0.2,0,0.4,0.2,0.5,0.5
			c0.1,0.2,0,0.5-0.1,0.7l-1.7,2.1l0.2,2.7c0,0.2-0.1,0.5-0.3,0.6c-0.2,0.1-0.4,0.1-0.7,0l-2.4-1.6L109,19
			C108.9,19.1,108.9,19.1,108.8,19.1z M109.7,12.1"/>
	</g>
</g>
<g id="Layer_53_88_">
	<g>
		<path d="M122.8,74.1c-0.1,0-0.3,0-0.4-0.1c-0.2-0.1-0.3-0.4-0.3-0.6l0.2-2.7l-1.8-2.1c-0.1-0.2-0.2-0.4-0.1-0.7
			c0.1-0.2,0.2-0.4,0.5-0.5l2.6-0.1l1.3-2.8c0.2-0.3,0.6-0.4,1-0.3c0.1,0,0.2,0.1,0.3,0.3l1.2,2.8l2.5,0.1c0.2,0,0.4,0.2,0.5,0.5
			c0.1,0.2,0,0.5-0.1,0.7l-1.7,2.1l0.2,2.7c0,0.2-0.1,0.5-0.3,0.6c-0.2,0.1-0.4,0.1-0.7,0l-2.4-1.6L123,74
			C122.9,74.1,122.9,74.1,122.8,74.1z M123.7,67.1"/>
	</g>
</g>
<g id="Layer_53_89_">
	<g>
		<path d="M92.8,66.1c-0.1,0-0.3,0-0.4-0.1c-0.2-0.1-0.3-0.4-0.3-0.6l0.2-2.7l-1.8-2.1c-0.1-0.2-0.2-0.4-0.1-0.7
			c0.1-0.2,0.2-0.4,0.5-0.5l2.6-0.1l1.3-2.8c0.2-0.3,0.6-0.4,1-0.3c0.1,0,0.2,0.1,0.3,0.3l1.2,2.8l2.5,0.1c0.2,0,0.4,0.2,0.5,0.5
			c0.1,0.2,0,0.5-0.1,0.7l-1.7,2.1l0.2,2.7c0,0.2-0.1,0.5-0.3,0.6c-0.2,0.1-0.4,0.1-0.7,0l-2.4-1.6L93,66
			C92.9,66.1,92.9,66.1,92.8,66.1z M93.7,59.1"/>
	</g>
</g>
<g id="Layer_53_90_">
	<g>
		<path d="M59.8,100.1c-0.1,0-0.3,0-0.4-0.1c-0.2-0.1-0.3-0.4-0.3-0.6l0.2-2.7l-1.8-2.1c-0.1-0.2-0.2-0.4-0.1-0.7
			c0.1-0.2,0.2-0.4,0.5-0.5l2.6-0.1l1.3-2.8c0.2-0.3,0.6-0.4,1-0.3c0.1,0,0.2,0.1,0.3,0.3l1.2,2.8l2.5,0.1c0.2,0,0.4,0.2,0.5,0.5
			c0.1,0.2,0,0.5-0.1,0.7l-1.7,2.1l0.2,2.7c0,0.2-0.1,0.5-0.3,0.6c-0.2,0.1-0.4,0.1-0.7,0l-2.4-1.6L60,100
			C59.9,100.1,59.9,100.1,59.8,100.1z M60.7,93.1"/>
	</g>
</g>
<g id="Layer_53_91_">
	<g>
		<path d="M20.8,95.1c-0.1,0-0.3,0-0.4-0.1c-0.2-0.1-0.3-0.4-0.3-0.6l0.2-2.7l-1.8-2.1c-0.1-0.2-0.2-0.4-0.1-0.7
			c0.1-0.2,0.2-0.4,0.5-0.5l2.6-0.1l1.3-2.8c0.2-0.3,0.6-0.4,1-0.3c0.1,0,0.2,0.1,0.3,0.3l1.2,2.8l2.5,0.1c0.2,0,0.4,0.2,0.5,0.5
			c0.1,0.2,0,0.5-0.1,0.7l-1.7,2.1l0.2,2.7c0,0.2-0.1,0.5-0.3,0.6c-0.2,0.1-0.4,0.1-0.7,0l-2.4-1.6L21,95
			C20.9,95.1,20.9,95.1,20.8,95.1z M21.7,88.1"/>
	</g>
</g>
<g id="Layer_53_92_">
	<g>
		<path d="M16.8,65.1c-0.1,0-0.3,0-0.4-0.1c-0.2-0.1-0.3-0.4-0.3-0.6l0.2-2.7l-1.8-2.1c-0.1-0.2-0.2-0.4-0.1-0.7
			c0.1-0.2,0.2-0.4,0.5-0.5l2.6-0.1l1.3-2.8c0.2-0.3,0.6-0.4,1-0.3c0.1,0,0.2,0.1,0.3,0.3l1.2,2.8l2.5,0.1c0.2,0,0.4,0.2,0.5,0.5
			c0.1,0.2,0,0.5-0.1,0.7l-1.7,2.1l0.2,2.7c0,0.2-0.1,0.5-0.3,0.6c-0.2,0.1-0.4,0.1-0.7,0l-2.4-1.6L17,65
			C16.9,65.1,16.9,65.1,16.8,65.1z M17.7,58.1"/>
	</g>
</g>
<g id="Layer_53_93_">
	<g>
		<path d="M37.8,61.1c-0.1,0-0.3,0-0.4-0.1c-0.2-0.1-0.3-0.4-0.3-0.6l0.2-2.7l-1.8-2.1c-0.1-0.2-0.2-0.4-0.1-0.7
			c0.1-0.2,0.2-0.4,0.5-0.5l2.6-0.1l1.3-2.8c0.2-0.3,0.6-0.4,1-0.3c0.1,0,0.2,0.1,0.3,0.3l1.2,2.8l2.5,0.1c0.2,0,0.4,0.2,0.5,0.5
			c0.1,0.2,0,0.5-0.1,0.7l-1.7,2.1l0.2,2.7c0,0.2-0.1,0.5-0.3,0.6s-0.4,0.1-0.7,0l-2.4-1.6L38,61C37.9,61.1,37.9,61.1,37.8,61.1z
			 M38.7,54.1"/>
	</g>
</g>
</svg>
