<?xml version="1.0" encoding="utf-8"?>
<!-- Generator: Adobe Illustrator 21.0.2, SVG Export Plug-In . SVG Version: 6.00 Build 0)  -->
<svg version="1.1" id="Livello_1" xmlns="http://www.w3.org/2000/svg" xmlns:xlink="http://www.w3.org/1999/xlink" x="0px" y="0px"
	 viewBox="0 0 150 110" style="enable-background:new 0 0 150 110;" xml:space="preserve">
<style type="text/css">
	.st0{fill:none;stroke:#000000;stroke-linecap:round;stroke-linejoin:round;stroke-miterlimit:10;}
</style>
<polyline class="st0" points="80.2,96.5 91,72.8 115,54 112.7,35 94.7,27.3 70.8,28.7 54.3,16.5 24,19.3 14.3,41.8 23.8,55.7 
	55.8,56.5 89,72.5 "/>
<line class="st0" x1="114.5" y1="34.5" x2="136.3" y2="28.3"/>
<g id="Layer_53_94_">
	<g>
		<path d="M87.8,78.1c-0.1,0-0.3,0-0.4-0.1c-0.2-0.1-0.3-0.4-0.3-0.6l0.2-2.7l-1.8-2.1c-0.1-0.2-0.2-0.4-0.1-0.7
			c0.1-0.2,0.2-0.4,0.5-0.5l2.6-0.1l1.3-2.8c0.2-0.3,0.6-0.4,1-0.3c0.1,0,0.2,0.1,0.3,0.3l1.2,2.8l2.5,0.1c0.2,0,0.4,0.2,0.5,0.5
			c0.1,0.2,0,0.5-0.1,0.7l-1.7,2.1l0.2,2.7c0,0.2-0.1,0.5-0.3,0.6c-0.2,0.1-0.4,0.1-0.7,0l-2.4-1.6L88,78
			C87.9,78.1,87.9,78.1,87.8,78.1z M88.7,71.1"/>
	</g>
</g>
<g id="Layer_53_95_">
	<g>
		<path d="M77.8,100.1c-0.1,0-0.3,0-0.4-0.1c-0.2-0.1-0.3-0.4-0.3-0.6l0.2-2.7l-1.8-2.1c-0.1-0.2-0.2-0.4-0.1-0.7
			c0.1-0.2,0.2-0.4,0.5-0.5l2.6-0.1l1.3-2.8c0.2-0.3,0.6-0.4,1-0.3c0.1,0,0.2,0.1,0.3,0.3l1.2,2.8l2.5,0.1c0.2,0,0.4,0.2,0.5,0.5
			c0.1,0.2,0,0.5-0.1,0.7l-1.7,2.1l0.2,2.7c0,0.2-0.1,0.5-0.3,0.6c-0.2,0.1-0.4,0.1-0.7,0l-2.4-1.6L78,100
			C77.9,100.1,77.9,100.1,77.8,100.1z M78.7,93.1"/>
	</g>
</g>
<g id="Layer_53_96_">
	<g>
		<path d="M53.8,60.1c-0.1,0-0.3,0-0.4-0.1c-0.2-0.1-0.3-0.4-0.3-0.6l0.2-2.7l-1.8-2.1c-0.1-0.2-0.2-0.4-0.1-0.7
			c0.1-0.2,0.2-0.4,0.5-0.5l2.6-0.1l1.3-2.8c0.2-0.3,0.6-0.4,1-0.3c0.1,0,0.2,0.1,0.3,0.3l1.2,2.8l2.5,0.1c0.2,0,0.4,0.2,0.5,0.5
			c0.1,0.2,0,0.5-0.1,0.7l-1.7,2.1l0.2,2.7c0,0.2-0.1,0.5-0.3,0.6s-0.4,0.1-0.7,0l-2.4-1.6L54,60C53.9,60.1,53.9,60.1,53.8,60.1z
			 M54.7,53.1"/>
	</g>
</g>
<g id="Layer_53_97_">
	<g>
		<path d="M20.8,59.1c-0.1,0-0.3,0-0.4-0.1c-0.2-0.1-0.3-0.4-0.3-0.6l0.2-2.7l-1.8-2.1c-0.1-0.2-0.2-0.4-0.1-0.7
			c0.1-0.2,0.2-0.4,0.5-0.5l2.6-0.1l1.3-2.8c0.2-0.3,0.6-0.4,1-0.3c0.1,0,0.2,0.1,0.3,0.3l1.2,2.8l2.5,0.1c0.2,0,0.4,0.2,0.5,0.5
			c0.1,0.2,0,0.5-0.1,0.7l-1.7,2.1l0.2,2.7c0,0.2-0.1,0.5-0.3,0.6c-0.2,0.1-0.4,0.1-0.7,0l-2.4-1.6L21,59
			C20.9,59.1,20.9,59.1,20.8,59.1z M21.7,52.1"/>
	</g>
</g>
<g id="Layer_53_98_">
	<g>
		<path d="M11.8,46.1c-0.1,0-0.3,0-0.4-0.1c-0.2-0.1-0.3-0.4-0.3-0.6l0.2-2.7l-1.8-2.1c-0.1-0.2-0.2-0.4-0.1-0.7
			c0.1-0.2,0.2-0.4,0.5-0.5l2.6-0.1l1.3-2.8c0.2-0.3,0.6-0.4,1-0.3c0.1,0,0.2,0.1,0.3,0.3l1.2,2.8l2.5,0.1c0.2,0,0.4,0.2,0.5,0.5
			c0.1,0.2,0,0.5-0.1,0.7l-1.7,2.1l0.2,2.7c0,0.2-0.1,0.5-0.3,0.6c-0.2,0.1-0.4,0.1-0.7,0l-2.4-1.6L12,46
			C11.9,46.1,11.9,46.1,11.8,46.1z M12.7,39.1"/>
	</g>
</g>
<g id="Layer_53_99_">
	<g>
		<path d="M21.8,24.1c-0.1,0-0.3,0-0.4-0.1c-0.2-0.1-0.3-0.4-0.3-0.6l0.2-2.7l-1.8-2.1c-0.1-0.2-0.2-0.4-0.1-0.7
			c0.1-0.2,0.2-0.4,0.5-0.5l2.6-0.1l1.3-2.8c0.2-0.3,0.6-0.4,1-0.3c0.1,0,0.2,0.1,0.3,0.3l1.2,2.8l2.5,0.1c0.2,0,0.4,0.2,0.5,0.5
			c0.1,0.2,0,0.5-0.1,0.7l-1.7,2.1l0.2,2.7c0,0.2-0.1,0.5-0.3,0.6c-0.2,0.1-0.4,0.1-0.7,0l-2.4-1.6L22,24
			C21.9,24.1,21.9,24.1,21.8,24.1z M22.7,17.1"/>
	</g>
</g>
<g id="Layer_53_100_">
	<g>
		<path d="M51.8,20.1c-0.1,0-0.3,0-0.4-0.1c-0.2-0.1-0.3-0.4-0.3-0.6l0.2-2.7l-1.8-2.1c-0.1-0.2-0.2-0.4-0.1-0.7
			c0.1-0.2,0.2-0.4,0.5-0.5l2.6-0.1l1.3-2.8c0.2-0.3,0.6-0.4,1-0.3c0.1,0,0.2,0.1,0.3,0.3l1.2,2.8l2.5,0.1c0.2,0,0.4,0.2,0.5,0.5
			c0.1,0.2,0,0.5-0.1,0.7l-1.7,2.1l0.2,2.7c0,0.2-0.1,0.5-0.3,0.6c-0.2,0.1-0.4,0.1-0.7,0l-2.4-1.6L52,20
			C51.9,20.1,51.9,20.1,51.8,20.1z M52.7,13.1"/>
	</g>
</g>
<g id="Layer_53_101_">
	<g>
		<path d="M68.8,33.1c-0.1,0-0.3,0-0.4-0.1c-0.2-0.1-0.3-0.4-0.3-0.6l0.2-2.7l-1.8-2.1c-0.1-0.2-0.2-0.4-0.1-0.7
			c0.1-0.2,0.2-0.4,0.5-0.5l2.6-0.1l1.3-2.8c0.2-0.3,0.6-0.4,1-0.3c0.1,0,0.2,0.1,0.3,0.3l1.2,2.8l2.5,0.1c0.2,0,0.4,0.2,0.5,0.5
			c0.1,0.2,0,0.5-0.1,0.7l-1.7,2.1l0.2,2.7c0,0.2-0.1,0.5-0.3,0.6s-0.4,0.1-0.7,0l-2.4-1.6L69,33C68.9,33.1,68.9,33.1,68.8,33.1z
			 M69.7,26.1"/>
	</g>
</g>
<g id="Layer_53_102_">
	<g>
		<path d="M91.8,32.1c-0.1,0-0.3,0-0.4-0.1c-0.2-0.1-0.3-0.4-0.3-0.6l0.2-2.7l-1.8-2.1c-0.1-0.2-0.2-0.4-0.1-0.7
			c0.1-0.2,0.2-0.4,0.5-0.5l2.6-0.1l1.3-2.8c0.2-0.3,0.6-0.4,1-0.3c0.1,0,0.2,0.1,0.3,0.3l1.2,2.8l2.5,0.1c0.2,0,0.4,0.2,0.5,0.5
			c0.1,0.2,0,0.5-0.1,0.7l-1.7,2.1l0.2,2.7c0,0.2-0.1,0.5-0.3,0.6s-0.4,0.1-0.7,0l-2.4-1.6L92,32C91.9,32.1,91.9,32.1,91.8,32.1z
			 M92.7,25.1"/>
	</g>
</g>
<g id="Layer_53_103_">
	<g>
		<path d="M110.8,39.1c-0.1,0-0.3,0-0.4-0.1c-0.2-0.1-0.3-0.4-0.3-0.6l0.2-2.7l-1.8-2.1c-0.1-0.2-0.2-0.4-0.1-0.7
			c0.1-0.2,0.2-0.4,0.5-0.5l2.6-0.1l1.3-2.8c0.2-0.3,0.6-0.4,1-0.3c0.1,0,0.2,0.1,0.3,0.3l1.2,2.8l2.5,0.1c0.2,0,0.4,0.2,0.5,0.5
			c0.1,0.2,0,0.5-0.1,0.7l-1.7,2.1l0.2,2.7c0,0.2-0.1,0.5-0.3,0.6s-0.4,0.1-0.7,0l-2.4-1.6L111,39C110.9,39.1,110.9,39.1,110.8,39.1
			z M111.7,32.1"/>
	</g>
</g>
<g id="Layer_53_104_">
	<g>
		<path d="M132.8,33.1c-0.1,0-0.3,0-0.4-0.1c-0.2-0.1-0.3-0.4-0.3-0.6l0.2-2.7l-1.8-2.1c-0.1-0.2-0.2-0.4-0.1-0.7
			c0.1-0.2,0.2-0.4,0.5-0.5l2.6-0.1l1.3-2.8c0.2-0.3,0.6-0.4,1-0.3c0.1,0,0.2,0.1,0.3,0.3l1.2,2.8l2.5,0.1c0.2,0,0.4,0.2,0.5,0.5
			c0.1,0.2,0,0.5-0.1,0.7l-1.7,2.1l0.2,2.7c0,0.2-0.1,0.5-0.3,0.6c-0.2,0.1-0.4,0.1-0.7,0l-2.4-1.6L133,33
			C132.9,33.1,132.9,33.1,132.8,33.1z M133.7,26.1"/>
	</g>
</g>
<g id="Layer_53_105_">
	<g>
		<path d="M112.8,58.1c-0.1,0-0.3,0-0.4-0.1c-0.2-0.1-0.3-0.4-0.3-0.6l0.2-2.7l-1.8-2.1c-0.1-0.2-0.2-0.4-0.1-0.7
			c0.1-0.2,0.2-0.4,0.5-0.5l2.6-0.1l1.3-2.8c0.2-0.3,0.6-0.4,1-0.3c0.1,0,0.2,0.1,0.3,0.3l1.2,2.8l2.5,0.1c0.2,0,0.4,0.2,0.5,0.5
			c0.1,0.2,0,0.5-0.1,0.7l-1.7,2.1l0.2,2.7c0,0.2-0.1,0.5-0.3,0.6s-0.4,0.1-0.7,0l-2.4-1.6L113,58C112.9,58.1,112.9,58.1,112.8,58.1
			z M113.7,51.1"/>
	</g>
</g>
</svg>
