<?xml version="1.0" encoding="utf-8"?>
<!-- Generator: Adobe Illustrator 21.0.2, SVG Export Plug-In . SVG Version: 6.00 Build 0)  -->
<svg version="1.1" id="Livello_1" xmlns="http://www.w3.org/2000/svg" xmlns:xlink="http://www.w3.org/1999/xlink" x="0px" y="0px"
	 viewBox="0 0 150 140" style="enable-background:new 0 0 150 140;" xml:space="preserve">
<style type="text/css">
	.st0{fill:none;stroke:#000000;stroke-linecap:round;stroke-linejoin:round;stroke-miterlimit:10;}
</style>
<polyline class="st0" points="131,33.3 113.7,14 92.3,29.3 88.3,54 109.7,90.7 18.3,127.3 32.3,90 85,56 "/>
<g id="Layer_53_31_">
	<g>
		<path d="M128,38.2c-0.1,0-0.3-0.1-0.4-0.1c-0.2-0.1-0.3-0.4-0.3-0.6l0.3-2.7l-1.7-2.1c-0.1-0.2-0.2-0.5-0.1-0.6
			c0.1-0.3,0.3-0.4,0.5-0.5l2.7-0.1l1.4-2.8c0.2-0.3,0.6-0.5,1-0.3c0.1,0.1,0.2,0.1,0.3,0.3l1.2,2.8l2.5,0.1
			c0.3,0.1,0.5,0.3,0.5,0.5c0.1,0.3,0.1,0.5-0.1,0.6l-1.7,2.1l0.3,2.7c0,0.3-0.1,0.5-0.3,0.6c-0.2,0.1-0.5,0.1-0.6,0.1l-2.4-1.6
			l-2.4,1.6C128.2,38.1,128,38.2,128,38.2z"/>
	</g>
</g>
<g id="Layer_53_32_">
	<g>
		<path d="M110,20.2c-0.1,0-0.3-0.1-0.4-0.1c-0.2-0.1-0.3-0.4-0.3-0.6l0.3-2.7l-1.7-2.1c-0.1-0.2-0.2-0.5-0.1-0.6
			c0.1-0.3,0.3-0.4,0.5-0.5l2.7-0.1l1.4-2.8c0.2-0.3,0.6-0.5,1-0.3c0.1,0.1,0.2,0.1,0.3,0.3l1.2,2.8l2.5,0.1
			c0.3,0.1,0.5,0.3,0.5,0.5c0.1,0.3,0.1,0.5-0.1,0.6l-1.7,2.1l0.3,2.7c0,0.3-0.1,0.5-0.3,0.6c-0.2,0.1-0.5,0.1-0.6,0.1l-2.4-1.6
			l-2.4,1.6C110.2,20.1,110,20.2,110,20.2z"/>
	</g>
</g>
<g id="Layer_53_33_">
	<g>
		<path d="M90,33.2c-0.1,0-0.3-0.1-0.4-0.1c-0.2-0.1-0.3-0.4-0.3-0.6l0.3-2.7l-1.7-2.1c-0.1-0.2-0.2-0.5-0.1-0.6
			c0.1-0.3,0.3-0.4,0.5-0.5l2.7-0.1l1.4-2.8c0.2-0.3,0.6-0.5,1-0.3c0.1,0.1,0.2,0.1,0.3,0.3l1.2,2.8l2.5,0.1
			c0.3,0.1,0.5,0.3,0.5,0.5c0.1,0.3,0.1,0.5-0.1,0.6l-1.7,2.1l0.3,2.7c0,0.3-0.1,0.5-0.3,0.6c-0.2,0.1-0.5,0.1-0.6,0.1l-2.4-1.6
			l-2.4,1.6C90.2,33.1,90,33.2,90,33.2z"/>
	</g>
</g>
<g id="Layer_53_34_">
	<g>
		<path d="M86,60.2c-0.1,0-0.3-0.1-0.4-0.1c-0.2-0.1-0.3-0.4-0.3-0.6l0.3-2.7l-1.7-2.1c-0.1-0.2-0.2-0.5-0.1-0.6
			c0.1-0.3,0.3-0.4,0.5-0.5l2.7-0.1l1.4-2.8c0.2-0.3,0.6-0.5,1-0.3c0.1,0.1,0.2,0.1,0.3,0.3l1.2,2.8l2.5,0.1
			c0.3,0.1,0.5,0.3,0.5,0.5c0.1,0.3,0.1,0.5-0.1,0.6l-1.7,2.1l0.3,2.7c0,0.3-0.1,0.5-0.3,0.6c-0.2,0.1-0.5,0.1-0.6,0.1l-2.4-1.6
			l-2.4,1.6C86.2,60.1,86,60.2,86,60.2z"/>
	</g>
</g>
<g id="Layer_53_35_">
	<g>
		<path d="M29,95.2c-0.1,0-0.3-0.1-0.4-0.1c-0.2-0.1-0.3-0.4-0.3-0.6l0.3-2.7l-1.7-2.1c-0.1-0.2-0.2-0.5-0.1-0.6
			c0.1-0.3,0.3-0.4,0.5-0.5l2.7-0.1l1.4-2.8c0.2-0.3,0.6-0.5,1-0.3c0.1,0.1,0.2,0.1,0.3,0.3l1.2,2.8l2.5,0.1
			c0.3,0.1,0.5,0.3,0.5,0.5c0.1,0.3,0.1,0.5-0.1,0.6l-1.7,2.1l0.3,2.7c0,0.3-0.1,0.5-0.3,0.6c-0.2,0.1-0.5,0.1-0.6,0.1l-2.4-1.6
			l-2.4,1.6C29.2,95.1,29,95.2,29,95.2z"/>
	</g>
</g>
<g id="Layer_53_36_">
	<g>
		<path d="M17,129.2c-0.1,0-0.3-0.1-0.4-0.1c-0.2-0.1-0.3-0.4-0.3-0.6l0.3-2.7l-1.7-2.1c-0.1-0.2-0.2-0.5-0.1-0.6
			c0.1-0.3,0.3-0.4,0.5-0.5l2.7-0.1l1.4-2.8c0.2-0.3,0.6-0.5,1-0.3c0.1,0.1,0.2,0.1,0.3,0.3l1.2,2.8l2.5,0.1
			c0.3,0.1,0.5,0.3,0.5,0.5c0.1,0.3,0.1,0.5-0.1,0.6l-1.7,2.1l0.3,2.7c0,0.3-0.1,0.5-0.3,0.6c-0.2,0.1-0.5,0.1-0.6,0.1l-2.4-1.6
			l-2.4,1.6C17.2,129.1,17,129.2,17,129.2z"/>
	</g>
</g>
<g id="Layer_53_37_">
	<g>
		<path d="M107,95.2c-0.1,0-0.3-0.1-0.4-0.1c-0.2-0.1-0.3-0.4-0.3-0.6l0.3-2.7l-1.7-2.1c-0.1-0.2-0.2-0.5-0.1-0.6
			c0.1-0.3,0.3-0.4,0.5-0.5l2.7-0.1l1.4-2.8c0.2-0.3,0.6-0.5,1-0.3c0.1,0.1,0.2,0.1,0.3,0.3l1.2,2.8l2.5,0.1
			c0.3,0.1,0.5,0.3,0.5,0.5c0.1,0.3,0.1,0.5-0.1,0.6l-1.7,2.1l0.3,2.7c0,0.3-0.1,0.5-0.3,0.6c-0.2,0.1-0.5,0.1-0.6,0.1l-2.4-1.6
			l-2.4,1.6C107.2,95.1,107,95.2,107,95.2z"/>
	</g>
</g>
</svg>
