<?xml version="1.0" encoding="utf-8"?>
<!-- Generator: Adobe Illustrator 21.0.2, SVG Export Plug-In . SVG Version: 6.00 Build 0)  -->
<svg version="1.1" id="Livello_1" xmlns="http://www.w3.org/2000/svg" xmlns:xlink="http://www.w3.org/1999/xlink" x="0px" y="0px"
	 viewBox="0 0 150 170" style="enable-background:new 0 0 150 170;" xml:space="preserve">
<style type="text/css">
	.st0{fill:none;stroke:#000000;stroke-linecap:round;stroke-linejoin:round;stroke-miterlimit:10;}
</style>
<polyline class="st0" points="15,46.2 44.8,47.8 72.5,18.8 "/>
<polyline class="st0" points="137,18 129.8,36.8 109.5,55.8 89,49 99.2,19 "/>
<polyline class="st0" points="45.8,49.5 63,65.8 68,79 52.5,89.2 52.5,122.2 123.8,150.8 137,139.5 "/>
<polyline class="st0" points="69.5,80.5 78,87.2 86.8,69.2 77.2,58.8 "/>
<polyline class="st0" points="109.8,57.5 114,78.5 130.2,82 "/>
<polyline class="st0" points="64.2,65.5 76.5,57.2 88,50 "/>
<line class="st0" x1="100" y1="139.8" x2="114.8" y2="120"/>
<g id="Layer_53_40_">
	<g>
		<path d="M67.6,24.3c-0.1,0-0.3,0-0.4-0.1c-0.2-0.1-0.3-0.4-0.3-0.6l0.2-2.7l-1.8-2.1c-0.1-0.2-0.2-0.4-0.1-0.7
			c0.1-0.2,0.2-0.4,0.5-0.5l2.6-0.1l1.3-2.8c0.2-0.3,0.6-0.4,1-0.3c0.1,0,0.2,0.1,0.3,0.3l1.2,2.8l2.5,0.1c0.2,0,0.4,0.2,0.5,0.5
			c0.1,0.2,0,0.5-0.1,0.7l-1.7,2.1l0.2,2.7c0,0.2-0.1,0.5-0.3,0.6c-0.2,0.1-0.4,0.1-0.7,0l-2.4-1.6L67.6,24.3
			C67.8,24.2,67.7,24.3,67.6,24.3z"/>
	</g>
</g>
<g id="Layer_53_38_">
	<g>
		<path d="M12.6,50.3c-0.1,0-0.3,0-0.4-0.1c-0.2-0.2-0.3-0.5-0.3-0.7l0.2-2.7l-1.8-2.1c-0.1-0.2-0.2-0.4-0.1-0.7
			c0.1-0.2,0.2-0.4,0.5-0.5l2.6-0.1l1.3-2.8c0.2-0.3,0.6-0.4,1-0.3c0.1,0,0.2,0.1,0.3,0.3l1.2,2.8l2.5,0.1c0.2,0,0.4,0.2,0.5,0.5
			c0.1,0.2,0,0.5-0.1,0.7l-1.7,2.1l0.2,2.7c0,0.2-0.1,0.5-0.3,0.6c-0.2,0.1-0.4,0.1-0.7,0l-2.4-1.6l-2.4,1.6
			C12.8,50.2,12.7,50.3,12.6,50.3z"/>
	</g>
</g>
<g id="Layer_53_39_">
	<g>
		<path d="M41.6,51.3c-0.1,0-0.3,0-0.4-0.1c-0.2-0.1-0.3-0.4-0.3-0.6l0.2-2.7l-1.8-2.1c-0.1-0.2-0.2-0.4-0.1-0.7
			c0.1-0.2,0.2-0.4,0.5-0.5l2.6-0.1l1.3-2.8c0.2-0.3,0.6-0.4,1-0.3c0.1,0,0.2,0.1,0.3,0.3l1.2,2.8l2.5,0.1c0.2,0,0.4,0.2,0.5,0.5
			c0.1,0.2,0,0.5-0.1,0.7l-1.7,2.1l0.2,2.7c0,0.2-0.1,0.5-0.3,0.6s-0.4,0.1-0.7,0l-2.4-1.6L41.6,51.3C41.8,51.2,41.7,51.3,41.6,51.3
			z"/>
	</g>
</g>
<g id="Layer_53_41_">
	<g>
		<path d="M94.6,24.3c-0.1,0-0.3,0-0.4-0.1c-0.2-0.1-0.3-0.4-0.3-0.6l0.2-2.7l-1.8-2.1c-0.1-0.2-0.2-0.4-0.1-0.7
			c0.1-0.2,0.2-0.4,0.5-0.5l2.6-0.1l1.3-2.8c0.2-0.3,0.6-0.4,1-0.3c0.1,0,0.2,0.1,0.3,0.3l1.2,2.8l2.5,0.1c0.2,0,0.4,0.2,0.5,0.5
			c0.1,0.2,0,0.5-0.1,0.7l-1.7,2.1l0.2,2.7c0,0.2-0.1,0.5-0.3,0.6c-0.2,0.1-0.4,0.1-0.7,0l-2.4-1.6L94.6,24.3
			C94.8,24.2,94.7,24.3,94.6,24.3z"/>
	</g>
</g>
<g id="Layer_53_42_">
	<g>
		<path d="M131.6,24.3c-0.1,0-0.3,0-0.4-0.1c-0.2-0.1-0.3-0.4-0.3-0.6l0.2-2.7l-1.8-2.1c-0.1-0.2-0.2-0.4-0.1-0.7
			c0.1-0.2,0.2-0.4,0.5-0.5l2.6-0.1l1.3-2.8c0.2-0.3,0.6-0.4,1-0.3c0.1,0,0.2,0.1,0.3,0.3l1.2,2.8l2.5,0.1c0.2,0,0.4,0.2,0.5,0.5
			c0.1,0.2,0,0.5-0.1,0.7l-1.7,2.1l0.2,2.7c0,0.2-0.1,0.5-0.3,0.6s-0.4,0.1-0.7,0l-2.4-1.6L131.6,24.3
			C131.8,24.2,131.7,24.3,131.6,24.3z"/>
	</g>
</g>
<g id="Layer_53_43_">
	<g>
		<path d="M126.6,43.3c-0.1,0-0.3,0-0.4-0.1c-0.2-0.1-0.3-0.4-0.3-0.6l0.2-2.7l-1.8-2.1c-0.1-0.2-0.2-0.4-0.1-0.7
			c0.1-0.2,0.2-0.4,0.5-0.5l2.6-0.1l1.3-2.8c0.2-0.3,0.6-0.4,1-0.3c0.1,0,0.2,0.1,0.3,0.3l1.2,2.8l2.5,0.1c0.2,0,0.4,0.2,0.5,0.5
			c0.1,0.2,0,0.5-0.1,0.7l-1.7,2.1l0.2,2.7c0,0.2-0.1,0.5-0.3,0.6c-0.2,0.1-0.4,0.1-0.7,0l-2.4-1.6L126.6,43.3
			C126.8,43.2,126.7,43.3,126.6,43.3z"/>
	</g>
</g>
<g id="Layer_53_44_">
	<g>
		<path d="M106.6,57.3c-0.1,0-0.3,0-0.4-0.1c-0.2-0.1-0.3-0.4-0.3-0.6l0.2-2.7l-1.8-2.1c-0.1-0.2-0.2-0.4-0.1-0.7
			c0.1-0.2,0.2-0.4,0.5-0.5l2.6-0.1l1.3-2.8c0.2-0.3,0.6-0.4,1-0.3c0.1,0,0.2,0.1,0.3,0.3l1.2,2.8l2.5,0.1c0.2,0,0.4,0.2,0.5,0.5
			c0.1,0.2,0,0.5-0.1,0.7l-1.7,2.1l0.2,2.7c0,0.2-0.1,0.5-0.3,0.6c-0.2,0.1-0.4,0.1-0.7,0l-2.4-1.6L106.6,57.3
			C106.8,57.2,106.7,57.3,106.6,57.3z"/>
	</g>
</g>
<g id="Layer_53_45_">
	<g>
		<path d="M87.6,53.3c-0.1,0-0.3,0-0.4-0.1c-0.2-0.1-0.3-0.4-0.3-0.6l0.2-2.7l-1.8-2.1c-0.1-0.2-0.2-0.4-0.1-0.7
			c0.1-0.2,0.2-0.4,0.5-0.5l2.6-0.1l1.3-2.8c0.2-0.3,0.6-0.4,1-0.3c0.1,0,0.2,0.1,0.3,0.3l1.2,2.8l2.5,0.1c0.2,0,0.4,0.2,0.5,0.5
			c0.1,0.2,0,0.5-0.1,0.7l-1.7,2.1l0.2,2.7c0,0.2-0.1,0.5-0.3,0.6c-0.2,0.1-0.4,0.1-0.7,0l-2.4-1.6L87.6,53.3
			C87.8,53.2,87.7,53.3,87.6,53.3z"/>
	</g>
</g>
<g id="Layer_53_46_">
	<g>
		<path d="M73.6,61.3c-0.1,0-0.3,0-0.4-0.1c-0.2-0.1-0.3-0.4-0.3-0.6l0.2-2.7l-1.8-2.1c-0.1-0.2-0.2-0.4-0.1-0.7
			c0.1-0.2,0.2-0.4,0.5-0.5l2.6-0.1l1.3-2.8c0.2-0.3,0.6-0.4,1-0.3c0.1,0,0.2,0.1,0.3,0.3l1.2,2.8l2.5,0.1c0.2,0,0.4,0.2,0.5,0.5
			c0.1,0.2,0,0.5-0.1,0.7l-1.7,2.1l0.2,2.7c0,0.2-0.1,0.5-0.3,0.6c-0.2,0.1-0.4,0.1-0.7,0l-2.4-1.6L73.6,61.3
			C73.8,61.2,73.7,61.3,73.6,61.3z"/>
	</g>
</g>
<g id="Layer_53_47_">
	<g>
		<path d="M58.6,69.3c-0.1,0-0.3,0-0.4-0.1c-0.2-0.1-0.3-0.4-0.3-0.6l0.2-2.7l-1.8-2.1c-0.1-0.2-0.2-0.4-0.1-0.7
			c0.1-0.2,0.2-0.4,0.5-0.5l2.6-0.1l1.3-2.8c0.2-0.3,0.6-0.4,1-0.3c0.1,0,0.2,0.1,0.3,0.3l1.2,2.8l2.5,0.1c0.2,0,0.4,0.2,0.5,0.5
			c0.1,0.2,0,0.5-0.1,0.7l-1.7,2.1l0.2,2.7c0,0.2-0.1,0.5-0.3,0.6c-0.2,0.1-0.4,0.1-0.7,0l-2.4-1.6L58.6,69.3
			C58.8,69.2,58.7,69.3,58.6,69.3z"/>
	</g>
</g>
<g id="Layer_53_48_">
	<g>
		<path d="M63.6,84.3c-0.1,0-0.3,0-0.4-0.1c-0.2-0.1-0.3-0.4-0.3-0.6l0.2-2.7l-1.8-2.1c-0.1-0.2-0.2-0.4-0.1-0.7
			c0.1-0.2,0.2-0.4,0.5-0.5l2.6-0.1l1.3-2.8c0.2-0.3,0.6-0.4,1-0.3c0.1,0,0.2,0.1,0.3,0.3l1.2,2.8l2.5,0.1c0.2,0,0.4,0.2,0.5,0.5
			c0.1,0.2,0,0.5-0.1,0.7l-1.7,2.1l0.2,2.7c0,0.2-0.1,0.5-0.3,0.6c-0.2,0.1-0.4,0.1-0.7,0l-2.4-1.6L63.6,84.3
			C63.8,84.2,63.7,84.3,63.6,84.3z"/>
	</g>
</g>
<g id="Layer_53_49_">
	<g>
		<path d="M49.6,94.3c-0.1,0-0.3,0-0.4-0.1c-0.2-0.1-0.3-0.4-0.3-0.6l0.2-2.7l-1.8-2.1c-0.1-0.2-0.2-0.4-0.1-0.7
			c0.1-0.2,0.2-0.4,0.5-0.5l2.6-0.1l1.3-2.8c0.2-0.3,0.6-0.4,1-0.3c0.1,0,0.2,0.1,0.3,0.3l1.2,2.8l2.5,0.1c0.2,0,0.4,0.2,0.5,0.5
			c0.1,0.2,0,0.5-0.1,0.7l-1.7,2.1l0.2,2.7c0,0.2-0.1,0.5-0.3,0.6s-0.4,0.1-0.7,0l-2.4-1.6L49.6,94.3C49.8,94.2,49.7,94.3,49.6,94.3
			z"/>
	</g>
</g>
<g id="Layer_53_50_">
	<g>
		<path d="M49.6,124.3c-0.1,0-0.3,0-0.4-0.1c-0.2-0.1-0.3-0.4-0.3-0.6l0.2-2.7l-1.8-2.1c-0.1-0.2-0.2-0.4-0.1-0.7
			c0.1-0.2,0.2-0.4,0.5-0.5l2.6-0.1l1.3-2.8c0.2-0.3,0.6-0.4,1-0.3c0.1,0,0.2,0.1,0.3,0.3l1.2,2.8l2.5,0.1c0.2,0,0.4,0.2,0.5,0.5
			c0.1,0.2,0,0.5-0.1,0.7l-1.7,2.1l0.2,2.7c0,0.2-0.1,0.5-0.3,0.6s-0.4,0.1-0.7,0l-2.4-1.6L49.6,124.3
			C49.8,124.2,49.7,124.3,49.6,124.3z"/>
	</g>
</g>
<g id="Layer_53_51_">
	<g>
		<path d="M74.6,92.3c-0.1,0-0.3,0-0.4-0.1c-0.2-0.1-0.3-0.4-0.3-0.6l0.2-2.7l-1.8-2.1c-0.1-0.2-0.2-0.4-0.1-0.7
			c0.1-0.2,0.2-0.4,0.5-0.5l2.6-0.1l1.3-2.8c0.2-0.3,0.6-0.4,1-0.3c0.1,0,0.2,0.1,0.3,0.3l1.2,2.8l2.5,0.1c0.2,0,0.4,0.2,0.5,0.5
			c0.1,0.2,0,0.5-0.1,0.7l-1.7,2.1l0.2,2.7c0,0.2-0.1,0.5-0.3,0.6c-0.2,0.1-0.4,0.1-0.7,0l-2.4-1.6L74.6,92.3
			C74.8,92.2,74.7,92.3,74.6,92.3z"/>
	</g>
</g>
<g id="Layer_53_52_">
	<g>
		<path d="M83.6,74.3c-0.1,0-0.3,0-0.4-0.1c-0.2-0.1-0.3-0.4-0.3-0.6l0.2-2.7l-1.8-2.1c-0.1-0.2-0.2-0.4-0.1-0.7
			c0.1-0.2,0.2-0.4,0.5-0.5l2.6-0.1l1.3-2.8c0.2-0.3,0.6-0.4,1-0.3c0.1,0,0.2,0.1,0.3,0.3l1.2,2.8l2.5,0.1c0.2,0,0.4,0.2,0.5,0.5
			c0.1,0.2,0,0.5-0.1,0.7l-1.7,2.1l0.2,2.7c0,0.2-0.1,0.5-0.3,0.6c-0.2,0.1-0.4,0.1-0.7,0l-2.4-1.6L83.6,74.3
			C83.8,74.2,83.7,74.3,83.6,74.3z"/>
	</g>
</g>
<g id="Layer_53_53_">
	<g>
		<path d="M110.6,83.3c-0.1,0-0.3,0-0.4-0.1c-0.2-0.1-0.3-0.4-0.3-0.6l0.2-2.7l-1.8-2.1c-0.1-0.2-0.2-0.4-0.1-0.7
			c0.1-0.2,0.2-0.4,0.5-0.5l2.6-0.1l1.3-2.8c0.2-0.3,0.6-0.4,1-0.3c0.1,0,0.2,0.1,0.3,0.3l1.2,2.8l2.5,0.1c0.2,0,0.4,0.2,0.5,0.5
			c0.1,0.2,0,0.5-0.1,0.7l-1.7,2.1l0.2,2.7c0,0.2-0.1,0.5-0.3,0.6c-0.2,0.1-0.4,0.1-0.7,0l-2.4-1.6L110.6,83.3
			C110.8,83.2,110.7,83.3,110.6,83.3z"/>
	</g>
</g>
<g id="Layer_53_54_">
	<g>
		<path d="M129.6,85.3c-0.1,0-0.3,0-0.4-0.1c-0.2-0.1-0.3-0.4-0.3-0.6l0.2-2.7l-1.8-2.1c-0.1-0.2-0.2-0.4-0.1-0.7
			c0.1-0.2,0.2-0.4,0.5-0.5l2.6-0.1l1.3-2.8c0.2-0.3,0.6-0.4,1-0.3c0.1,0,0.2,0.1,0.3,0.3l1.2,2.8l2.5,0.1c0.2,0,0.4,0.2,0.5,0.5
			c0.1,0.2,0,0.5-0.1,0.7l-1.7,2.1l0.2,2.7c0,0.2-0.1,0.5-0.3,0.6s-0.4,0.1-0.7,0l-2.4-1.6L129.6,85.3
			C129.8,85.2,129.7,85.3,129.6,85.3z"/>
	</g>
</g>
<g id="Layer_53_55_">
	<g>
		<path d="M109.6,125.3c-0.1,0-0.3,0-0.4-0.1c-0.2-0.1-0.3-0.4-0.3-0.6l0.2-2.7l-1.8-2.1c-0.1-0.2-0.2-0.4-0.1-0.7
			c0.1-0.2,0.2-0.4,0.5-0.5l2.6-0.1l1.3-2.8c0.2-0.3,0.6-0.4,1-0.3c0.1,0,0.2,0.1,0.3,0.3l1.2,2.8l2.5,0.1c0.2,0,0.4,0.2,0.5,0.5
			c0.1,0.2,0,0.5-0.1,0.7l-1.7,2.1l0.2,2.7c0,0.2-0.1,0.5-0.3,0.6c-0.2,0.1-0.4,0.1-0.7,0l-2.4-1.6L109.6,125.3
			C109.8,125.2,109.7,125.3,109.6,125.3z"/>
	</g>
</g>
<g id="Layer_53_56_">
	<g>
		<path d="M96.6,145.3c-0.1,0-0.3,0-0.4-0.1c-0.2-0.1-0.3-0.4-0.3-0.6l0.2-2.7l-1.8-2.1c-0.1-0.2-0.2-0.4-0.1-0.7
			c0.1-0.2,0.2-0.4,0.5-0.5l2.6-0.1l1.3-2.8c0.2-0.3,0.6-0.4,1-0.3c0.1,0,0.2,0.1,0.3,0.3l1.2,2.8l2.5,0.1c0.2,0,0.4,0.2,0.5,0.5
			c0.1,0.2,0,0.5-0.1,0.7l-1.7,2.1l0.2,2.7c0,0.2-0.1,0.5-0.3,0.6c-0.2,0.1-0.4,0.1-0.7,0l-2.4-1.6l-2.4,1.6
			C96.8,145.2,96.7,145.3,96.6,145.3z"/>
	</g>
</g>
<g id="Layer_53_57_">
	<g>
		<path d="M120.6,155.3c-0.1,0-0.3,0-0.4-0.1c-0.2-0.1-0.3-0.4-0.3-0.6l0.2-2.7l-1.8-2.1c-0.1-0.2-0.2-0.4-0.1-0.7
			c0.1-0.2,0.2-0.4,0.5-0.5l2.6-0.1l1.3-2.8c0.2-0.3,0.6-0.4,1-0.3c0.1,0,0.2,0.1,0.3,0.3l1.2,2.8l2.5,0.1c0.2,0,0.4,0.2,0.5,0.5
			c0.1,0.2,0,0.5-0.1,0.7l-1.7,2.1l0.2,2.7c0,0.2-0.1,0.5-0.3,0.6c-0.2,0.1-0.4,0.1-0.7,0l-2.4-1.6l-2.4,1.6
			C120.8,155.2,120.7,155.3,120.6,155.3z"/>
	</g>
</g>
<g id="Layer_53_58_">
	<g>
		<path d="M133.6,143.3c-0.1,0-0.3,0-0.4-0.1c-0.2-0.1-0.3-0.4-0.3-0.6l0.2-2.7l-1.8-2.1c-0.1-0.2-0.2-0.4-0.1-0.7
			c0.1-0.2,0.2-0.4,0.5-0.5l2.6-0.1l1.3-2.8c0.2-0.3,0.6-0.4,1-0.3c0.1,0,0.2,0.1,0.3,0.3l1.2,2.8l2.5,0.1c0.2,0,0.4,0.2,0.5,0.5
			c0.1,0.2,0,0.5-0.1,0.7l-1.7,2.1l0.2,2.7c0,0.2-0.1,0.5-0.3,0.6s-0.4,0.1-0.7,0l-2.4-1.6l-2.4,1.6
			C133.8,143.2,133.7,143.3,133.6,143.3z"/>
	</g>
</g>
</svg>
