<?xml version="1.0" encoding="utf-8"?>
<!-- Generator: Adobe Illustrator 21.0.2, SVG Export Plug-In . SVG Version: 6.00 Build 0)  -->
<svg version="1.1" id="Livello_1" xmlns="http://www.w3.org/2000/svg" xmlns:xlink="http://www.w3.org/1999/xlink" x="0px" y="0px"
	 viewBox="0 0 130 122" style="enable-background:new 0 0 130 122;" xml:space="preserve">
<style type="text/css">
	.st0{fill:none;stroke:#000000;stroke-linecap:round;stroke-linejoin:round;stroke-miterlimit:10;}
</style>
<polyline class="st0" points="14.7,21.2 28,42.8 44.8,58.3 68.2,58.7 90.8,70.8 109.8,90.8 113.5,107 "/>
<polyline class="st0" points="43,15.7 66.3,32 67.8,57.2 "/>
<g id="Layer_53_106_">
	<g>
		<path d="M24.8,46.1c-0.1,0-0.3,0-0.4-0.1c-0.2-0.1-0.3-0.4-0.3-0.6l0.2-2.7l-1.8-2.1c-0.1-0.2-0.2-0.4-0.1-0.7
			c0.1-0.2,0.2-0.4,0.5-0.5l2.6-0.1l1.3-2.8c0.2-0.3,0.6-0.4,1-0.3c0.1,0,0.2,0.1,0.3,0.3l1.2,2.8l2.5,0.1c0.2,0,0.4,0.2,0.5,0.5
			c0.1,0.2,0,0.5-0.1,0.7l-1.7,2.1l0.2,2.7c0,0.2-0.1,0.5-0.3,0.6c-0.2,0.1-0.4,0.1-0.7,0l-2.4-1.6L25,46
			C24.9,46.1,24.9,46.1,24.8,46.1z M25.7,39.1"/>
	</g>
</g>
<g id="Layer_53_107_">
	<g>
		<path d="M13.8,26.1c-0.1,0-0.3,0-0.4-0.1c-0.2-0.1-0.3-0.4-0.3-0.6l0.2-2.7l-1.8-2.1c-0.1-0.2-0.2-0.4-0.1-0.7
			c0.1-0.2,0.2-0.4,0.5-0.5l2.6-0.1l1.3-2.8c0.2-0.3,0.6-0.4,1-0.3c0.1,0,0.2,0.1,0.3,0.3l1.2,2.8l2.5,0.1c0.2,0,0.4,0.2,0.5,0.5
			c0.1,0.2,0,0.5-0.1,0.7l-1.7,2.1l0.2,2.7c0,0.2-0.1,0.5-0.3,0.6c-0.2,0.1-0.4,0.1-0.7,0l-2.4-1.6L14,26
			C13.9,26.1,13.9,26.1,13.8,26.1z M14.7,19.1"/>
	</g>
</g>
<g id="Layer_53_108_">
	<g>
		<path d="M41.8,20.1c-0.1,0-0.3,0-0.4-0.1c-0.2-0.1-0.3-0.4-0.3-0.6l0.2-2.7l-1.8-2.1c-0.1-0.2-0.2-0.4-0.1-0.7
			c0.1-0.2,0.2-0.4,0.5-0.5l2.6-0.1l1.3-2.8c0.2-0.3,0.6-0.4,1-0.3c0.1,0,0.2,0.1,0.3,0.3l1.2,2.8l2.5,0.1c0.2,0,0.4,0.2,0.5,0.5
			c0.1,0.2,0,0.5-0.1,0.7l-1.7,2.1l0.2,2.7c0,0.2-0.1,0.5-0.3,0.6c-0.2,0.1-0.4,0.1-0.7,0l-2.4-1.6L42,20
			C41.9,20.1,41.9,20.1,41.8,20.1z M42.7,13.1"/>
	</g>
</g>
<g id="Layer_53_109_">
	<g>
		<path d="M63.8,36.1c-0.1,0-0.3,0-0.4-0.1c-0.2-0.1-0.3-0.4-0.3-0.6l0.2-2.7l-1.8-2.1c-0.1-0.2-0.2-0.4-0.1-0.7
			c0.1-0.2,0.2-0.4,0.5-0.5l2.6-0.1l1.3-2.8c0.2-0.3,0.6-0.4,1-0.3c0.1,0,0.2,0.1,0.3,0.3l1.2,2.8l2.5,0.1c0.2,0,0.4,0.2,0.5,0.5
			c0.1,0.2,0,0.5-0.1,0.7l-1.7,2.1l0.2,2.7c0,0.2-0.1,0.5-0.3,0.6s-0.4,0.1-0.7,0l-2.4-1.6L64,36C63.9,36.1,63.9,36.1,63.8,36.1z
			 M64.7,29.1"/>
	</g>
</g>
<g id="Layer_53_110_">
	<g>
		<path d="M64.8,63.1c-0.1,0-0.3,0-0.4-0.1c-0.2-0.1-0.3-0.4-0.3-0.6l0.2-2.7l-1.8-2.1c-0.1-0.2-0.2-0.4-0.1-0.7
			c0.1-0.2,0.2-0.4,0.5-0.5l2.6-0.1l1.3-2.8c0.2-0.3,0.6-0.4,1-0.3c0.1,0,0.2,0.1,0.3,0.3l1.2,2.8l2.5,0.1c0.2,0,0.4,0.2,0.5,0.5
			c0.1,0.2,0,0.5-0.1,0.7l-1.7,2.1l0.2,2.7c0,0.2-0.1,0.5-0.3,0.6s-0.4,0.1-0.7,0l-2.4-1.6L65,63C64.9,63.1,64.9,63.1,64.8,63.1z
			 M65.7,56.1"/>
	</g>
</g>
<g id="Layer_53_111_">
	<g>
		<path d="M41.8,63.1c-0.1,0-0.3,0-0.4-0.1c-0.2-0.1-0.3-0.4-0.3-0.6l0.2-2.7l-1.8-2.1c-0.1-0.2-0.2-0.4-0.1-0.7
			c0.1-0.2,0.2-0.4,0.5-0.5l2.6-0.1l1.3-2.8c0.2-0.3,0.6-0.4,1-0.3c0.1,0,0.2,0.1,0.3,0.3l1.2,2.8l2.5,0.1c0.2,0,0.4,0.2,0.5,0.5
			c0.1,0.2,0,0.5-0.1,0.7l-1.7,2.1l0.2,2.7c0,0.2-0.1,0.5-0.3,0.6s-0.4,0.1-0.7,0l-2.4-1.6L42,63C41.9,63.1,41.9,63.1,41.8,63.1z
			 M42.7,56.1"/>
	</g>
</g>
<g id="Layer_53_112_">
	<g>
		<path d="M88.8,75.1c-0.1,0-0.3,0-0.4-0.1c-0.2-0.1-0.3-0.4-0.3-0.6l0.2-2.7l-1.8-2.1c-0.1-0.2-0.2-0.4-0.1-0.7
			c0.1-0.2,0.2-0.4,0.5-0.5l2.6-0.1l1.3-2.8c0.2-0.3,0.6-0.4,1-0.3c0.1,0,0.2,0.1,0.3,0.3l1.2,2.8l2.5,0.1c0.2,0,0.4,0.2,0.5,0.5
			c0.1,0.2,0,0.5-0.1,0.7l-1.7,2.1l0.2,2.7c0,0.2-0.1,0.5-0.3,0.6c-0.2,0.1-0.4,0.1-0.7,0l-2.4-1.6L89,75
			C88.9,75.1,88.9,75.1,88.8,75.1z M89.7,68.1"/>
	</g>
</g>
<g id="Layer_53_113_">
	<g>
		<path d="M107.8,95.1c-0.1,0-0.3,0-0.4-0.1c-0.2-0.1-0.3-0.4-0.3-0.6l0.2-2.7l-1.8-2.1c-0.1-0.2-0.2-0.4-0.1-0.7
			c0.1-0.2,0.2-0.4,0.5-0.5l2.6-0.1l1.3-2.8c0.2-0.3,0.6-0.4,1-0.3c0.1,0,0.2,0.1,0.3,0.3l1.2,2.8l2.5,0.1c0.2,0,0.4,0.2,0.5,0.5
			c0.1,0.2,0,0.5-0.1,0.7l-1.7,2.1l0.2,2.7c0,0.2-0.1,0.5-0.3,0.6c-0.2,0.1-0.4,0.1-0.7,0l-2.4-1.6L108,95
			C107.9,95.1,107.9,95.1,107.8,95.1z M108.7,88.1"/>
	</g>
</g>
<g id="Layer_53_114_">
	<g>
		<path d="M110.8,112.1c-0.1,0-0.3,0-0.4-0.1c-0.2-0.1-0.3-0.4-0.3-0.6l0.2-2.7l-1.8-2.1c-0.1-0.2-0.2-0.4-0.1-0.7
			c0.1-0.2,0.2-0.4,0.5-0.5l2.6-0.1l1.3-2.8c0.2-0.3,0.6-0.4,1-0.3c0.1,0,0.2,0.1,0.3,0.3l1.2,2.8l2.5,0.1c0.2,0,0.4,0.2,0.5,0.5
			c0.1,0.2,0,0.5-0.1,0.7l-1.7,2.1l0.2,2.7c0,0.2-0.1,0.5-0.3,0.6c-0.2,0.1-0.4,0.1-0.7,0l-2.4-1.6L111,112
			C110.9,112.1,110.9,112.1,110.8,112.1z M111.7,105.1"/>
	</g>
</g>
</svg>
