<?xml version="1.0" encoding="utf-8"?>
<!-- Generator: Adobe Illustrator 21.0.2, SVG Export Plug-In . SVG Version: 6.00 Build 0)  -->
<svg version="1.1" id="Livello_1" xmlns="http://www.w3.org/2000/svg" xmlns:xlink="http://www.w3.org/1999/xlink" x="0px" y="0px"
	 viewBox="0 0 150 100" style="enable-background:new 0 0 150 100;" xml:space="preserve">
<style type="text/css">
	.st0{fill:none;stroke:#000000;stroke-linecap:round;stroke-linejoin:round;stroke-miterlimit:10;}
</style>
<polyline class="st0" points="16.5,47.3 37,35.7 54.9,46 58.9,82.6 13.8,80.4 "/>
<polyline class="st0" points="56.7,44.2 77.7,37.5 80.4,19.1 "/>
<polyline class="st0" points="60.7,81.3 72.3,62 91.6,53.1 77.7,37.5 "/>
<polyline class="st0" points="137.1,50.4 110.3,60.3 91.6,53.1 "/>
<g id="Layer_53_20_">
	<g>
		<path d="M11.4,84.4c-0.1,0-0.3-0.1-0.4-0.1c-0.2-0.1-0.3-0.4-0.3-0.6l0.2-2.7l-1.8-2.1C9,78.7,8.9,78.5,9,78.3s0.2-0.4,0.5-0.5
			l2.6-0.1l1.4-2.8c0.2-0.4,0.6-0.4,0.9-0.3c0.1,0.1,0.2,0.1,0.3,0.3l1.2,2.8l2.5,0.1c0.2,0.1,0.4,0.2,0.5,0.5
			c0.1,0.2,0.1,0.5-0.1,0.6L17.1,81l0.2,2.7c0,0.2-0.1,0.5-0.3,0.6c-0.2,0.1-0.4,0.1-0.6,0.1L14,82.8l-2.4,1.6
			C11.6,84.4,11.6,84.4,11.4,84.4z"/>
	</g>
</g>
<g id="Layer_53_21_">
	<g>
		<path d="M56.9,86.7c-0.1,0-0.3-0.1-0.4-0.1c-0.2-0.1-0.3-0.4-0.3-0.6l0.2-2.7l-1.8-2.1c-0.1-0.2-0.2-0.4-0.1-0.6s0.2-0.4,0.5-0.5
			l2.6-0.1l1.4-2.8c0.2-0.4,0.6-0.4,0.9-0.3c0.1,0.1,0.2,0.1,0.3,0.3l1.2,2.8l2.5,0.1c0.2,0.1,0.4,0.2,0.5,0.5
			c0.1,0.2,0.1,0.5-0.1,0.6l-1.7,2.1l0.2,2.7c0,0.2-0.1,0.5-0.3,0.6s-0.4,0.1-0.6,0.1l-2.4-1.6l-2.4,1.6
			C57.1,86.7,57,86.7,56.9,86.7z"/>
	</g>
</g>
<g id="Layer_53_22_">
	<g>
		<path d="M69.1,67c-0.1,0-0.3-0.1-0.4-0.1c-0.2-0.1-0.3-0.4-0.3-0.6l0.2-2.7l-1.8-2.1c-0.1-0.2-0.2-0.4-0.1-0.6
			c0.1-0.2,0.2-0.4,0.5-0.5l2.6-0.1l1.4-2.8c0.2-0.4,0.6-0.4,0.9-0.3c0.1,0.1,0.2,0.1,0.3,0.3l1.2,2.8l2.5,0.1
			c0.2,0.1,0.4,0.2,0.5,0.5c0.1,0.2,0.1,0.5-0.1,0.6l-1.7,2.1l0.2,2.7c0,0.2-0.1,0.5-0.3,0.6C74.5,67,74.3,67,74.1,67l-2.4-1.6
			L69.3,67C69.3,66.9,69.3,67,69.1,67z"/>
	</g>
</g>
<g id="Layer_53_23_">
	<g>
		<path d="M52.4,48.7c-0.1,0-0.3-0.1-0.4-0.1c-0.2-0.1-0.3-0.4-0.3-0.6l0.2-2.7l-1.8-2c-0.1-0.2-0.2-0.4-0.1-0.6
			c0.1-0.2,0.2-0.4,0.5-0.5l2.6-0.1l1.4-2.8c0.2-0.4,0.6-0.4,0.9-0.3c0.1,0.1,0.2,0.1,0.3,0.3l1.2,2.8l2.5,0.1
			c0.2,0.1,0.4,0.2,0.5,0.5c0.1,0.2,0.1,0.5-0.1,0.6l-1.7,2.1l0.2,2.7c0,0.2-0.1,0.5-0.3,0.6s-0.4,0.1-0.6,0.1L55,47.1l-2.4,1.6
			C52.6,48.7,52.5,48.7,52.4,48.7z"/>
	</g>
</g>
<g id="Layer_53_24_">
	<g>
		<path d="M12.5,51.3c-0.1,0-0.3-0.1-0.4-0.1c-0.2-0.1-0.3-0.4-0.3-0.6l0.2-2.7l-1.8-2.1c-0.1-0.2-0.2-0.4-0.1-0.6s0.2-0.4,0.5-0.5
			l2.6-0.1l1.4-2.8c0.2-0.4,0.6-0.4,0.9-0.3c0.1,0.1,0.2,0.1,0.3,0.3l1.2,2.8l2.5,0.1c0.2,0.1,0.4,0.2,0.5,0.5
			c0.1,0.2,0.1,0.5-0.1,0.6l-1.7,2.1l0.2,2.7c0,0.2-0.1,0.5-0.3,0.6c-0.2,0.1-0.4,0.1-0.6,0.1l-2.3-1.6l-2.4,1.6
			C12.7,51.2,12.6,51.3,12.5,51.3z"/>
	</g>
</g>
<g id="Layer_53_25_">
	<g>
		<path d="M34.1,39.9c-0.1,0-0.3-0.1-0.4-0.1c-0.2-0.1-0.3-0.4-0.3-0.6l0.2-2.7l-1.8-2c-0.1-0.2-0.2-0.4-0.1-0.6
			c0.1-0.2,0.2-0.4,0.5-0.5l2.6-0.1l1.4-2.8c0.2-0.4,0.6-0.4,0.9-0.3c0.1,0.1,0.2,0.1,0.3,0.3l1.2,2.8l2.5,0.1
			c0.2,0.1,0.4,0.2,0.5,0.5c0.1,0.2,0.1,0.5-0.1,0.6l-1.7,2.1l0.2,2.7c0,0.2-0.1,0.5-0.3,0.6S39.3,40,39.1,40l-2.4-1.6L34.3,40
			C34.3,39.9,34.2,39.9,34.1,39.9z"/>
	</g>
</g>
<g id="Layer_53_26_">
	<g>
		<path d="M74.5,42.6c-0.1,0-0.3-0.1-0.4-0.1c-0.2-0.1-0.3-0.4-0.3-0.6l0.2-2.7L72.3,37c-0.1-0.2-0.2-0.4-0.1-0.6
			c0.1-0.2,0.2-0.4,0.5-0.5l2.6-0.1l1.4-2.8c0.2-0.4,0.6-0.4,0.9-0.3c0.1,0.1,0.2,0.1,0.3,0.3l1.2,2.8l2.5,0.1
			c0.2,0.1,0.4,0.2,0.5,0.5c0.1,0.2,0.1,0.5-0.1,0.6l-1.7,2.1l0.2,2.7c0,0.2-0.1,0.5-0.3,0.6c-0.2,0.1-0.4,0.1-0.6,0.1L77.1,41
			l-2.4,1.6C74.7,42.5,74.6,42.6,74.5,42.6z"/>
	</g>
</g>
<g id="Layer_53_27_">
	<g>
		<path d="M89,58.3c-0.1,0-0.3-0.1-0.4-0.1c-0.2-0.1-0.3-0.4-0.3-0.6l0.2-2.7l-1.8-2.1c-0.1-0.2-0.2-0.4-0.1-0.6
			c0.1-0.2,0.2-0.4,0.5-0.5l2.6-0.1l1.4-2.8c0.2-0.4,0.6-0.4,0.9-0.3c0.1,0.1,0.2,0.1,0.3,0.3l1.2,2.8l2.5,0.1
			c0.2,0.1,0.4,0.2,0.5,0.5c0.1,0.2,0.1,0.5-0.1,0.6l-1.7,2.1l0.2,2.7c0,0.2-0.1,0.5-0.3,0.6s-0.4,0.1-0.6,0.1l-2.4-1.6l-2.4,1.6
			C89.2,58.2,89.1,58.3,89,58.3z"/>
	</g>
</g>
<g id="Layer_53_28_">
	<g>
		<path d="M77.6,22.8c-0.1,0-0.3-0.1-0.4-0.1C77.1,22.6,77,22.3,77,22l0.2-2.6l-1.8-2.1c-0.1-0.2-0.2-0.4-0.1-0.6
			c0.1-0.2,0.2-0.4,0.5-0.5l2.6-0.1l1.4-2.8c0.2-0.4,0.6-0.4,0.9-0.3c0.1,0.1,0.2,0.1,0.3,0.3l1.2,2.8l2.5,0.1
			c0.2,0.1,0.4,0.2,0.5,0.5c0.1,0.2,0.1,0.5-0.1,0.6l-1.6,2.1l0.2,2.7c0,0.2-0.1,0.5-0.3,0.6s-0.4,0.1-0.6,0.1l-2.4-1.6L78,22.7
			C77.8,22.8,77.8,22.8,77.6,22.8z"/>
	</g>
</g>
<g id="Layer_53_29_">
	<g>
		<path d="M133.6,53.4c-0.1,0-0.3-0.1-0.4-0.1c-0.2-0.1-0.3-0.4-0.3-0.6l0.2-2.7l-1.8-2.1c-0.1-0.2-0.2-0.4-0.1-0.6
			c0.1-0.2,0.2-0.4,0.5-0.5l2.6-0.1l1.4-2.8c0.2-0.4,0.6-0.4,0.9-0.3c0.1,0.1,0.2,0.1,0.3,0.3l1.2,2.8l2.5,0.1
			c0.2,0.1,0.4,0.2,0.5,0.5c0.1,0.2,0.1,0.5-0.1,0.6l-1.7,2.1l0.2,2.7c0,0.2-0.1,0.5-0.3,0.6s-0.4,0.1-0.6,0.1l-2.4-1.6l-2.4,1.6
			C133.8,53.3,133.7,53.4,133.6,53.4z"/>
	</g>
</g>
<g id="Layer_53_30_">
	<g>
		<path d="M108.6,64c-0.1,0-0.3-0.1-0.4-0.1c-0.2-0.1-0.3-0.4-0.3-0.6l0.2-2.7l-1.8-2.1c-0.1-0.2-0.2-0.4-0.1-0.6
			c0.1-0.2,0.2-0.4,0.5-0.5l2.6-0.1l1.4-2.8c0.2-0.4,0.6-0.4,0.9-0.3c0.1,0.1,0.2,0.1,0.3,0.3l1.2,2.8l2.5,0.1
			c0.2,0.1,0.4,0.2,0.5,0.5c0.1,0.2,0.1,0.5-0.1,0.6l-1.7,2.1l0.2,2.7c0,0.2-0.1,0.5-0.3,0.6c-0.2,0.1-0.4,0.1-0.6,0.1l-2.4-1.6
			l-2.4,1.6C108.8,64,108.7,64,108.6,64z"/>
	</g>
</g>
</svg>
