<?xml version="1.0" encoding="utf-8"?>
<!-- Generator: Adobe Illustrator 21.0.2, SVG Export Plug-In . SVG Version: 6.00 Build 0)  -->
<svg version="1.1" id="Livello_1" xmlns="http://www.w3.org/2000/svg" xmlns:xlink="http://www.w3.org/1999/xlink" x="0px" y="0px"
	 viewBox="0 0 110 110" style="enable-background:new 0 0 110 110;" xml:space="preserve">
<style type="text/css">
	.st0{fill:#6EAF12;}
	.st1{fill:none;stroke:#6EAF12;stroke-width:4;stroke-linecap:round;stroke-linejoin:round;stroke-miterlimit:10;}
</style>
<g>
	<g>
		<path class="st0" d="M98.2,17.9L98.2,17.9 M98.2,17.9l-43.3,75l-43.3-75H98.2 M98.2,13.9L98.2,13.9H11.6c-1.4,0-2.7,0.8-3.5,2
			c-0.7,1.2-0.7,2.8,0,4l43.3,75c0.7,1.2,2,2,3.5,2s2.7-0.8,3.5-2L101.6,20c0.4-0.6,0.6-1.3,0.6-2.1
			C102.2,15.7,100.4,13.9,98.2,13.9L98.2,13.9z M98.2,21.9L98.2,21.9L98.2,21.9L98.2,21.9z"/>
	</g>
</g>
<g>
	<line class="st1" x1="76.4" y1="58.9" x2="33.4" y2="58.9"/>
</g>
</svg>
