<?xml version="1.0" encoding="utf-8"?>
<!-- Generator: Adobe Illustrator 21.0.2, SVG Export Plug-In . SVG Version: 6.00 Build 0)  -->
<svg version="1.1" id="Livello_1" xmlns="http://www.w3.org/2000/svg" xmlns:xlink="http://www.w3.org/1999/xlink" x="0px" y="0px"
	 viewBox="0 0 110 110" style="enable-background:new 0 0 110 110;" xml:space="preserve">
<style type="text/css">
	.st0{fill:none;stroke:#232323;stroke-width:4;stroke-linecap:round;stroke-miterlimit:10;}
</style>
<g>
	<path class="st0" d="M51.4,36.8c0-6.3,5.1-11.4,11.4-11.4s11.4,5.1,11.4,11.4"/>
	<path class="st0" d="M97,73.9c0,6.3-5.1,11.4-11.4,11.4c-6.3,0-11.4-5.1-11.4-11.4"/>
	<path class="st0" d="M28.6,36.8c0-6.3,5.1-11.4,11.4-11.4s11.4,5.1,11.4,11.4"/>
	<path class="st0" d="M5.8,36.8c0-3,1.2-5.7,3-7.8c2.1-2.2,5.1-3.6,8.4-3.6c6.3,0,11.4,5.1,11.4,11.4"/>
	<line class="st0" x1="28.6" y1="35.9" x2="28.6" y2="74.3"/>
	<line class="st0" x1="51.4" y1="35.9" x2="51.4" y2="74.3"/>
	<line class="st0" x1="74.2" y1="35.9" x2="74.2" y2="74.3"/>
	<line class="st0" x1="97" y1="63.1" x2="97" y2="74.7"/>
	<line class="st0" x1="97" y1="62.7" x2="89.8" y2="70"/>
	<line class="st0" x1="97" y1="62.7" x2="104.2" y2="70"/>
</g>
</svg>
