<?xml version="1.0" encoding="utf-8"?>
<!-- Generator: Adobe Illustrator 21.0.2, SVG Export Plug-In . SVG Version: 6.00 Build 0)  -->
<svg version="1.1" xmlns="http://www.w3.org/2000/svg" xmlns:xlink="http://www.w3.org/1999/xlink" x="0px" y="0px"
	 viewBox="0 0 110 110" style="enable-background:new 0 0 110 110;" xml:space="preserve">
<style type="text/css">
	.st0{fill:#FFFFFF;}
	.st1{fill:#3B5998;}
</style>
<g id="Livello_3">
	<g>
		<path class="st0" d="M87.5,104.5h-65c-9.4,0-17-7.7-17-17v-65c0-9.4,7.6-17,17-17h65c9.3,0,17,7.6,17,17v65
			C104.5,96.8,96.8,104.5,87.5,104.5z"/>
		<path class="st0" d="M87.5,5.5c9.3,0,17,7.7,17,17v65c0,9.3-7.7,17-17,17h-65c-9.4,0-17-7.7-17-17v-65c0-9.3,7.6-17,17-17H87.5
			 M87.5,1.5h-65c-11.6,0-21,9.4-21,21v65c0,11.6,9.4,21,21,21h65c11.6,0,21-9.4,21-21v-65C108.5,10.9,99.1,1.5,87.5,1.5L87.5,1.5z"
			/>
	</g>
</g>
<g id="Livello_2">
	<g>
		<path class="st1" d="M87.5,104.5h-65c-9.4,0-17-7.7-17-17v-65c0-9.4,7.6-17,17-17h65c9.3,0,17,7.6,17,17v65
			C104.5,96.8,96.8,104.5,87.5,104.5z"/>
	</g>
</g>
<g id="Livello_1">
	<path class="st0" d="M74,106V67.3h13l1.9-15.1H74v-9.6c0-4.4,1.2-7.3,7.5-7.3h8V21.7c-1.4-0.2-6.1-0.6-11.7-0.6
		c-11.5,0-19.4,7-19.4,20v11.1h-13v15.1h13V106"/>
</g>
</svg>
