<?xml version="1.0" encoding="utf-8"?>
<!-- Generator: Adobe Illustrator 21.0.2, SVG Export Plug-In . SVG Version: 6.00 Build 0)  -->
<svg version="1.1" id="Livello_1" xmlns="http://www.w3.org/2000/svg" xmlns:xlink="http://www.w3.org/1999/xlink" x="0px" y="0px"
	 viewBox="0 0 110 110" style="enable-background:new 0 0 110 110;" xml:space="preserve">
<style type="text/css">
	.st0{fill:none;stroke:#232323;stroke-width:4;stroke-linecap:round;stroke-miterlimit:10;}
</style>
<g>
	<path class="st0" d="M35.6,26.7c0-10.2,8.2-18.4,18.4-18.4s18.4,8.2,18.4,18.4"/>
	<path class="st0" d="M35.6,26.7"/>
	<path class="st0" d="M39.5,54.9"/>
	<g>
		<path class="st0" d="M72.4,26.7c0.5,6-2.3,27.4-3.9,39.5"/>
		<path class="st0" d="M104,82.6"/>
		<g>
			<path class="st0" d="M104,83.3c0,10.2-8.2,18.4-18.4,18.4s-18.4-8.2-18.4-18.4"/>
			<path class="st0" d="M67.2,83.3c-0.2-2.9,0.5-9.9,1.3-17.1"/>
		</g>
	</g>
	<g>
		<path class="st0" d="M35.6,26.7c0,0-0.2,4.9,0.2,11.3c0.4,6,1.5,13.2,2.2,18.2"/>
		<path class="st0" d="M4,84.6"/>
		<g>
			<path class="st0" d="M38.9,68.1c0.2-2-0.3-6.9-0.9-11.9"/>
		</g>
	</g>
</g>
<circle class="st0" cx="24.8" cy="67.5" r="14.1"/>
</svg>
