<?xml version="1.0" encoding="utf-8"?>
<!-- Generator: Adobe Illustrator 21.0.2, SVG Export Plug-In . SVG Version: 6.00 Build 0)  -->
<svg version="1.1" id="Livello_1" xmlns="http://www.w3.org/2000/svg" xmlns:xlink="http://www.w3.org/1999/xlink" x="0px" y="0px"
	 viewBox="0 0 1346.9 97.5" style="enable-background:new 0 0 1346.9 97.5;" xml:space="preserve">
<style type="text/css">
	.st0{fill:#3F7B97;}
	.st1{fill:none;stroke:#3F7B97;stroke-width:4;stroke-linecap:round;stroke-linejoin:round;stroke-miterlimit:10;}
	.st2{fill:#6EAF12;}
	.st3{fill:#E4395B;}
	.st4{fill:#46AEB1;}
	.st5{fill:none;stroke:#6EAF12;stroke-width:4;stroke-linecap:round;stroke-linejoin:round;stroke-miterlimit:10;}
	.st6{fill:#424966;}
</style>
<g>
	<path class="st0" d="M63.9,12.4l43.3,75H20.6L63.9,12.4 M63.9,8.4c-1.4,0-2.7,0.8-3.5,2l-43.3,75c-0.7,1.2-0.7,2.8,0,4
		c0.7,1.2,2,2,3.5,2h86.6c1.4,0,2.7-0.8,3.5-2c0.7-1.2,0.7-2.8,0-4l-43.3-75C66.6,9.2,65.3,8.4,63.9,8.4L63.9,8.4z"/>
</g>
<g>
	<line class="st1" x1="42.4" y1="46.4" x2="85.4" y2="46.4"/>
</g>
<g>
	<g>
		<path class="st2" d="M187.2,12.4L187.2,12.4 M187.2,12.4l-43.3,75l-43.3-75H187.2 M187.2,8.4L187.2,8.4h-86.6
			c-1.4,0-2.7,0.8-3.5,2c-0.7,1.2-0.7,2.8,0,4l43.3,75c0.7,1.2,2,2,3.5,2s2.7-0.8,3.5-2l43.2-74.9c0.4-0.6,0.6-1.3,0.6-2.1
			C191.2,10.2,189.4,8.4,187.2,8.4L187.2,8.4z M187.2,16.4L187.2,16.4L187.2,16.4L187.2,16.4z"/>
	</g>
</g>
<g>
	<path class="st3" d="M223.9,12.4l43.3,75h-86.6L223.9,12.4 M223.9,8.4c-1.4,0-2.7,0.8-3.5,2l-43.3,75c-0.7,1.2-0.7,2.8,0,4
		c0.7,1.2,2,2,3.5,2h86.6c1.4,0,2.7-0.8,3.5-2c0.7-1.2,0.7-2.8,0-4l-43.3-75C226.6,9.2,225.3,8.4,223.9,8.4L223.9,8.4z"/>
</g>
<g>
	<path class="st4" d="M347.2,12.4L347.2,12.4 M347.2,12.4l-43.3,75l-43.3-75H347.2 M347.2,8.4L347.2,8.4h-86.6c-1.4,0-2.7,0.8-3.5,2
		c-0.7,1.2-0.7,2.8,0,4l43.3,75c0.7,1.2,2,2,3.5,2c1.4,0,2.7-0.8,3.5-2l43.2-74.9c0.4-0.6,0.6-1.3,0.6-2.1
		C351.2,10.2,349.4,8.4,347.2,8.4L347.2,8.4z M347.2,16.4L347.2,16.4L347.2,16.4L347.2,16.4z"/>
</g>
<g>
	<line class="st5" x1="165.4" y1="53.4" x2="122.4" y2="53.4"/>
</g>
<g>
	<path class="st6" d="M407.1,68.1h-44.6l-9.6,21.4h-8.8l36.6-80h8.3l36.6,80h-8.9L407.1,68.1z M404,61.2l-19.2-43l-19.2,43H404z"/>
	<path class="st6" d="M438.1,79.7l3.3-6.5c5.7,5.6,15.9,9.7,26.4,9.7c15,0,21.5-6.3,21.5-14.2c0-22-49.3-8.5-49.3-38.1
		c0-11.8,9.1-22,29.5-22c9,0,18.4,2.6,24.8,7.1l-2.9,6.7c-6.9-4.5-14.9-6.6-22-6.6c-14.6,0-21.2,6.5-21.2,14.5
		c0,22,49.3,8.7,49.3,37.8c0,11.8-9.4,21.8-29.8,21.8C455.8,90.1,444.1,85.9,438.1,79.7z"/>
	<path class="st6" d="M537.4,16.7h-28.1V9.4H574v7.3h-28.1v72.7h-8.5V16.7z"/>
	<path class="st6" d="M649,89.4l-18.3-25.7c-2.1,0.2-4.1,0.3-6.4,0.3h-21.5v25.4h-8.5v-80h30c20.4,0,32.7,10.3,32.7,27.4
		c0,12.6-6.6,21.4-18.3,25.2l19.6,27.4H649z M648.5,36.8c0-12.8-8.5-20.1-24.5-20.1h-21.3v40.1H624
		C640.1,56.8,648.5,49.4,648.5,36.8z"/>
	<path class="st6" d="M676.8,49.4c0-23.3,17.8-40.7,42.1-40.7c24,0,42,17.3,42,40.7c0,23.4-18,40.7-42,40.7
		C694.6,90.1,676.8,72.7,676.8,49.4z M752.3,49.4c0-19.1-14.3-33.2-33.5-33.2c-19.3,0-33.7,14.1-33.7,33.2
		c0,19.1,14.4,33.2,33.7,33.2C738.1,82.6,752.3,68.5,752.3,49.4z"/>
	<path class="st6" d="M786.7,9.4h8.5v72.7h44.8v7.3h-53.3V9.4z"/>
	<path class="st6" d="M852.2,49.4c0-23.3,17.8-40.7,42.1-40.7c24,0,42,17.3,42,40.7c0,23.4-18,40.7-42,40.7
		C870,90.1,852.2,72.7,852.2,49.4z M927.8,49.4c0-19.1-14.3-33.2-33.5-33.2c-19.3,0-33.7,14.1-33.7,33.2c0,19.1,14.4,33.2,33.7,33.2
		C913.5,82.6,927.8,68.5,927.8,49.4z"/>
	<path class="st6" d="M1018.4,49.4h8.1v30.5c-7.5,6.7-18.3,10.2-29.4,10.2c-24.4,0-42.2-17.3-42.2-40.7c0-23.4,17.8-40.7,42.3-40.7
		c12.1,0,22.6,3.9,29.7,11.5l-5.3,5.4c-6.7-6.6-14.8-9.4-24.1-9.4c-19.8,0-34.3,14.1-34.3,33.2c0,19,14.5,33.2,34.2,33.2
		c7.7,0,14.8-1.7,20.9-6.2V49.4z"/>
	<path class="st6" d="M1056.6,55.2V9.4h8.5v45.5c0,19,8.9,27.7,24.5,27.7c15.7,0,24.6-8.7,24.6-27.7V9.4h8.2v45.9
		c0,23-12.3,34.9-32.8,34.9S1056.6,78.2,1056.6,55.2z"/>
	<path class="st6" d="M1154.8,9.4h8.5v80h-8.5V9.4z"/>
	<path class="st6" d="M1246.4,68.1h-44.6l-9.6,21.4h-8.8l36.6-80h8.3l36.6,80h-8.9L1246.4,68.1z M1243.3,61.2l-19.2-43l-19.2,43
		H1243.3z"/>
	<path class="st6" d="M1277.3,79.7l3.3-6.5c5.7,5.6,15.9,9.7,26.4,9.7c15,0,21.5-6.3,21.5-14.2c0-22-49.3-8.5-49.3-38.1
		c0-11.8,9.1-22,29.5-22c9,0,18.4,2.6,24.8,7.1l-2.9,6.7c-6.9-4.5-14.9-6.6-22-6.6c-14.6,0-21.2,6.5-21.2,14.5
		c0,22,49.3,8.7,49.3,37.8c0,11.8-9.4,21.8-29.8,21.8C1295.1,90.1,1283.3,85.9,1277.3,79.7z"/>
</g>
</svg>
