<?xml version="1.0" encoding="utf-8"?>
<!-- Generator: Adobe Illustrator 21.0.2, SVG Export Plug-In . SVG Version: 6.00 Build 0)  -->
<svg version="1.1" id="Livello_1" xmlns="http://www.w3.org/2000/svg" xmlns:xlink="http://www.w3.org/1999/xlink" x="0px" y="0px"
	 viewBox="0 0 205 44.3" style="enable-background:new 0 0 205 44.3;" xml:space="preserve">
<style type="text/css">
	.st0{fill:#ABCB53;}
	.st1{fill:#FECA01;}
	.st2{fill:#5DC3DA;}
	.st3{fill:#ED6A4B;}
	.st4{fill:#FFFFFF;}
	.st5{fill:#7FA12A;}
	.st6{fill:#3D3D3D;}
</style>
<g>
	<g>
		<path class="st0" d="M67,12.6c-0.5,1.3-0.9,2.6-1.4,3.7c-0.5,1.1-1,2.2-1.5,3.2c-0.5,1-1.1,2-1.7,3c-0.6,1-1.3,1.9-2.1,2.9
			c1.2,2.2,2.3,4.5,3.3,6.7c1,2.3,1.9,4.8,2.7,7.4c0,0.3-0.4,0.6-1.1,0.8c-0.8,0.2-1.7,0.4-2.7,0.5c-1,0.1-2.1,0.2-3.2,0.2
			c-1.1,0-2,0.1-2.7,0.1c-0.2,0-0.3-0.1-0.4-0.2c-0.5-1.6-1-3.3-1.7-5c-0.6-1.7-1.3-3.3-2-4.8c0,0.6,0,1.1,0,1.6c0,0.5,0,1,0,1.6
			c0,0.8,0,1.7,0.1,2.5c0,0.9,0.1,1.7,0.1,2.6c0,0.2-0.1,0.4-0.3,0.5c-0.2,0.1-0.5,0.2-1.1,0.2c-0.5,0-1.3,0.1-2.3,0.1
			c-1,0-2.3,0-3.9,0c-0.5,0-1,0-1.4,0s-0.8,0-1.1-0.1c-0.2,0-0.4-0.1-0.5-0.3c-0.1-0.2-0.2-0.6-0.3-1.1c-0.1-0.6-0.2-1.3-0.2-2.3
			c-0.1-1-0.1-2.3-0.2-3.9c-0.1-2.4-0.3-4.6-0.4-6.7s-0.2-3.9-0.3-5.7c-0.1-1.7-0.2-3.3-0.2-4.7c-0.1-1.4-0.1-2.8-0.1-4
			c0-0.2,0.2-0.3,0.6-0.4c0.4-0.1,1-0.2,2-0.2c0.9,0,2.1-0.1,3.6-0.1c1.5,0,3.3,0,5.4,0c0.3,0,0.4,0.1,0.4,0.4c0,0.3,0,0.6,0,0.9
			c0,0.3,0,0.5,0,0.8c0,1.8,0,3.6,0.1,5.4c0.1,1.8,0.2,3.6,0.3,5.3c0.8-1.9,1.7-3.9,2.5-6c0.8-2.1,1.6-4.3,2.3-6.5
			c0-0.2,0.2-0.3,0.4-0.3c0.4,0,0.9,0,1.5,0c0.6,0,1.3,0.1,2,0.1c0.7,0,1.4,0.1,2.2,0.2c0.7,0.1,1.4,0.1,2,0.2
			c0.6,0.1,1.1,0.2,1.5,0.3c0.4,0.1,0.6,0.2,0.6,0.3C67.1,12,67.1,12.3,67,12.6z"/>
		<path class="st1" d="M82.2,11.6c0,0.4,0,0.8,0,1.4c0,0.5,0,1.4-0.1,2.7c0,1.2-0.1,3-0.1,5.1c-0.1,2.2-0.1,5.1-0.2,8.8
			c-0.1,2.3-0.1,4.3-0.1,5.9c0,1.7,0,3,0,3.9c0,0.4-0.1,0.6-0.3,0.6c-0.2,0.1-0.3,0.1-0.5,0.1c-0.6,0-1.1,0-1.7,0
			c-0.6,0-1.1,0-1.7,0c-1,0-2.1,0-3.2-0.1C73,40.1,72,40.1,71.2,40c-0.3,0-0.6-0.1-0.7-0.3c-0.1-0.2-0.2-0.5-0.2-1
			c-0.3-4.1-0.5-8.4-0.7-13c-0.2-4.6-0.3-9.2-0.3-14c0-0.2,0-0.4,0.1-0.5c0.1-0.1,0.3-0.2,0.8-0.3c0.4-0.1,1-0.1,1.8-0.1
			c0.8,0,1.6,0,2.4,0c1.3,0,2.5,0,3.7,0.1c1.2,0,2.3,0.1,3.4,0.3c0.3,0.1,0.4,0.1,0.5,0.1C82.1,11.3,82.2,11.4,82.2,11.6z"/>
		<path class="st2" d="M92.5,10.2c2.5,0,4.8,0.3,6.8,1c2,0.7,3.7,1.7,5.1,2.9c1.4,1.3,2.5,2.8,3.3,4.5c0.8,1.8,1.1,3.7,1.1,5.9
			c0,2.8-0.5,5.2-1.4,7.2c-0.9,2-2.1,3.7-3.7,5c-1.5,1.3-3.3,2.3-5.2,2.9c-2,0.6-4,0.9-6,0.9c-0.5,0-1.1,0-1.8-0.1
			c-0.7-0.1-1.3-0.2-1.9-0.4c-0.6-0.2-1.1-0.4-1.6-0.6c-0.5-0.2-0.7-0.4-0.8-0.7c-0.2-3.1-0.4-6.2-0.5-9.3c-0.1-3.1-0.2-6.3-0.2-9.6
			c0-1.4,0-2.8,0-4.2c0-1.4,0.1-2.8,0.1-4.2c0-0.4,0.1-0.7,0.2-0.8c0.1-0.1,0.3-0.2,0.5-0.3c0.5-0.1,1.2-0.1,2.1-0.2
			C89.6,10.2,90.9,10.2,92.5,10.2z M100.3,29.7c0-1.4-0.4-2.5-1.1-3.3c-0.8-0.9-1.9-1.3-3.4-1.4c-0.1,1.1-0.1,2.2-0.2,3.3
			c0,1.1,0,2.1,0,3.1c0,0.6,0,1.1,0,1.7c0,0.6,0,1.1,0,1.7c0.4,0,0.9-0.1,1.4-0.4c0.5-0.2,1-0.6,1.5-1c0.5-0.4,0.9-1,1.2-1.6
			C100.1,31.2,100.3,30.5,100.3,29.7z"/>
		<path class="st3" d="M128.1,10.1c0.2,0.9,0.4,1.9,0.5,2.9c0.2,1,0.3,2,0.4,3c0.1,1,0.2,1.9,0.3,2.8c0.1,0.9,0.1,1.6,0.1,2.2
			c0,0.2-0.2,0.3-0.5,0.3c-0.1,0-0.2,0-0.4,0c-0.1,0-0.3,0-0.5,0c-1.2,0-2,0.2-2.5,0.7c-0.5,0.5-0.7,1-0.7,1.7c0,0.3,0,0.6,0.1,0.9
			c0.1,0.3,0.3,0.6,0.6,1c0.8,1,1.5,2.1,2,3.1c0.5,1,0.7,2.1,0.7,3.2c0,1.5-0.3,2.7-0.9,3.8c-0.6,1-1.4,1.9-2.5,2.6
			c-1,0.7-2.3,1.2-3.8,1.5c-1.5,0.3-3,0.5-4.7,0.5c-0.5,0-0.9,0-1.1-0.1c-0.2-0.1-0.4-0.2-0.5-0.6c-0.1-0.5-0.3-1.1-0.4-1.7
			c-0.1-0.7-0.1-1.3-0.1-2c0-0.2,0.2-0.3,0.6-0.3c0.4,0,0.8,0,1.3-0.1c1-0.1,1.9-0.4,2.5-0.7c0.6-0.4,0.9-0.9,0.9-1.6
			c0-0.7-0.2-1.3-0.7-1.8c-0.4-0.6-1.2-1.2-2.2-2.1c-1.7-1.4-3-2.8-3.8-4.3c-0.9-1.5-1.3-3.3-1.3-5.2c0-1.4,0.3-2.7,0.8-4
			c0.5-1.2,1.3-2.3,2.4-3.2c1.1-0.9,2.6-1.6,4.4-2.2c1.8-0.5,4-0.8,6.6-0.8c0.7,0,1.2,0,1.6,0.1C127.8,9.8,128,9.9,128.1,10.1z"/>
	</g>
	<g id="W0AWhy_6_">
		<g>
			<path class="st4" d="M2.5,23.5c0.1,4.1,1.3,7.8,3.5,11.3c1,1.6,2.3,3.1,3.7,4.4c1.2,1.2,2.8,1.4,4.4,0.6c1.9-1,3.7-1,5.6,0
				c1.3,0.7,2.7,0.6,3.9-0.2c0.8-0.6,1.6-1.2,2.3-2c3-3.6,4.8-7.9,5.3-12.5c0.4-3.4-0.2-6.6-2.4-9.4c-2.2-2.7-5.6-3.5-8.7-1.8
				c-2.2,1.2-4.2,1.2-6.4,0c-3-1.7-6.4-1-8.6,1.7C3.2,17.9,2.5,20.6,2.5,23.5z M26.1,4.6c-1.9,0.6-3.6,1.7-5,3.2
				c-1.5,1.5-2.8,3.2-4.3,4.8C21.9,13.5,26.2,8.9,26.1,4.6z M15.7,12.6c0.1-0.1,0.3-0.2,0.4-0.4c-0.7-1-1.4-2.2-2.3-3.1
				c-0.4-0.4-1.6-0.5-1.9-0.3c-0.7,0.7,0,1.4,0.6,1.8C13.5,11.4,14.6,12,15.7,12.6z"/>
			<path class="st3" d="M2.5,23.5c0-2.9,0.7-5.6,2.6-7.9c2.2-2.7,5.6-3.4,8.6-1.7c2.2,1.2,4.2,1.2,6.4,0c3.1-1.7,6.5-1,8.7,1.8
				c2.2,2.8,2.8,6,2.4,9.4c-0.5,4.7-2.3,8.9-5.3,12.5c-0.6,0.8-1.5,1.4-2.3,2c-1.2,0.8-2.6,0.9-3.9,0.2c-1.9-1-3.7-1-5.6,0
				c-1.6,0.9-3.2,0.6-4.4-0.6C8.3,37.9,7,36.4,6,34.8C3.8,31.3,2.6,27.6,2.5,23.5z"/>
			<path class="st5" d="M26.1,4.6c0.1,4.3-4.2,8.9-9.2,8c1.5-1.7,2.8-3.3,4.3-4.8C22.5,6.4,24.1,5.2,26.1,4.6z"/>
			<path class="st0" d="M22.8,1.7c1.6,4-0.9,9.8-5.9,10.7c0.8-2.1,1.5-4.1,2.4-6C20.1,4.5,21.2,2.9,22.8,1.7z"/>
			<path class="st1" d="M15.7,12.6c-1.1-0.6-2.1-1.2-3.2-1.9c-0.6-0.4-1.3-1.1-0.6-1.8c0.3-0.3,1.5-0.1,1.9,0.3
				c0.9,0.9,1.5,2,2.3,3.1C15.9,12.4,15.8,12.5,15.7,12.6z"/>
		</g>
	</g>
	<g>
		<path class="st6" d="M142.4,24.4c-0.3,0.2-0.9,0.4-1.9,0.5c-1.1,0.1-1.8,0.3-1.9,0.4c0,0.4-0.1,2.3-0.1,5.6c0,2.6,0,4.4,0.1,5.3
			c0,0.4,0.1,1,0.3,1.8c0.2,0.8,0.3,1.4,0.3,1.9c0,0.3-0.2,0.5-0.5,0.8c-0.3,0.3-0.6,0.4-0.9,0.4c-0.7,0-1.2-0.7-1.6-2.1
			c-0.3-1-0.4-2-0.4-2.9c0-4.8,0-8.3,0-10.6c-0.2-0.2-1-0.2-2.3,0c-1.1,0.1-1.6-0.3-1.6-1.2c0-1.3,1.4-1.9,4.1-1.8l0.7-9.2
			c0-0.1,0-0.3-0.1-0.5c-0.1-0.2-0.1-0.4-0.1-0.5c0-0.2,0.1-0.4,0.4-0.6c0.3-0.2,0.6-0.3,1-0.2c1.2,0.1,1.8,0.7,1.8,1.8
			c0,0.8-0.1,2.1-0.4,3.8c-0.2,1.7-0.4,2.9-0.4,3.8c0,0.4,0,0.8,0.1,1.2l2.8-0.2c0.9,0,1.4,0.4,1.4,1.1
			C143.1,23.7,142.8,24.1,142.4,24.4z"/>
		<path class="st6" d="M159.3,21.4c0,1.1-0.1,2.6-0.3,4.7c-0.2,2.1-0.3,3.9-0.3,5.4c0,0.6,0.1,1.8,0.2,3.5c0.1,1.7,0.2,2.9,0.2,3.7
			c0,1.5-0.2,2.4-0.5,2.7c-0.2,0.1-0.5,0.2-0.9,0.2c-0.7,0-1.3-0.3-1.5-1c-0.1-0.6-0.3-1.3-0.4-1.9c-1,1.5-2.7,2.5-5,2.8
			c-0.9,0.1-1.9-0.3-3.1-1.2c-1.1-0.8-1.7-1.6-2.1-2.5c-0.5-1.1-0.7-3.3-0.7-6.5V20.4c-0.2-1,0.4-1.5,1.7-1.5c0.9,0,1.4,0.5,1.4,1.6
			c0,1.6-0.1,3.7-0.2,6.4c-0.1,3.3-0.2,5.4-0.2,6.4c0,1.2,0.2,2.4,0.8,3.7c0.7,1.5,1.5,2.2,2.6,2.2c1.7,0,3.1-1.2,4-3.5
			c0.7-1.7,1-3.6,1-5.7v-6.7c0-0.3-0.1-0.7-0.3-1.1c-0.2-0.5-0.3-0.9-0.3-1.2c0-0.2,0-0.4,0.1-0.6c0.5-0.4,0.9-0.7,1.4-0.7
			C158.6,19.5,159.3,20.1,159.3,21.4z"/>
		<path class="st6" d="M177.7,8.1c0,0.8-0.1,1.8-0.3,3c-0.2,1.6-0.4,2.6-0.5,3c-0.1,1.1-0.3,4.5-0.5,10.5c-0.2,5.4-0.3,8.4-0.3,9
			c0,3.6,0.3,6.2,1,7.7c-0.2,0.4-0.5,0.6-0.9,0.6c-0.3,0-0.7-0.2-1.1-0.5c-0.4-0.3-0.7-0.7-0.8-1c0-0.7-0.1-1.7-0.3-3.1
			c-2,2.5-3.9,3.8-5.7,3.8c-2.2,0-3.9-0.8-5.1-2.5c-1-1.4-1.5-3.3-1.5-5.6c0-2.8,0.5-5.8,1.6-8.8c1.4-4,3.2-6,5.4-6
			c0.9,0,1.9,0.4,2.9,1.1c0.2,0.1,1,0.8,2.4,2.1c0.3-2.3,0.5-7.4,0.5-15.2c0.2-0.2,0.6-0.4,1-0.4c0.6,0,1.2,0.2,1.7,0.7
			C177.5,6.9,177.7,7.5,177.7,8.1z M173.9,26.9c0-1.5-0.3-2.8-1-4c-0.8-1.4-1.9-2.1-3.3-2.1c-1.7,0-3.1,1.7-4.1,5.2
			c-0.8,2.6-1.2,5.1-1.2,7.4c0,1.5,0.2,2.8,0.7,3.9c0.6,1.4,1.6,2.1,2.9,2.1c2.1,0,3.7-1.6,4.8-4.9
			C173.5,32.1,173.9,29.6,173.9,26.9z"/>
		<path class="st6" d="M184.3,20.6c0,0.6-0.1,1.5-0.4,2.7c-0.3,1.2-0.4,2.1-0.4,2.7v11.2c0,0.7,0.2,1.8,0.5,3.1
			c-0.1,0.3-0.3,0.4-0.6,0.4c-1.7,0-2.5-0.8-2.5-2.4V19.7c0.4-0.2,0.9-0.4,1.3-0.4s0.8,0.1,1.3,0.4
			C184.1,19.9,184.3,20.2,184.3,20.6z M185.3,12.9c0,1.2-0.5,1.7-1.6,1.7c-0.6,0-1.2-0.2-1.8-0.7c-0.5-0.5-0.8-1-0.8-1.6
			c0-1.2,0.6-1.7,1.7-1.7c0.7,0,1.3,0.2,1.8,0.7C185.1,11.7,185.3,12.3,185.3,12.9z"/>
		<path class="st6" d="M202.5,41.9c0,0.5-0.4,0.7-1.1,0.7c-0.8,0-1.3-0.3-1.5-1c0-0.1-0.1-0.8-0.1-2c0-0.3-0.1-0.6-0.2-0.8
			c-1.9,1.4-3.9,2.1-6.2,2.1c-1.5,0-3-0.4-4.4-1.3c-1.6-0.9-2.4-2.1-2.4-3.6c0-1.4,1-2.7,2.9-4.1c1.8-1.2,3.4-1.8,4.9-1.8h5
			c0.2-0.2,0.3-0.6,0.3-1.1c0-2.3-0.2-4-0.6-5.1c-0.6-1.9-1.8-2.9-3.6-2.9c-1.3,0-2.5,0.8-3.6,2.4c-1,1.5-1.5,2.9-1.5,4.3
			c0,0.1,0,0.2,0,0.3c0,0.1,0,0.2,0,0.3c0,0.3-0.1,0.4-0.4,0.4c-0.3,0-0.7-0.2-1.1-0.6c-0.4-0.4-0.6-0.8-0.6-1.1
			c0-0.9,0.3-2.1,0.9-3.6c0.6-1.4,1.2-2.5,1.9-3.3c0.8-0.9,1.9-1.4,3.2-1.4c1.9,0,3.7,0.6,5.3,1.8c1.7,1.3,2.6,2.9,2.6,4.8
			L202.5,41.9z M199.8,33.8c0-1.4-1.1-2-3.2-2c-1.7,0-3.1,0.3-4.4,0.9c-1.6,0.7-2.4,1.9-2.4,3.4c0,0.9,0.4,1.6,1.3,2.1
			c0.7,0.4,1.6,0.7,2.5,0.7c1.5,0,2.8-0.5,4.1-1.4C199.2,36.5,199.8,35.3,199.8,33.8z"/>
	</g>
</g>
</svg>
