<?xml version="1.0" encoding="utf-8"?>
<!-- Generator: Adobe Illustrator 21.0.2, SVG Export Plug-In . SVG Version: 6.00 Build 0)  -->
<svg version="1.1" id="Layer_1" xmlns="http://www.w3.org/2000/svg" xmlns:xlink="http://www.w3.org/1999/xlink" x="0px" y="0px"
	 viewBox="0 0 52 52" style="enable-background:new 0 0 52 52;" xml:space="preserve">
<style type="text/css">
	.st0{fill:#C1BCBC;}
</style>
<path class="st0" d="M32.7,25.5l11.2-11.2c1.5-1.5,1.5-4.1,0-5.6l-0.5-0.5c-1.5-1.5-4.1-1.5-5.6,0L26.5,19.3L15.3,8.2
	c-1.5-1.5-4.1-1.5-5.6,0L9.1,8.7c-1.5,1.5-1.5,4.1,0,5.6l11.2,11.2L9.1,36.7c-1.5,1.5-1.5,4.1,0,5.6l0.5,0.5c1.5,1.5,4.1,1.5,5.6,0
	l11.2-11.2l11.2,11.2c1.5,1.5,4.1,1.5,5.6,0l0.5-0.5c1.5-1.5,1.5-4.1,0-5.6L32.7,25.5z"/>
</svg>
