<?xml version="1.0" encoding="utf-8"?>
<!-- Generator: Adobe Illustrator 21.0.2, SVG Export Plug-In . SVG Version: 6.00 Build 0)  -->
<svg version="1.1" id="Livello_1" xmlns="http://www.w3.org/2000/svg" xmlns:xlink="http://www.w3.org/1999/xlink" x="0px" y="0px"
	 viewBox="0 0 1219.6 170.6" style="enable-background:new 0 0 1219.6 170.6;" xml:space="preserve">
<style type="text/css">
	.st0{fill:#FFFFFF;}
	.st1{fill:#F4F6F8;}
	.st2{fill:#5A8CC9;}
</style>
<g id="UKxNwJ.tif">
	<g>
		<path class="st0" d="M1229,100.2c0-53.3,0-56.6,0.1-109.9c0-3.2-0.4-4.2-4-4.2c-206.1,0.1-412.1,0.1-618.2,0c-3.6,0-4,0.9-4,4.2
			C603,42.9,603,45.6,603,98.2c1.7-0.5,3.2,0.4,4.8,0.7c26.4,6.1,48.7-0.8,66.7-21.1c2.6-2.9,3.9-3.4,7.3-1.2
			c28.7,19.1,67.5,3.9,75.8-29.5c0.5-2.1,0.2-4.4,1.6-6.2c18.7,15.9,43.6,6.3,48.3-16.5c9.8,6.3,20.3,8.4,31.5,5.3
			c11.3-3.1,19.2-10.6,25-21.2c0.9,1.6,1.4,2.4,1.8,3.3c8.5,16.5,27.8,24.1,44,16.3c2-1,2.8-0.3,3.9,1.4c3.2,5.3,8,8.7,14,10.6
			c3.7,1.2,8.7-1.5,10.7,1.1c1.9,2.6,0.7,7.3,1.6,11.1c5.3,21.6,26,34.4,45.8,27.8c3.7-1.2,5.5-0.4,8,2.2
			c21.7,22.5,51.4,25.8,77.6,8.7c2.1-1.4,3.3-1.7,5.4,0.3c16,15.3,35.2,16.1,52.7,2.4c2.1-1.6,3-1.8,4.6,0.5c4,5.8,9.8,8.8,16.8,9.6
			c1.8,0.2,3.1,0.5,4.1,2.2c4.4,7.3,11.1,11.7,19.2,14.3c1,0.2,2,0.3,2.9,0.5c0.3,0,0.6,0.1,0.8,0.1c12,0.6,21.6-3.9,28.1-13.9
			c2.3-3.5,4.4-4.5,8-3.1c1-0.6,2-0.6,3,0c0.6-0.1,1.2-0.2,1.8-0.2C1222.2,102.6,1225.6,101.4,1229,100.2z"/>
		<path class="st1" d="M1174.1,120.5c-8-2.6-14.7-7-19.2-14.3c-1-1.7-2.3-2-4.1-2.2c-6.9-0.8-12.8-3.8-16.8-9.6
			c-1.6-2.3-2.5-2.1-4.6-0.5c-17.5,13.8-36.7,12.9-52.7-2.4c-2.1-2-3.3-1.7-5.4-0.3c-26.2,17.1-55.9,13.8-77.6-8.7
			c-2.5-2.6-4.4-3.4-8-2.2c-19.8,6.6-40.5-6.2-45.8-27.8c-0.9-3.8,0.3-8.5-1.6-11.1c-2-2.6-7,0.1-10.7-1.1c-6-1.9-10.7-5.3-14-10.6
			c-1-1.7-1.8-2.3-3.9-1.4c-16.2,7.7-35.5,0.2-44-16.3c-0.4-0.9-1-1.7-1.8-3.3c-5.7,10.6-13.6,18.1-25,21.2c-11.2,3-21.8,1-31.5-5.3
			c-4.7,22.8-29.7,32.4-48.3,16.5c-1.4,1.9-1.1,4.1-1.6,6.2c-8.3,33.5-47.1,48.7-75.8,29.5c-3.4-2.3-4.8-1.8-7.3,1.2
			c-17.9,20.3-40.3,27.2-66.7,21.1c-1.6-0.4-3.1-1.2-4.8-0.7c0,6.7,0,13.3,0,20c1.3,0,2.1,0.7,3,1.5c17.7,16.1,47.9,15.9,65.4-2.5
			c2.3-2.4,4.7-3.3,7.9-3c8.8,0.7,16.7-1.7,23.7-7.3c2.5-2,3.5-1.8,4.2,1.9c1.7,8.6,9.2,14.6,18.1,15.4c8.4,0.8,18.4-4,20.7-11.7
			c1.9-6.4,4.5-6,9.8-4.7c14.5,3.7,29.1-4.2,34.4-18.2c1.1-2.9,2.7-3.8,5.5-3.4c8.5,1,14.9-2.2,18.8-10c1.1-2.2,1.9-2,3.5-0.2
			c6.2,7,13.7,11.5,23.4,11.2c9.1-0.4,17.7-3.1,25.7-7c5.7-2.7,6.2-3.3,9.6,2.4c5,8.5,16.4,13.7,24.4,9.7c6.2-3.1,11.3-5.4,17.7-0.7
			c1.8,1.3,5.2,0.5,7.8,0.5c1.9,0,3.4,0.1,4.4,2.3c6.8,14.5,31.3,23.5,46.1,16.1c3.1-1.6,4.2-0.5,5.7,2.1c5.7,9.8,14,16.4,25.8,15.3
			c6.5-0.6,10,1.2,12.9,7c4,8.2,11.6,13.4,18.5,19.1c2.3,0.2,4,1.6,5.9,2.5c10.1,4.7,20.7,5.7,31.6,3.8c14.6-2.5,26-10.3,34.9-22.1
			c1.3-1.7,2.1-4,5.4-2.4c15.5,7.6,32.4-0.9,38.2-13.9c1.2-2.7,2.7-2.6,5-1.9C1165.3,121.5,1169.7,122.1,1174.1,120.5z"/>
		<path class="st1" d="M1218.8,103.8c3.4,1.5,6.8,2.9,10.2,4.4c0-2.7,0-5.3,0-8C1225.6,101.4,1222.2,102.6,1218.8,103.8z"/>
		<path class="st1" d="M1214,104c1,0,2,0,3,0C1216,103.5,1215,103.5,1214,104z"/>
		<path class="st2" d="M1177.1,120.9c0.3,0.3,0.5,0.3,0.8,0.1C1177.6,121,1177.4,121,1177.1,120.9z"/>
	</g>
</g>
<g id="UKxNwJ.tif_1_">
	<g>
		<path class="st0" d="M-18.7,100.2c0-53.3,0-56.6-0.1-109.9c0-3.2,0.4-4.2,4-4.2c206.1,0.1,412.1,0.1,618.2,0c3.6,0,4,0.9,4,4.2
			c-0.1,52.6-0.1,55.3-0.1,107.9c-1.7-0.5-3.2,0.4-4.8,0.7c-26.4,6.1-48.7-0.8-66.7-21.1c-2.6-2.9-3.9-3.4-7.3-1.2
			c-28.7,19.1-67.5,3.9-75.8-29.5c-0.5-2.1-0.2-4.4-1.6-6.2c-18.7,15.9-43.6,6.3-48.3-16.5c-9.8,6.3-20.3,8.4-31.5,5.3
			c-11.3-3.1-19.2-10.6-25-21.2c-0.9,1.6-1.4,2.4-1.8,3.3c-8.5,16.5-27.8,24.1-44,16.3c-2-1-2.8-0.3-3.9,1.4c-3.2,5.3-8,8.7-14,10.6
			c-3.7,1.2-8.7-1.5-10.7,1.1c-1.9,2.6-0.7,7.3-1.6,11.1c-5.3,21.6-26,34.4-45.8,27.8c-3.7-1.2-5.5-0.4-8,2.2
			c-21.7,22.5-51.4,25.8-77.6,8.7c-2.1-1.4-3.3-1.7-5.4,0.3c-16,15.3-35.2,16.1-52.7,2.4c-2.1-1.6-3-1.8-4.6,0.5
			c-4,5.8-9.8,8.8-16.8,9.6c-1.8,0.2-3.1,0.5-4.1,2.2c-4.4,7.3-11.1,11.7-19.2,14.3c-1,0.2-2,0.3-2.9,0.5c-0.3,0-0.6,0.1-0.8,0.1
			c-12,0.6-21.6-3.9-28.1-13.9c-2.3-3.5-4.4-4.5-8-3.1c-1-0.6-2-0.6-3,0c-0.6-0.1-1.2-0.2-1.8-0.2
			C-11.9,102.6-15.3,101.4-18.7,100.2z"/>
		<path class="st1" d="M36.2,120.5c8-2.6,14.7-7,19.2-14.3c1-1.7,2.3-2,4.1-2.2c6.9-0.8,12.8-3.8,16.8-9.6c1.6-2.3,2.5-2.1,4.6-0.5
			c17.5,13.8,36.7,12.9,52.7-2.4c2.1-2,3.3-1.7,5.4-0.3c26.2,17.1,55.9,13.8,77.6-8.7c2.5-2.6,4.4-3.4,8-2.2
			c19.8,6.6,40.5-6.2,45.8-27.8c0.9-3.8-0.3-8.5,1.6-11.1c2-2.6,7,0.1,10.7-1.1c6-1.9,10.7-5.3,14-10.6c1-1.7,1.8-2.3,3.9-1.4
			c16.2,7.7,35.5,0.2,44-16.3c0.4-0.9,1-1.7,1.8-3.3c5.7,10.6,13.6,18.1,25,21.2c11.2,3,21.8,1,31.5-5.3
			c4.7,22.8,29.7,32.4,48.3,16.5c1.4,1.9,1.1,4.1,1.6,6.2c8.3,33.5,47.1,48.7,75.8,29.5c3.4-2.3,4.8-1.8,7.3,1.2
			c17.9,20.3,40.3,27.2,66.7,21.1c1.6-0.4,3.1-1.2,4.8-0.7c0,6.7,0,13.3,0,20c-1.3,0-2.1,0.7-3,1.5c-17.7,16.1-47.9,15.9-65.4-2.5
			c-2.3-2.4-4.7-3.3-7.9-3c-8.8,0.7-16.7-1.7-23.7-7.3c-2.5-2-3.5-1.8-4.2,1.9c-1.7,8.6-9.2,14.6-18.1,15.4
			c-8.4,0.8-18.4-4-20.7-11.7c-1.9-6.4-4.5-6-9.8-4.7c-14.5,3.7-29.1-4.2-34.4-18.2c-1.1-2.9-2.7-3.8-5.5-3.4
			c-8.5,1-14.9-2.2-18.8-10c-1.1-2.2-1.9-2-3.5-0.2c-6.2,7-13.7,11.5-23.4,11.2c-9.1-0.4-17.7-3.1-25.7-7c-5.7-2.7-6.2-3.3-9.6,2.4
			c-5,8.5-16.4,13.7-24.4,9.7c-6.2-3.1-11.3-5.4-17.7-0.7c-1.8,1.3-5.2,0.5-7.8,0.5c-1.9,0-3.4,0.1-4.4,2.3
			c-6.8,14.5-31.3,23.5-46.1,16.1c-3.1-1.6-4.2-0.5-5.7,2.1c-5.7,9.8-14,16.4-25.8,15.3c-6.5-0.6-10,1.2-12.9,7
			c-4,8.2-11.6,13.4-18.5,19.1c-2.3,0.2-4,1.6-5.9,2.5c-10.1,4.7-20.7,5.7-31.6,3.8c-14.6-2.5-26-10.3-34.9-22.1
			c-1.3-1.7-2.1-4-5.4-2.4c-15.5,7.6-32.4-0.9-38.2-13.9c-1.2-2.7-2.7-2.6-5-1.9C45,121.5,40.6,122.1,36.2,120.5z"/>
		<path class="st1" d="M-8.5,103.8c-3.4,1.5-6.8,2.9-10.2,4.4c0-2.7,0-5.3,0-8C-15.3,101.4-11.9,102.6-8.5,103.8z"/>
		<path class="st1" d="M-3.7,104c-1,0-2,0-3,0C-5.7,103.5-4.7,103.5-3.7,104z"/>
		<path class="st2" d="M33.3,120.9c-0.3,0.3-0.5,0.3-0.8,0.1C32.7,121,33,121,33.3,120.9z"/>
	</g>
</g>
</svg>
