<?xml version="1.0" encoding="utf-8"?>
<!-- Generator: Adobe Illustrator 21.0.2, SVG Export Plug-In . SVG Version: 6.00 Build 0)  -->
<svg version="1.1" id="Livello_1" xmlns="http://www.w3.org/2000/svg" xmlns:xlink="http://www.w3.org/1999/xlink" x="0px" y="0px"
	 viewBox="0 0 110 110" style="enable-background:new 0 0 110 110;" xml:space="preserve">
<style type="text/css">
	.st0{fill:none;stroke:#232323;stroke-width:4;stroke-linecap:round;stroke-miterlimit:10;}
	.st1{display:none;}
	.st2{display:inline;}
	.st3{fill:none;stroke:#232323;stroke-width:4;stroke-linecap:round;stroke-linejoin:round;stroke-miterlimit:10;}
	.st4{fill:#232323;}
</style>
<g id="mercurio">
	<g>
		<circle class="st0" cx="55" cy="55.6" r="26.8"/>
		<path class="st0" d="M81.8,1.6c0,14.8-12,26.8-26.8,26.8s-26.8-12-26.8-26.8"/>
		<line class="st0" x1="55" y1="108.4" x2="55" y2="82.9"/>
		<line class="st0" x1="41.5" y1="95.6" x2="68.5" y2="95.6"/>
	</g>
</g>
<g id="venus" class="st1">
	<g class="st2">
		<circle class="st0" cx="55" cy="56.9" r="26.8"/>
		<line class="st0" x1="55" y1="109.6" x2="55" y2="84.1"/>
		<line class="st0" x1="41.5" y1="96.9" x2="68.5" y2="96.9"/>
	</g>
</g>
<g id="tierra" class="st1">
	<g class="st2">
		<circle class="st0" cx="55" cy="56.9" r="26.8"/>
		<line class="st0" x1="55" y1="83.1" x2="55" y2="30.6"/>
		<line class="st0" x1="29.5" y1="56.9" x2="80.5" y2="56.9"/>
	</g>
</g>
<g id="marte" class="st1">
	<g class="st2">
		<circle class="st0" cx="52.9" cy="55.9" r="26.8"/>
		<g>
			<line class="st0" x1="83.6" y1="23.4" x2="71.1" y2="35.9"/>
			<polyline class="st3" points="70.7,23.2 83.9,23.2 83.9,36.3 			"/>
		</g>
	</g>
</g>
<g id="jupiter" class="st1">
	<g class="st2">
		<g>
			<line class="st0" x1="76.1" y1="90.2" x2="76.1" y2="19.8"/>
		</g>
		<g>
			<line class="st0" x1="32.9" y1="76" x2="85.4" y2="76"/>
		</g>
		<path class="st0" d="M37.4,55.8"/>
		<path class="st0" d="M36,75.9c17-0.7,30.3-15.1,29.7-32.2C65.1,30,53.6,19.4,39.9,20"/>
		<path class="st0" d="M39.6,49.9c-8.3,0-15-6.7-15-15s6.7-15,15-15"/>
	</g>
</g>
<g id="saturno" class="st1">
	<g class="st2">
		<g>
			<line class="st0" x1="44" y1="67.7" x2="44" y2="13"/>
			<line class="st0" x1="33" y1="26.3" x2="55" y2="26.3"/>
		</g>
		<path class="st0" d="M52.7,81c14-0.6,24.8-12.6,24.2-26.8c-0.4-11.4-9.9-20.3-21-19.8"/>
		<path class="st0" d="M43.4,46.8c0-6.9,5.5-12.5,12.2-12.5"/>
		<g>
			<g>
				<path class="st0" d="M53.6,81"/>
				<path class="st0" d="M51,97.5"/>
				<g>
					<path class="st0" d="M50.7,97.6c-4.2,1.2-8.6-1.2-9.8-5.4s1.2-8.6,5.4-9.8"/>
					<path class="st0" d="M46.4,82.4c1.2-0.4,4.1-1,7.2-1.5"/>
				</g>
			</g>
		</g>
	</g>
</g>
<g id="neptuno" class="st1">
	<g class="st2">
		<g>
			<line class="st0" x1="55" y1="21" x2="55" y2="109.7"/>
			<line class="st0" x1="66" y1="96.3" x2="44" y2="96.3"/>
		</g>
		<path class="st0" d="M28.2,39.5v14.4c0,14.8,12,26.8,26.8,26.8s26.8-12,26.8-26.8V39.5"/>
		<g>
			<line class="st0" x1="28.2" y1="27" x2="28.2" y2="43.8"/>
			<polyline class="st3" points="18.9,35.9 28.2,26.6 37.5,35.9 			"/>
		</g>
		<g>
			<line class="st0" x1="55" y1="13.5" x2="55" y2="30.2"/>
			<polyline class="st3" points="45.7,22.4 55,13.1 64.3,22.4 			"/>
		</g>
		<g>
			<line class="st0" x1="81.8" y1="27" x2="81.8" y2="43.8"/>
			<polyline class="st3" points="72.5,35.9 81.8,26.6 91.1,35.9 			"/>
		</g>
	</g>
</g>
<g id="Urano" class="st1">
	<g class="st2">
		<g>
			<circle class="st0" cx="55" cy="81.9" r="8"/>
			<line class="st0" x1="55" y1="73.6" x2="55" y2="21.1"/>
		</g>
		<g>
			<polyline class="st0" points="76.5,21.1 76.5,73.6 87.5,73.6 			"/>
			<g>
				<line class="st0" x1="76.5" y1="73.6" x2="87.5" y2="73.6"/>
				<line class="st0" x1="76.5" y1="20.6" x2="87.5" y2="20.6"/>
			</g>
		</g>
		<g>
			<polyline class="st0" points="33.5,21.1 33.5,73.6 22.5,73.6 			"/>
			<g>
				<line class="st0" x1="33.5" y1="73.6" x2="22.5" y2="73.6"/>
				<line class="st0" x1="33.5" y1="20.6" x2="22.5" y2="20.6"/>
			</g>
		</g>
	</g>
</g>
<g id="luna" class="st1">
	<g class="st2">
		<g>
			<path class="st4" d="M44.2,23.4c17.4,0,31.5,14.1,31.5,31.5S61.6,86.4,44.2,86.4c-1.3,0-2.6-0.1-3.9-0.2
				c9.5-7.4,15.4-18.8,15.4-31.3c0-12.4-5.8-23.9-15.4-31.3C41.7,23.5,43,23.4,44.2,23.4 M44.2,19.4c-5,0-9.7,1-14,2.9
				c12.6,5.4,21.5,18,21.5,32.6s-8.9,27.2-21.5,32.6c4.3,1.8,9,2.9,14,2.9c19.6,0,35.5-15.9,35.5-35.5
				C79.8,35.3,63.9,19.4,44.2,19.4L44.2,19.4z"/>
		</g>
	</g>
</g>
<g id="sol" class="st1">
	<g class="st2">
		<circle class="st0" cx="55" cy="55.9" r="26.8"/>
		<circle class="st4" cx="55" cy="55.9" r="5.5"/>
	</g>
</g>
</svg>
