<?xml version="1.0" encoding="utf-8"?>
<!-- Generator: Adobe Illustrator 21.0.2, SVG Export Plug-In . SVG Version: 6.00 Build 0)  -->
<svg version="1.1" id="Livello_1" xmlns="http://www.w3.org/2000/svg" xmlns:xlink="http://www.w3.org/1999/xlink" x="0px" y="0px"
	 viewBox="0 0 100 100" style="enable-background:new 0 0 100 100;" xml:space="preserve">
<style type="text/css">
	.st0{fill:#5DC2D9;}
	.st1{fill:#64798A;}
	.st2{fill:#3B5468;}
	.st3{fill:#FFFFFF;}
</style>
<g>
	<path class="st0" d="M77.5,81.2v-1.1c0-1.1,0.9-2,2-2H88c1.1,0,2,0.9,2,2v1.1c0,1.1-0.9,2-2,2h-8.5C78.4,83.2,77.5,82.3,77.5,81.2z
		"/>
	<path class="st0" d="M46.3,58.3v-3.9c0-3.3,2.7-6.1,6.1-6.1h23.8c3.3,0,6.1,2.7,6.1,6.1v3.9c0,3.3-2.7,6.1-6.1,6.1H52.4
		C49,64.4,46.3,61.7,46.3,58.3z"/>
	<path class="st1" d="M73.2,83.3c2.3-0.8,3.9-3,3.9-5.5V40.4c0-3.2-2.6-5.8-5.8-5.8h-24c-2.7,0-3,1.9-3.6,4.4
		c0.6-0.2-0.8-0.3-0.2-0.3h24c3.2,0,5.8,2.6,5.8,5.8"/>
	<path class="st0" d="M40.1,37v-0.4c0-1.3,1.1-2.4,2.4-2.4h12.4c1.3,0,2.4,1.1,2.4,2.4V37c0,1.3-1.1,2.4-2.4,2.4H42.5
		C41.2,39.4,40.1,38.3,40.1,37z"/>
	<path class="st0" d="M40.6,51.2l-3,0.5c-3.2,0.6-6.2-1.5-6.8-4.7l-4.3-23.9c-0.6-3.2,1.5-6.2,4.7-6.8l3-0.5
		c3.2-0.6,6.2,1.5,6.8,4.7l4.3,23.9C45.8,47.6,43.7,50.6,40.6,51.2z"/>
	<path class="st1" d="M34.9,59.6L34.9,59.6c-1.7,0.3-3.3-0.9-3.5-2.5l-7.1-42.6c-0.3-1.7,0.9-3.3,2.5-3.5l0,0
		c1.7-0.3,3.3,0.9,3.5,2.5l7.1,42.6C37.7,57.7,36.6,59.3,34.9,59.6z"/>
	<g>
		<circle class="st2" cx="36.5" cy="65.9" r="23.1"/>
		<g>
			<circle class="st3" cx="36.5" cy="65.9" r="18.8"/>
		</g>
		<circle class="st1" cx="36.5" cy="65.9" r="16.4"/>
	</g>
	<circle class="st1" cx="75.2" cy="81.4" r="7.7"/>
	<path class="st1" d="M10,15.2v-2.3c0-1.1,0.9-1.9,1.9-1.9l15.6,0c1.1,0,1.9,0.9,1.9,1.9v2.3c0,1.1-0.9,1.9-1.9,1.9l-15.6,0
		C10.9,17.2,10,16.3,10,15.2z"/>
</g>
</svg>
