<?xml version="1.0" encoding="utf-8"?>
<!-- Generator: Adobe Illustrator 21.0.2, SVG Export Plug-In . SVG Version: 6.00 Build 0)  -->
<svg version="1.1" id="Livello_1" xmlns="http://www.w3.org/2000/svg" xmlns:xlink="http://www.w3.org/1999/xlink" x="0px" y="0px"
	 viewBox="0 0 100 100" style="enable-background:new 0 0 100 100;" xml:space="preserve">
<style type="text/css">
	.st0{fill:#EC6A4B;}
</style>
<g id="ytHfaZ_1_">
	<g>
		<path class="st0" d="M25.7,77.2c0.1,0.1,0.2,0.3,0.2,0.3c0.2-0.2,0.1-0.3,0-0.4c-0.9-3.6-1.5-7.2-1.4-10.9
			c0.3-1.8,0.4-3.6,0.8-5.5c0.8-4.9,2.9-9.3,3.5-14.3c0.3-2.7,0.4-5.5-0.2-8.5c-5.6,3.7-10.3,7.9-13.9,13.5
			c-1.6,1.4-0.9,3.1-0.6,4.6C15.4,64.5,19.2,71.6,25.7,77.2z M83.4,36.4c0.1,0.1,0.3,0.1,0.3,0.2c0-0.1-0.1-0.3-0.1-0.3
			c-0.3-0.6-0.3-1.3-0.7-1.8C77.4,23,68.2,16.1,55.6,13.9c-1.5-0.3-2.7,0-3.8,0.8c-5,3.4-6.4,8.4-6.2,14c0,0.9,0.6,0.9,1.2,0.8
			c2-0.2,4-0.5,6-0.5C63.6,29,73.9,30.8,83.4,36.4z M26.6,68.6c0,3.7,1,7.2,2.5,10.6c0.3,0.9,1,1.4,1.8,1.9c8,4.9,16.7,6.3,25.9,4.8
			c3.5-0.6,6.9-1.7,10.3-3.6c-4.1-1.6-7.4-3.9-10.8-6.2c-12-9.8-18.6-22.5-20.9-37.6c-0.6-4-0.8-4-4.2-2c-0.6,0.3-0.9,0.8-0.8,1.5
			c1,5.3,0.3,10.4-1.3,15.6C27.7,58.5,26.2,63.4,26.6,68.6z M82.8,57.6c0.3,0.3,0.6,0.5,0.9,0.8c1.5,1.2,1.5,1.2,2-0.7
			c0.6-2.7,0.9-5.5,0.7-8.2c0-8.6-0.7-10.3-8.5-13.7c-9.8-4.3-20.2-5.6-30.9-4.4c-0.9,0.1-1.2,0.3-0.9,1.4c0.8,3,2,5.8,3.8,8.3
			c4.4,5.7,10.3,9.2,17.3,11C72.6,53.3,78.1,54.6,82.8,57.6z M59.4,75.7c2.7,2.1,5.7,3.7,8.9,5c0.9,0.3,1.5,0.1,2.2-0.4
			c5.8-4.1,10.3-9.3,13-15.9c1.3-3,1.2-3-1.7-4.7c-1.6-1.5-3.6-2.2-5.6-3c-2.9-1.1-5.9-1.8-8.8-2.6C56,51,47.2,45.1,44.2,32.9
			C44,32,43.5,32,42.8,32.2c-1.5,0.4-2.9,0.9-4.4,1.3c-1.1,0.3-1.5,0.9-1.4,2c0.5,5.7,1.9,11.3,4,16.6
			C44.9,61.7,50.9,69.7,59.4,75.7z M37.1,15.8c-6.4,2.5-11.5,6.2-15.7,11.5c2.9,0.7,5,2.1,6.7,4.4c0.8,1,0.8,3,2,3.1s2.5-1,3.7-1.5
			c0.1-0.1,0.3-0.1,0.3-0.1c0.6-0.3,0.9-0.6,0.9-1.3C34.7,26.4,35.4,21.2,37.1,15.8z M13.7,48.8c3.8-4.9,8.3-9,13.4-12.2
			c0.6-0.3,0.8-0.8,0.5-1.5c-0.9-2.8-3.9-5.5-6.8-5.8c-0.6-0.1-1.1-0.1-1.5,0.5C15.8,35.6,13.7,41.9,13.7,48.8z M49.6,13.7
			c-3.4-0.4-6.3,0.3-9.3,1c-0.5,0.2-0.8,0.5-0.9,0.9c-1.8,4.9-2.5,9.9-2.6,15.1c0,0.9,0.3,1,1.1,0.8c1.5-0.4,3.1-0.9,4.6-1.3
			c1-0.3,1.5-0.6,1.5-1.7c-0.2-2,0.1-3.8,0.5-5.8C45.1,19.3,46.8,16.4,49.6,13.7z"/>
		<path class="st0" d="M59.4,75.7c-8.6-6-14.5-14-18.4-23.7c-2.1-5.4-3.4-10.9-4-16.6c-0.1-1.2,0.3-1.7,1.4-2
			c1.5-0.3,2.9-0.9,4.4-1.3c0.7-0.2,1.2-0.3,1.5,0.7C47.3,45,56.1,50.9,67.6,54c3,0.8,6,1.5,8.8,2.6c2,0.8,3.9,1.6,5.6,3
			c-0.6,0.3-0.9,0.7-1.3,1.2c-2.7,3.9-6,7-9.9,9.7C67.3,72.8,63.3,74.4,59.4,75.7z"/>
		<path class="st0" d="M82.8,57.6C78,54.5,72.6,53.3,67.2,52c-7-1.8-12.8-5.2-17.3-11c-1.9-2.5-3.1-5.3-3.8-8.3
			c-0.3-0.9,0-1.2,0.9-1.4c10.7-1.3,21,0.1,30.9,4.4c7.8,3.4,8.5,5.1,8.5,13.7C85.2,52.1,84.3,55,82.8,57.6z"/>
		<path class="st0" d="M26.6,68.6c-0.3-5.2,1.1-10.2,2.7-15.1c1.5-5.1,2.3-10.3,1.3-15.6c-0.2-0.8,0.2-1.2,0.8-1.5
			c3.4-2.1,3.6-2.1,4.2,2c2.3,15.1,8.9,27.9,20.9,37.6c-0.2,0.1-0.3,0.3-0.6,0.3c-6,0.9-11.8,0.3-17.5-1.5
			C33.9,73.4,30.1,71.3,26.6,68.6z"/>
		<path class="st0" d="M83.4,36.4c-9.5-5.6-19.9-7.5-30.7-7.4c-2,0-4,0.3-6,0.5c-0.6,0.1-1.2,0.2-1.2-0.8c-0.1-5.6,1.3-10.6,6.2-14
			c1.2-0.8,2.3-1,3.8-0.8C68.2,16.1,77.4,23,83,34.3c0.3,0.6,0.4,1.2,0.7,1.8C83.6,36.2,83.5,36.3,83.4,36.4z"/>
		<path class="st0" d="M26.6,68.6c3.6,2.7,7.4,4.8,11.6,6.2c5.7,1.9,11.5,2.5,17.5,1.5c0.2,0,0.4-0.3,0.6-0.3
			c3.3,2.4,6.7,4.6,10.8,6.2c-3.4,1.9-6.8,3-10.3,3.6c-9.2,1.5-17.9,0.1-25.9-4.8c-0.8-0.5-1.4-1-1.8-1.9
			C27.5,75.8,26.6,72.3,26.6,68.6z"/>
		<path class="st0" d="M14.7,51.5c3.5-5.6,8.2-9.8,13.9-13.5c0.7,2.9,0.5,5.7,0.2,8.5c-0.5,4.9-2.7,9.4-3.5,14.3
			c-0.3,1.8-0.5,3.6-0.8,5.5c-1.9-0.3-2.6-2-3.5-3.2C18.2,59.5,15.8,55.9,14.7,51.5z"/>
		<path class="st0" d="M59.4,75.7c3.9-1.3,7.9-2.8,11.3-5.1c3.9-2.6,7.3-5.7,9.9-9.7c0.3-0.5,0.7-0.9,1.3-1.2
			c2.9,1.7,2.9,1.7,1.7,4.7c-2.8,6.5-7.2,11.7-13.1,15.8c-0.7,0.5-1.4,0.8-2.2,0.4C65.1,79.4,62.1,77.9,59.4,75.7z"/>
		<path class="st0" d="M37.1,15.8c-1.7,5.4-2.4,10.6-2.2,15.9c0,0.7-0.3,1.1-0.9,1.3c-0.1,0-0.3,0.1-0.3,0.1
			c-1.2,0.6-2.5,1.7-3.7,1.5c-1.2-0.1-1.3-2.1-2-3.1c-1.6-2.2-3.8-3.7-6.7-4.4C25.5,22,30.7,18.3,37.1,15.8z"/>
		<path class="st0" d="M13.7,48.8c0-6.9,2.1-13.2,5.7-19c0.4-0.6,0.9-0.6,1.5-0.5c2.8,0.3,5.9,3.1,6.8,5.8c0.2,0.7,0.1,1.1-0.5,1.5
			C22,39.8,17.6,43.9,13.7,48.8z"/>
		<path class="st0" d="M49.6,13.7c-2.7,2.7-4.4,5.6-5.2,9c-0.4,1.9-0.7,3.8-0.5,5.8c0.1,1.1-0.3,1.5-1.5,1.7
			c-1.5,0.3-3.1,0.9-4.6,1.3c-0.8,0.3-1.1,0.1-1.1-0.8c0.1-5.1,0.8-10.2,2.6-15.1c0.2-0.4,0.4-0.9,0.9-0.9
			C43.2,14.1,46.2,13.4,49.6,13.7z"/>
		<path class="st0" d="M14.7,51.5c1.1,4.4,3.5,8,6.3,11.5c1,1.2,1.6,3,3.5,3.2c-0.1,3.7,0.4,7.3,1.4,10.9c-0.1,0.1-0.1,0.1-0.2,0.2
			c-6.5-5.6-10.3-12.7-11.6-21C13.7,54.5,13,52.8,14.7,51.5z"/>
		<path class="st0" d="M82.8,57.6c1.5-2.6,2.3-5.5,3.6-8.2c0.2,2.8-0.1,5.6-0.7,8.2c-0.4,1.9-0.4,1.9-2,0.7
			C83.4,58.1,83.1,57.9,82.8,57.6z"/>
		<path class="st0" d="M83.7,36.2c0,0.1,0.1,0.3,0.1,0.3c-0.1-0.1-0.3-0.1-0.3-0.2C83.5,36.3,83.6,36.2,83.7,36.2z"/>
		<path class="st0" d="M25.9,77c0.2,0.1,0.3,0.3,0,0.4c0,0-0.2-0.2-0.2-0.3C25.7,77.1,25.8,77,25.9,77z"/>
	</g>
</g>
</svg>
