<?xml version="1.0" encoding="utf-8"?>
<!-- Generator: Adobe Illustrator 21.0.2, SVG Export Plug-In . SVG Version: 6.00 Build 0)  -->
<svg version="1.1" id="Livello_1" xmlns="http://www.w3.org/2000/svg" xmlns:xlink="http://www.w3.org/1999/xlink" x="0px" y="0px"
	 viewBox="0 0 100 100" style="enable-background:new 0 0 100 100;" xml:space="preserve">
<style type="text/css">
	.st0{fill:#FDC901;}
	.st1{fill:#5DC2D9;}
	.st2{fill:#AACA53;}
	.st3{fill:#EC6A4B;}
</style>
<g>
	<polyline class="st0" points="87.6,51.8 95.5,68.5 52.6,68.5 	"/>
	<g>
		<polyline class="st1" points="49.1,68.5 84.1,51.8 19.5,51.8 		"/>
	</g>
	<g>
		<polygon class="st2" points="8.5,68.5 45.9,68.5 16.3,51.8 		"/>
	</g>
	<g id="L8f187.tif">
		<g>
			<g>
				<path class="st3" d="M65.3,32c0,4-0.9,7.1-2.1,10.2c-1.7,4.3-4.2,8.2-7,11.9c-1.5,2-3.1,3.9-5,5.6c-0.8,0.7-0.6,0.7-1.4,0
					c-2.4-2.3-4.5-4.9-6.4-7.6c-2.5-3.6-4.7-7.3-6.1-11.4c-1-2.8-1.6-5.7-1.5-8.7c0.2-5.8,4-11.2,9.5-13.2
					c8.3-3.1,17.3,1.5,19.6,10.1C65.2,30.1,65.3,31.3,65.3,32z M50.5,23.8c-4.8,0-8.7,3.9-8.7,8.7c0,4.8,3.9,8.6,8.7,8.6
					c4.8,0,8.6-3.9,8.6-8.7C59.2,27.7,55.3,23.8,50.5,23.8z"/>
			</g>
		</g>
	</g>
</g>
</svg>
