<?xml version="1.0" encoding="utf-8"?>
<!-- Generator: Adobe Illustrator 21.0.2, SVG Export Plug-In . SVG Version: 6.00 Build 0)  -->
<svg version="1.1" id="Livello_1" xmlns="http://www.w3.org/2000/svg" xmlns:xlink="http://www.w3.org/1999/xlink" x="0px" y="0px"
	 viewBox="0 0 100 100" style="enable-background:new 0 0 100 100;" xml:space="preserve">
<style type="text/css">
	.st0{fill:#222828;}
	.st1{fill:#777777;}
	.st2{fill:#64798A;}
	.st3{fill:#FEBA01;}
	.st4{fill:#5DC2D9;}
	.st5{fill:#012C46;}
	.st6{fill:#64EDE3;}
</style>
<g id="oSwIc1.tif">
	<g>
		<g>
			<path class="st0" d="M85.1,53.5L85.1,53.5c0-1.4,0-2.8,0-4.2c0-0.3,0-0.5,0-0.8c0-6.8,0-13.5,0-20.3c0-1.1-0.1-2.1-0.6-3.1
				c-1.1-1.7-2.7-2.4-4.7-2.4c-19.8,0-39.5,0-59.3,0c-0.4,0-0.8,0-1.2,0c-2.4,0.1-4.5,2.1-4.6,4.4c0.1,0.1,0.1,0.3,0.1,0.4
				c0-0.2,0-0.3-0.1-0.4c0,0.3,0,0.5,0,0.8c0,6.4,0,12.7,0,19.1c0,7.7,0,15.5,0,23.2c0.1,0,0.1,0,0.2,0l0,0c0.4,0.1,0.8,0.1,1.2,0
				c0.2-0.2,0.4-0.1,0.7-0.1c22.1,0,44.2,0,66.2,0c0.2,0,0.5-0.1,0.7,0.1c0.4,0,0.9,0,1.3,0c0-3,0-6,0-8.9c0,3,0,6,0,8.9
				c0.1,0,0.1,0,0.2,0c0-0.4,0-0.9,0-1.3c0-2.8,0-5.6,0-8.4v0C85.2,58.3,85.2,55.9,85.1,53.5z M14.9,28c0,3.5,0,7.1,0,10.6
				C14.9,35.1,14.9,31.6,14.9,28c0-0.1,0-0.2,0-0.3C15,27.9,14.9,28,14.9,28z M81.8,44c0,7.4,0,14.8,0,22.1c0,1,0,1-1,0.9
				c-0.2,0-0.3,0-0.5,0c-6.3,0-12.6,0-18.9,0c-0.2,0-0.4,0-0.6,0c0,0,0,0,0,0c-0.2-0.1-0.4-0.1-0.6,0c0.1,0,0.1,0,0.2,0
				c-0.1,0-0.1,0-0.2,0c-0.2,0-0.5,0-0.7,0c-13.4,0-26.8,0-40.2,0c-0.2,0-0.5,0-0.7,0l0,0c-0.1-0.1-0.3-0.1-0.4-0.1
				c-0.1-0.2-0.1-0.4-0.1-0.6c0-12.8,0-25.7,0-38.5c0-1.2,0.5-1.7,1.7-1.7c18,0,36,0,54,0c0.2,0,0.4,0,0.6,0c2,0,3.9,0,5.9,0
				c1,0,1.6,0.6,1.6,1.7C81.9,33.2,81.8,38.6,81.8,44z M85,53c0-0.5,0-1,0-1.6C85,51.9,85,52.4,85,53C85,53,85,53,85,53
				C85,53,85,53,85,53z M85,53.2C85,53.2,85,53.2,85,53.2C85,53.2,85,53.2,85,53.2z M85,61.1C85,61.1,85,61.1,85,61.1
				C85,61.1,85,61.1,85,61.1z M85,61.3C85,61.3,85,61.4,85,61.3C85,61.4,85,61.3,85,61.3z M85,60.9C85,60.9,85,60.8,85,60.9
				C85,60.8,85,60.9,85,60.9z"/>
			<path class="st1" d="M14.2,23.9c1.1-1.6,3-2.8,5.2-2.8c0.3,0,0.6,0,0.9,0c0.1,0,0.2,0,0.3,0c4.5,0,8.9,0,13.4,0
				c15,0,30.6,0,45.9,0c0,0,0,0,0,0c2.7,0,4.8,1.1,6.2,3.1l0.1,0.1l0,0.1c0.7,1.4,0.8,2.9,0.8,3.9c0,4.8,0,9.7,0,14.5
				c0,1.9,0,3.9,0,5.8c0,0.2,0,0.4,0,0.6c0,0.1,0,0.1,0,0.2l0,4.1c0.1,2.3,0.1,4.8,0,7.2l0,1.2c0,2.4,0,4.8,0,7.2c0,0.3,0,0.6,0,0.9
				l0,2.1l-0.2,0v0l-1.7,0l-1.8,0v0l-0.3,0L82.8,72c-22.2,0-44.3,0-65.8,0l0,0l-0.7,0.1c-0.5,0.1-1,0.1-1.5,0l-1.8,0l0-9.2
				c0-5.3,0-10.5,0-15.8c0-2.9,0-5.8,0-8.7c0-3.5,0-7,0-10.4c0-0.2,0-0.5,0-0.6c0-0.1,0-0.1,0-0.2c0-0.1,0-0.2,0-0.3 M82.7,68.5
				c0.1,0,0.2,0,0.3,0l0,0c0.1,0,0.1,0,0.2,0c0,0,0-0.1,0-0.1c0,0,0,0,0,0c0,0,0,0,0,0c0-0.1,0-0.2,0-0.4c-0.1,0.1-0.2,0.3-0.4,0.4
				C82.8,68.4,82.8,68.4,82.7,68.5z M16.5,68.5c0.1,0,0.2,0,0.3,0l0,0c0.1,0,0.2,0,0.3,0l-0.3-0.3c-0.1-0.2-0.2-0.3-0.3-0.5
				L16.5,68.5z M60.3,68.5c0.2,0,0.5,0,0.7,0l-0.6-1.2L60.2,68L60.3,68.5z M60.6,65.3l0,0.3L60.6,65.3
				C60.6,65.3,60.6,65.3,60.6,65.3z M19.9,65.3c13.2,0,26.4,0,39.6,0c0.1,0,0.2,0,0.3,0c0.4-0.1,0.9-0.1,1.3,0c0.1,0,0.2,0,0.2,0
				c6.2,0,12.5,0,18.7,0l0-24.5c0-4.3,0-8.6,0-12.8c-1.3,0-2.6,0-3.9,0c-0.6,0-1.2,0-1.7,0l-0.1,0c-0.1,0-0.1,0-0.2,0
				c-0.1,0-0.2,0-0.3,0c-18,0-36,0-53.9,0C19.9,40.4,19.9,52.8,19.9,65.3z M86.2,61.4l0.5,0c0,0,0,0,0-0.1l-0.2,0l-0.5,0L86.2,61.4z
				 M85.8,61.2l0.3,0l-0.4-0.1l-0.1,0L85.8,61.2z M85.6,61.1l0.1,0L85.4,61L85.6,61.1z M86.8,61L86,61.1L86.8,61
				C86.8,61.1,86.8,61,86.8,61z M86.5,53.1l-0.7,0.1l1,0c0,0,0,0,0,0L86.5,53.1z M13.2,27.6l1.1,0.1l0.1-0.1L13.2,27.6
				C13.2,27.6,13.2,27.6,13.2,27.6z"/>
		</g>
		<path class="st2" d="M14.9,70.4c0.4,0.1,0.8,0.1,1.2,0c0.2,0,0.4,0,0.7,0c22.1,0,44.2,0,66.3,0c0.2,0,0.4,0,0.7,0
			c0.4,0,0.9,0,1.3,0c0.1,0,0.1,0,0.2,0c1.4,0,2.8,0,4.2,0c0.5,0,0.6,0.1,0.6,0.6c0,1-0.1,2,0,3c0.1,1.9-0.8,3.1-2.4,3.9
			c-1.4,0.8-2.9,1-4.5,1c-21.1,0-42.3,0-63.4,0c-1.7,0-3.4,0.1-5-0.2c-0.8-0.2-1.6-0.5-2.4-0.8c0,0,0,0,0,0c0,0-0.1-0.1-0.1-0.1
			c-0.4-0.3-0.7-0.6-1.1-0.9c-0.6-0.6-1-1.4-1-2.3c0-1.2,0-2.3,0-3.5c0-0.5,0.2-0.7,0.7-0.6c1.4,0,2.7,0,4.1,0
			C14.8,70.4,14.9,70.4,14.9,70.4z M49.9,75.6c1.6,0,3.1,0,4.7,0c0.8,0,1.1-0.3,1.1-0.9c0-0.6-0.4-1-1.1-1c-3.1,0-6.3,0-9.4,0
			c-0.8,0-1.1,0.3-1.1,0.9c0,0.6,0.3,0.9,1.1,0.9C46.8,75.6,48.4,75.6,49.9,75.6z"/>
		<path class="st3" d="M12.1,77.8c0,0,0.1,0.1,0.1,0.1C12.2,77.9,12.1,77.9,12.1,77.8z"/>
		<path class="st4" d="M80.3,26.2c-2,0-3.9,0-5.9,0c-0.2,0-0.4,0-0.6,0c-18,0-36,0-54,0c-1.2,0-1.7,0.5-1.7,1.7
			c0,12.8,0,25.7,0,38.5c0,0.2-0.1,0.4,0.1,0.6c0.1,0,0.3,0,0.4,0.1c0.2,0,0.5,0,0.7,0c13.4,0,26.8,0,40.2,0c0.2,0,0.5,0,0.7,0
			c0.2-0.1,0.4-0.1,0.6,0c0.2,0,0.4,0,0.6,0c6.3,0,12.6,0,18.9,0c0.2,0,0.3,0,0.5,0c1,0.1,1,0.1,1-0.9c0-7.4,0-14.8,0-22.1
			c0-5.4,0-10.8,0-16.2C81.8,26.8,81.3,26.2,80.3,26.2z"/>
		<path class="st5" d="M83.7,70.4c-0.2,0-0.4,0-0.7,0c-22.1,0-44.2,0-66.3,0c-0.2,0-0.4,0-0.7,0c0.2-0.2,0.4-0.1,0.7-0.1
			c22.1,0,44.2,0,66.2,0C83.3,70.2,83.5,70.1,83.7,70.4z"/>
		<path class="st0" d="M85.1,53.5L85.1,53.5c0-1.4,0-2.8,0-4.2c0-0.3,0-0.5,0-0.8c0-6.8,0-13.5,0-20.3c0-1.1-0.1-2.1-0.6-3.1
			c-1.1-1.7-2.7-2.4-4.7-2.4c-19.8,0-39.5,0-59.3,0c-0.4,0-0.8,0-1.2,0c-2.4,0.1-4.5,2.1-4.6,4.4c0.1,0.1,0.1,0.3,0.1,0.4
			c0-0.2,0-0.3-0.1-0.4c0,0.3,0,0.5,0,0.8c0,6.4,0,12.7,0,19.1c0,7.7,0,15.5,0,23.2c0.1,0,0.1,0,0.2,0l0,0c0.4,0.1,0.8,0.1,1.2,0
			c0.2-0.2,0.4-0.1,0.7-0.1c22.1,0,44.2,0,66.2,0c0.2,0,0.5-0.1,0.7,0.1c0.4,0,0.9,0,1.3,0c0-3,0-6,0-8.9c0,3,0,6,0,8.9
			c0.1,0,0.1,0,0.2,0c0-0.4,0-0.9,0-1.3c0-2.8,0-5.6,0-8.4v0C85.2,58.3,85.2,55.9,85.1,53.5z M14.9,28c0,3.5,0,7.1,0,10.6
			C14.9,35.1,14.9,31.6,14.9,28c0-0.1,0-0.2,0-0.3C15,27.9,14.9,28,14.9,28z M81.8,44c0,7.4,0,14.8,0,22.1c0,1,0,1-1,0.9
			c-0.2,0-0.3,0-0.5,0c-6.3,0-12.6,0-18.9,0c-0.2,0-0.4,0-0.6,0c0,0,0,0,0,0c-0.2-0.1-0.4-0.1-0.6,0c0.1,0,0.1,0,0.2,0
			c-0.1,0-0.1,0-0.2,0c-0.2,0-0.5,0-0.7,0c-13.4,0-26.8,0-40.2,0c-0.2,0-0.5,0-0.7,0l0,0c-0.1-0.1-0.3-0.1-0.4-0.1
			c-0.1-0.2-0.1-0.4-0.1-0.6c0-12.8,0-25.7,0-38.5c0-1.2,0.5-1.7,1.7-1.7c18,0,36,0,54,0c0.2,0,0.4,0,0.6,0c2,0,3.9,0,5.9,0
			c1,0,1.6,0.6,1.6,1.7C81.9,33.2,81.8,38.6,81.8,44z M85,53c0-0.5,0-1,0-1.6C85,51.9,85,52.4,85,53C85,53,85,53,85,53
			C85,53,85,53,85,53z M85,53.2C85,53.2,85,53.2,85,53.2C85,53.2,85,53.2,85,53.2z M85,61.1C85,61.1,85,61.1,85,61.1
			C85,61.1,85,61.1,85,61.1z M85,61.3C85,61.3,85,61.4,85,61.3C85,61.4,85,61.3,85,61.3z M85,60.9C85,60.9,85,60.8,85,60.9
			C85,60.8,85,60.9,85,60.9z"/>
		<path class="st6" d="M49.9,75.6c-1.5,0-3.1,0-4.6,0c-0.8,0-1.1-0.3-1.1-0.9c0-0.6,0.3-0.9,1.1-0.9c3.1,0,6.3,0,9.4,0
			c0.7,0,1.1,0.4,1.1,1c0,0.6-0.3,0.9-1.1,0.9C53.1,75.6,51.5,75.6,49.9,75.6z"/>
	</g>
</g>
</svg>
