<?xml version="1.0" encoding="utf-8"?>
<!-- Generator: Adobe Illustrator 21.0.2, SVG Export Plug-In . SVG Version: 6.00 Build 0)  -->
<svg version="1.1" id="Livello_1" xmlns="http://www.w3.org/2000/svg" xmlns:xlink="http://www.w3.org/1999/xlink" x="0px" y="0px"
	 viewBox="0 0 100 100" style="enable-background:new 0 0 100 100;" xml:space="preserve">
<style type="text/css">
	.st0{fill:#AACA53;}
	.st1{fill:none;}
	.st2{fill:#8A9E3F;}
	.st3{fill:#FFFFFF;}
	.st4{fill:#FDC901;}
	.st5{fill:#CC9C05;}
</style>
<g>
	<g>
		<path class="st0" d="M37.3,56.9c-7.6,3.9-11.2,12.1-12.9,8.8c-1.7-3.4,2-11.4,9.6-15.3L23.5,30c-8.1,4.2-16.3,5.5-21.9,4
			C1.6,39.7,3.1,45.7,6,51.5c8.2,15.9,25,23.7,37.4,17.3L37.3,56.9L37.3,56.9z M7.4,42.3c-0.9,0.5-2.1,0.1-2.5-0.8
			c-0.5-0.9-0.1-2.1,0.8-2.5c0.9-0.5,2.1-0.1,2.5,0.8C8.7,40.7,8.4,41.8,7.4,42.3z M19.8,48.5c-4.2,2.2-9.4,0.6-10.6-1.7
			c-1.2-2.3,4-0.6,8.3-2.8c4.2-2.2,5.9-7.4,7.1-5.1C25.8,41.2,24.1,46.3,19.8,48.5z"/>
		<g>
			<path class="st1" d="M38.3,33.2C34,35.4,28.8,33.7,30,36c1.2,2.3,6.4,3.9,10.6,1.7c4.2-2.2,5.9-7.3,4.7-9.6
				C44.1,25.8,42.5,31.1,38.3,33.2z"/>
			<path class="st2" d="M51.1,28.3c-3-5.7-7-10.4-11.6-13.8c-2,5.4-7.9,11.3-16,15.5L34,50.4c7.6-3.9,16.3-2.3,18,1.1
				c1.7,3.4-7,1.5-14.6,5.4l6.1,11.8C55.9,62.3,59.3,44.2,51.1,28.3z M41,20.8c0.9-0.5,2.1-0.1,2.5,0.8c0.5,0.9,0.1,2.1-0.8,2.5
				c-0.9,0.5-2.1,0.1-2.5-0.8C39.7,22.4,40.1,21.2,41,20.8z M40.6,37.8c-4.2,2.2-9.4,0.6-10.6-1.7c-1.2-2.3,4-0.6,8.3-2.8
				c4.2-2.2,5.9-7.4,7.1-5.1C46.5,30.5,44.8,35.6,40.6,37.8z"/>
		</g>
	</g>
	<g>
		<path class="st3" d="M49.3,39.5c0.5-1.7,1.3-3.6,2.8-4.6c1.4-0.9,3.3-1,4.7-0.2c1.6,0.9,2.4,2.6,3.1,4.3c1.2,2.9,2,6,2.4,9.1
			c0.2,1.7,0.3,3.5-0.3,5.1c-1.1,2.6-4.1,4.1-7,3.9c-3-0.2-7-2.3-7.4-5.5C47.3,47.7,48.1,43.3,49.3,39.5z"/>
	</g>
	<g>
		<g>
			<path class="st4" d="M52,64.1c1-3.8,6.5,3.7,15.1,5.9L74.5,41c-9.1-2.3-16.5-7-19.8-12c-3.9,4.4-6.9,10.1-8.5,16.6
				c-4.6,18,3.1,35.6,17.1,39.2l1.9-7.5C56.6,75.1,51,67.9,52,64.1z M52.2,37.1c0.3-1,1.3-1.7,2.4-1.4c1,0.3,1.7,1.3,1.4,2.4
				c-0.3,1-1.3,1.7-2.4,1.4C52.5,39.3,51.9,38.2,52.2,37.1z M50.5,49.7c0.7-2.6,5.5-5.4,10.3-4.2s7.7,6,7,8.6
				c-0.7,2.6-3.6-2.3-8.3-3.5S49.8,52.3,50.5,49.7z"/>
			<path class="st5" d="M97.6,40c-5.3,2.8-14,3.3-23.1,1l-7.4,28.9c8.6,2.2,17-1.7,16.1,2.1c-1,3.8-9.3,7.5-18,5.3l-1.9,7.5
				c14.1,3.6,29.2-8.1,33.8-26.2C98.8,52.2,98.8,45.8,97.6,40z M83,56.6c-4.8-1.2-9.7,1.7-9-0.9c0.7-2.6,5.5-5.4,10.3-4.2
				c4.8,1.2,7.7,6,7,8.6C90.7,62.8,87.8,57.9,83,56.6z M93.5,49.7c-1-0.3-1.7-1.3-1.4-2.4c0.3-1,1.3-1.7,2.4-1.4
				c1,0.3,1.7,1.3,1.4,2.4C95.6,49.4,94.6,50,93.5,49.7z"/>
		</g>
	</g>
</g>
</svg>
