<?xml version="1.0" encoding="utf-8"?>
<!-- Generator: Adobe Illustrator 21.0.2, SVG Export Plug-In . SVG Version: 6.00 Build 0)  -->
<svg version="1.1" id="Livello_1" xmlns="http://www.w3.org/2000/svg" xmlns:xlink="http://www.w3.org/1999/xlink" x="0px" y="0px"
	 viewBox="0 0 100 100" style="enable-background:new 0 0 100 100;" xml:space="preserve">
<style type="text/css">
	.st0{fill:#E8E8E8;}
	.st1{fill:#EC6A4B;}
	.st2{fill:#C15640;}
	.st3{fill:#4BAFBF;}
</style>
<g>
	<polygon class="st0" points="66.5,89 33.5,89 25.5,18.9 74.5,18.9 	"/>
	<polygon class="st1" points="73.3,16.2 26.7,16.2 27.8,11 72.2,11 	"/>
	<g>
		<polygon class="st1" points="33.5,89 66.5,89 67.7,78.3 32.3,78.3 		"/>
	</g>
	<rect x="24.3" y="14.4" class="st2" width="51.4" height="7.7"/>
	<polygon class="st1" points="78,22.1 22,22.1 24.3,17.8 75.7,17.8 	"/>
	<g>
		<polygon class="st2" points="33.5,89 66.5,89 66.9,85.2 33.1,85.2 		"/>
	</g>
	<path class="st3" d="M60.1,63.8H39.9c-1.1,0-1.9-0.9-1.9-1.9V37.7c0-1.1,0.9-1.9,1.9-1.9h20.3c1.1,0,1.9,0.9,1.9,1.9v24.1
		C62.1,62.9,61.2,63.8,60.1,63.8z"/>
</g>
</svg>
