<?xml version="1.0" encoding="utf-8"?>
<!-- Generator: Adobe Illustrator 21.0.2, SVG Export Plug-In . SVG Version: 6.00 Build 0)  -->
<svg version="1.1" id="Livello_1" xmlns="http://www.w3.org/2000/svg" xmlns:xlink="http://www.w3.org/1999/xlink" x="0px" y="0px"
	 viewBox="0 0 100 100" style="enable-background:new 0 0 100 100;" xml:space="preserve">
<style type="text/css">
	.st0{fill:#AACA53;}
	.st1{fill:#FFFFFF;}
</style>
<g>
	<ellipse transform="matrix(0.7071 -0.7071 0.7071 0.7071 -20.711 49.9995)" class="st0" cx="50" cy="50" rx="40" ry="40"/>
	<ellipse transform="matrix(0.7071 -0.7071 0.7071 0.7071 -20.711 49.9995)" class="st1" cx="50" cy="50" rx="33.9" ry="33.9"/>
	<g>
		<path d="M68.9,68.9L68.9,68.9c-0.5,0.5-1.4,0.5-2,0L48.2,50.2c-0.5-0.5-0.5-1.4,0-2l0,0c0.5-0.5,1.4-0.5,2,0L68.9,67
			C69.5,67.5,69.5,68.4,68.9,68.9z"/>
	</g>
	<g>
		<path d="M49.5,49.8H49c-0.6,0-1.1-0.5-1.1-1.1V31.6c0-0.6,0.5-1.1,1.1-1.1h0.5c0.6,0,1.1,0.5,1.1,1.1v17.1
			C50.6,49.3,50.1,49.8,49.5,49.8z"/>
	</g>
</g>
</svg>
