<?xml version="1.0" encoding="utf-8"?>
<!-- Generator: Adobe Illustrator 21.0.2, SVG Export Plug-In . SVG Version: 6.00 Build 0)  -->
<svg version="1.1" xmlns="http://www.w3.org/2000/svg" xmlns:xlink="http://www.w3.org/1999/xlink" x="0px" y="0px"
	 viewBox="0 0 100 100" style="enable-background:new 0 0 100 100;" xml:space="preserve">
<style type="text/css">
	.st0{fill:#FEB81B;}
	.st1{fill:#AACA53;}
	.st2{fill:#EC6A4B;}
	.st3{fill:#FDC901;}
	.st4{fill:#5DC2D9;}
	.st5{fill:#FFFFFF;}
</style>
<g id="Livello_4">
</g>
<g id="Livello_3">
</g>
<g id="Livello_2">
</g>
<g id="Livello_1">
	<g>
		<g>
			<g>
				<path class="st0" d="M40,11.9c0.6,1.2,1.4,2.3,1.9,3.5c0.3,0.7,0.7,1.4,0.5,2.2c-0.2,1.4-1.6,2.4-2.9,2.1
					c-1.5-0.3-2.4-1.7-1.9-3.1c0.5-1.5,1.3-2.9,2.1-4.3c0.1-0.1,0.2-0.3,0.2-0.5C40,11.9,40,11.9,40,11.9z"/>
				<path class="st1" d="M41.7,27.6c-1.2,0-2.3,0-3.5,0c0-2.1,0-4.2,0-6.4c0-0.5,0.1-0.6,0.6-0.6c0.8,0,1.6,0,2.4,0
					c0.4,0,0.5,0.1,0.5,0.5C41.7,23.3,41.7,25.4,41.7,27.6z"/>
			</g>
			<g>
				<path class="st0" d="M50,11.9c0.6,1.2,1.4,2.3,1.9,3.5c0.3,0.7,0.7,1.4,0.5,2.2c-0.2,1.4-1.6,2.4-2.9,2.1
					c-1.5-0.3-2.4-1.7-1.9-3.1c0.5-1.5,1.3-2.9,2.1-4.3c0.1-0.1,0.2-0.3,0.2-0.5C50,11.9,50,11.9,50,11.9z"/>
				<path class="st1" d="M51.7,27.6c-1.2,0-2.3,0-3.5,0c0-2.1,0-4.2,0-6.4c0-0.5,0.1-0.6,0.6-0.6c0.8,0,1.6,0,2.4,0
					c0.4,0,0.5,0.1,0.5,0.5C51.7,23.3,51.7,25.4,51.7,27.6z"/>
			</g>
			<g>
				<path class="st0" d="M60,11.9c0.6,1.2,1.4,2.3,1.9,3.5c0.3,0.7,0.7,1.4,0.5,2.2c-0.2,1.4-1.6,2.4-2.9,2.1
					c-1.5-0.3-2.4-1.7-1.9-3.1c0.5-1.5,1.3-2.9,2.1-4.3c0.1-0.1,0.2-0.3,0.2-0.5C60,11.9,60,11.9,60,11.9z"/>
				<path class="st1" d="M61.7,27.6c-1.2,0-2.3,0-3.5,0c0-2.1,0-4.2,0-6.4c0-0.5,0.1-0.6,0.6-0.6c0.8,0,1.6,0,2.4,0
					c0.4,0,0.5,0.1,0.5,0.5C61.7,23.3,61.7,25.4,61.7,27.6z"/>
			</g>
		</g>
		<g>
			<g>
				<path class="st2" d="M64.7,44.9H35.3c-1.4,0-2.6-1.2-2.6-2.6V31c0-1.4,1.2-2.6,2.6-2.6h29.4c1.4,0,2.6,1.2,2.6,2.6v11.3
					C67.3,43.7,66.1,44.9,64.7,44.9z"/>
				<g>
					<g>
						<path class="st3" d="M37.9,29.1c-0.4,0-0.7,0.2-1,0.4h2C38.6,29.3,38.3,29.1,37.9,29.1z"/>
						<path class="st3" d="M41.4,29.1c-0.4,0-0.7,0.2-1,0.4h2C42.1,29.3,41.7,29.1,41.4,29.1z"/>
						<path class="st3" d="M44.8,29.1c-0.4,0-0.7,0.2-1,0.4h2C45.5,29.3,45.2,29.1,44.8,29.1z"/>
						<path class="st3" d="M48.3,29.1c-0.4,0-0.7,0.2-1,0.4h2C49,29.3,48.7,29.1,48.3,29.1z"/>
						<rect x="50" y="29.1" class="st3" width="0" height="0.4"/>
						<path class="st3" d="M51.7,29.1c-0.4,0-0.7,0.2-1,0.4h2C52.4,29.3,52.1,29.1,51.7,29.1z"/>
						<path class="st3" d="M55.2,29.1c-0.4,0-0.7,0.2-1,0.4h2C55.9,29.3,55.6,29.1,55.2,29.1z"/>
						<path class="st3" d="M58.6,29.1c-0.4,0-0.7,0.2-1,0.4h2C59.4,29.3,59,29.1,58.6,29.1z"/>
						<path class="st3" d="M62.1,29.1c-0.4,0-0.7,0.2-1,0.4h2C62.8,29.3,62.5,29.1,62.1,29.1z"/>
					</g>
					<path class="st3" d="M32.7,30.9v-1.1c0-1.2,0.7-2.1,1.7-2.1h31.2c0.9,0,1.7,0.9,1.7,2.1v1.1"/>
					<g>
						<path class="st3" d="M34.4,32.4c1,0,1.7-1,1.7-2.2h-3.3c-0.1,0.2-0.1,0.3-0.1,0.5C32.9,31.7,33.6,32.4,34.4,32.4z"/>
						<path class="st3" d="M37.9,32.4c1,0,1.7-1,1.7-2.2h-3.5C36.1,31.4,36.9,32.4,37.9,32.4z"/>
						<path class="st3" d="M41.3,32.4c1,0,1.7-1,1.7-2.2h-3.5C39.6,31.4,40.4,32.4,41.3,32.4z"/>
						<path class="st3" d="M44.8,32.4c1,0,1.7-1,1.7-2.2h-3.5C43.1,31.4,43.9,32.4,44.8,32.4z"/>
						<path class="st3" d="M50,30.2h-3.5c0,1.2,0.8,2.2,1.7,2.2C49.2,32.4,50,31.5,50,30.2C50,30.3,50,30.2,50,30.2L50,30.2z"/>
						<path class="st3" d="M50,30.2C50,30.2,50,30.3,50,30.2c0,1.3,0.8,2.2,1.7,2.2c1,0,1.7-1,1.7-2.2H50L50,30.2z"/>
						<path class="st3" d="M55.2,32.4c1,0,1.7-1,1.7-2.2h-3.5C53.5,31.4,54.2,32.4,55.2,32.4z"/>
						<path class="st3" d="M58.7,32.4c1,0,1.7-1,1.7-2.2h-3.5C56.9,31.4,57.7,32.4,58.7,32.4z"/>
						<path class="st3" d="M62.1,32.4c1,0,1.7-1,1.7-2.2h-3.5C60.4,31.4,61.2,32.4,62.1,32.4z"/>
						<path class="st3" d="M63.9,30.2c0,1.2,0.8,2.2,1.7,2.2c0.8,0,1.5-0.7,1.7-1.7c0-0.2-0.1-0.3-0.1-0.5H63.9z"/>
					</g>
				</g>
				<rect x="32.7" y="34.7" class="st4" width="34.6" height="3.5"/>
				<rect x="32.7" y="35.8" class="st5" width="34.6" height="1.2"/>
			</g>
			<path class="st2" d="M72.1,68.2H27.9c-2.1,0-3.9-1.7-3.9-3.9v-17c0-2.1,1.7-3.9,3.9-3.9h44.1c2.1,0,3.9,1.7,3.9,3.9v17
				C75.9,66.5,74.2,68.2,72.1,68.2z"/>
			<g>
				<g>
					<path class="st3" d="M31.9,44.6c-0.6,0-1.1,0.2-1.5,0.6h3C32.9,44.8,32.4,44.6,31.9,44.6z"/>
					<path class="st3" d="M37,44.6c-0.6,0-1.1,0.2-1.5,0.6h3C38.1,44.8,37.6,44.6,37,44.6z"/>
					<path class="st3" d="M42.2,44.6c-0.6,0-1.1,0.2-1.5,0.6h3C43.3,44.8,42.8,44.6,42.2,44.6z"/>
					<path class="st3" d="M47.4,44.6c-0.6,0-1.1,0.2-1.5,0.6h3C48.5,44.8,48,44.6,47.4,44.6z"/>
					<rect x="50" y="44.6" class="st3" width="0" height="0.6"/>
					<path class="st3" d="M52.6,44.6c-0.6,0-1.1,0.2-1.5,0.6h3C53.7,44.8,53.1,44.6,52.6,44.6z"/>
					<path class="st3" d="M57.8,44.6c-0.6,0-1.1,0.2-1.5,0.6h3C58.9,44.8,58.3,44.6,57.8,44.6z"/>
					<path class="st3" d="M63,44.6c-0.6,0-1.1,0.2-1.5,0.6h3C64,44.8,63.5,44.6,63,44.6z"/>
					<path class="st3" d="M68.1,44.6c-0.6,0-1.1,0.2-1.5,0.6h3C69.2,44.8,68.7,44.6,68.1,44.6z"/>
				</g>
				<path class="st3" d="M24.1,47.2v-1.7c0-1.7,1.1-3.2,2.5-3.2h46.9c1.4,0,2.5,1.4,2.5,3.2v1.7"/>
				<g>
					<path class="st3" d="M26.6,49.5c1.4,0,2.6-1.5,2.6-3.3h-4.9c-0.1,0.2-0.1,0.5-0.2,0.7C24.3,48.4,25.4,49.5,26.6,49.5z"/>
					<path class="st3" d="M31.8,49.5c1.4,0,2.6-1.5,2.6-3.3h-5.2C29.2,48,30.4,49.5,31.8,49.5z"/>
					<path class="st3" d="M37,49.5c1.4,0,2.6-1.5,2.6-3.3h-5.2C34.4,48,35.6,49.5,37,49.5z"/>
					<path class="st3" d="M42.2,49.5c1.4,0,2.6-1.5,2.6-3.3h-5.2C39.6,48,40.8,49.5,42.2,49.5z"/>
					<path class="st3" d="M50,46.2h-5.2c0,1.8,1.2,3.3,2.6,3.3c1.4,0,2.5-1.4,2.6-3.2C50,46.3,50,46.2,50,46.2L50,46.2z"/>
					<path class="st3" d="M50,46.2c0,0,0,0.1,0,0.1c0.1,1.8,1.2,3.2,2.6,3.2c1.4,0,2.6-1.5,2.6-3.3H50L50,46.2z"/>
					<path class="st3" d="M57.8,49.5c1.4,0,2.6-1.5,2.6-3.3h-5.2C55.2,48,56.4,49.5,57.8,49.5z"/>
					<path class="st3" d="M63,49.5c1.4,0,2.6-1.5,2.6-3.3h-5.2C60.4,48,61.6,49.5,63,49.5z"/>
					<path class="st3" d="M68.2,49.5c1.4,0,2.6-1.5,2.6-3.3h-5.2C65.6,48,66.8,49.5,68.2,49.5z"/>
					<path class="st3" d="M70.8,46.2c0,1.8,1.2,3.3,2.6,3.3c1.2,0,2.3-1.1,2.5-2.6c0-0.3-0.1-0.5-0.2-0.7H70.8z"/>
				</g>
			</g>
			<rect x="24.1" y="52.9" class="st4" width="51.9" height="5.2"/>
			<rect x="24.1" y="54.6" class="st5" width="51.9" height="1.7"/>
			<path class="st2" d="M78.5,88.1h-57c-2.4,0-4.4-2-4.4-4.4v-16c0-2.4,2-4.4,4.4-4.4h57c2.4,0,4.4,2,4.4,4.4v16
				C82.8,86.1,80.9,88.1,78.5,88.1z"/>
			<g>
				<g>
					<path class="st3" d="M27,64.5c-0.7,0-1.4,0.2-1.9,0.6h3.8C28.4,64.7,27.7,64.5,27,64.5z"/>
					<path class="st3" d="M33.6,64.5c-0.7,0-1.4,0.2-1.9,0.6h3.8C35,64.7,34.3,64.5,33.6,64.5z"/>
					<path class="st3" d="M40.2,64.5c-0.7,0-1.4,0.2-1.9,0.6h3.8C41.5,64.7,40.9,64.5,40.2,64.5z"/>
					<path class="st3" d="M46.7,64.5c-0.7,0-1.4,0.2-1.9,0.6h3.8C48.1,64.7,47.4,64.5,46.7,64.5z"/>
					<rect x="50" y="64.5" class="st3" width="0" height="0.6"/>
					<path class="st3" d="M53.3,64.5c-0.7,0-1.4,0.2-1.9,0.6h3.8C54.6,64.7,54,64.5,53.3,64.5z"/>
					<path class="st3" d="M59.8,64.5c-0.7,0-1.4,0.2-1.9,0.6h3.8C61.2,64.7,60.6,64.5,59.8,64.5z"/>
					<path class="st3" d="M66.4,64.5c-0.7,0-1.4,0.2-1.9,0.6h3.8C67.8,64.7,67.1,64.5,66.4,64.5z"/>
					<path class="st3" d="M73,64.5c-0.7,0-1.4,0.2-1.9,0.6h3.8C74.4,64.7,73.7,64.5,73,64.5z"/>
				</g>
				<path class="st3" d="M17.2,67.1v-1.7c0-1.7,1.4-3.2,3.2-3.2h59.4c1.7,0,3.2,1.4,3.2,3.2v1.7"/>
				<g>
					<path class="st3" d="M20.4,69.4c1.8,0,3.3-1.5,3.3-3.3h-6.3c-0.1,0.2-0.2,0.5-0.2,0.7C17.5,68.3,18.8,69.4,20.4,69.4z"/>
					<path class="st3" d="M26.9,69.4c1.8,0,3.3-1.5,3.3-3.3h-6.6C23.7,67.9,25.1,69.4,26.9,69.4z"/>
					<path class="st3" d="M33.5,69.4c1.8,0,3.3-1.5,3.3-3.3h-6.6C30.3,67.9,31.7,69.4,33.5,69.4z"/>
					<path class="st3" d="M40.1,69.4c1.8,0,3.3-1.5,3.3-3.3h-6.6C36.8,67.9,38.3,69.4,40.1,69.4z"/>
					<path class="st3" d="M50,66.1h-6.6c0,1.8,1.5,3.3,3.3,3.3c1.8,0,3.2-1.4,3.3-3.2C50,66.2,50,66.1,50,66.1L50,66.1z"/>
					<path class="st3" d="M50,66.1c0,0,0,0.1,0,0.1c0.1,1.8,1.5,3.2,3.3,3.2c1.8,0,3.3-1.5,3.3-3.3H50L50,66.1z"/>
					<path class="st3" d="M59.9,69.4c1.8,0,3.3-1.5,3.3-3.3h-6.6C56.6,67.9,58.1,69.4,59.9,69.4z"/>
					<path class="st3" d="M66.5,69.4c1.8,0,3.3-1.5,3.3-3.3h-6.6C63.2,67.9,64.6,69.4,66.5,69.4z"/>
					<path class="st3" d="M73.1,69.4c1.8,0,3.3-1.5,3.3-3.3h-6.6C69.8,67.9,71.2,69.4,73.1,69.4z"/>
					<path class="st3" d="M76.3,66.1c0,1.8,1.5,3.3,3.3,3.3c1.6,0,2.9-1.1,3.2-2.6c-0.1-0.3-0.1-0.5-0.2-0.7H76.3z"/>
				</g>
			</g>
			<rect x="17.2" y="73.2" class="st4" width="65.7" height="7.8"/>
			<rect x="17.2" y="75.8" class="st5" width="65.7" height="2.6"/>
		</g>
	</g>
</g>
</svg>
