<?xml version="1.0" encoding="utf-8"?>
<!-- Generator: Adobe Illustrator 21.0.2, SVG Export Plug-In . SVG Version: 6.00 Build 0)  -->
<svg version="1.1" id="Livello_1" xmlns="http://www.w3.org/2000/svg" xmlns:xlink="http://www.w3.org/1999/xlink" x="0px" y="0px"
	 viewBox="0 0 100 100" style="enable-background:new 0 0 100 100;" xml:space="preserve">
<style type="text/css">
	.st0{fill:#FF5419;}
	.st1{fill:#AACA53;}
	.st2{fill:#8A9E3F;}
	.st3{fill:#FDC901;}
</style>
<g>
	<polygon class="st0" points="40.6,82.7 37.3,82.7 36,82.7 32.6,82.7 32.6,95 36.6,92.4 40.6,95 	"/>
	<path class="st1" d="M74.7,86.3H25.3c-5.2,0-9.5-4.3-9.5-9.5V14.5c0-5.2,4.3-9.5,9.5-9.5h49.4c5.2,0,9.5,4.3,9.5,9.5v62.3
		C84.2,82,79.9,86.3,74.7,86.3z"/>
	<path class="st2" d="M25,86.3h-6.7c-1.3,0-2.5-1.1-2.5-2.5V7.5c0-1.3,1.1-2.5,2.5-2.5h7"/>
	<g>
		<rect x="50" y="24.9" class="st3" width="6.7" height="46.2"/>
		
			<rect x="50" y="25.1" transform="matrix(-1.836970e-16 1 -1 -1.836970e-16 92.6729 -14.036)" class="st3" width="6.7" height="28.4"/>
	</g>
	<polygon class="st0" points="78.6,5 73.4,5 71.4,5 66.2,5 66.2,24.1 72.4,17.5 78.6,24.1 	"/>
</g>
</svg>
