<?xml version="1.0" encoding="utf-8"?>
<!-- Generator: Adobe Illustrator 21.0.2, SVG Export Plug-In . SVG Version: 6.00 Build 0)  -->
<svg version="1.1" id="Livello_1" xmlns="http://www.w3.org/2000/svg" xmlns:xlink="http://www.w3.org/1999/xlink" x="0px" y="0px"
	 viewBox="0 0 100 100" style="enable-background:new 0 0 100 100;" xml:space="preserve">
<style type="text/css">
	.st0{fill:#FDDBBC;}
	.st1{fill:#EACAB0;}
	.st2{fill:#EC6A4B;}
	.st3{fill:#C15640;}
	.st4{fill:#5DC2D9;}
	.st5{fill:#4BAFBF;}
	.st6{fill:#AACA53;}
	.st7{fill:#8A9E3F;}
	.st8{fill:#FDC901;}
</style>
<g>
	<g>
		<g>
			<path class="st0" d="M65.5,48.5c0,10.8,6.6,19.6,14.8,19.6S95,59.4,95,48.5c0-0.2-6.6-6.6-14.8-6.6
				C65.7,41.9,65.5,37.7,65.5,48.5z"/>
			<g>
				<path class="st0" d="M86.2,48.2L86.2,48.2c1.6,0,2.9-1.3,2.9-2.9V32.8c0-1.6-1.3-2.9-2.9-2.9l0,0c-1.6,0-2.9,1.3-2.9,2.9v12.5
					C83.3,46.8,84.6,48.2,86.2,48.2z"/>
				<path class="st1" d="M86.2,29.8L86.2,29.8c-1.6,0-2.9,1.3-2.9,2.9v12.5c0,1.6,1.3,2.9,2.9,2.9l0,0"/>
			</g>
			<g>
				<path class="st0" d="M92.1,51.8L92.1,51.8c1.6,0,2.9-1.3,2.9-2.9v-6.2c0-1.6-1.3-2.9-2.9-2.9h0c-1.6,0-2.9,1.3-2.9,2.9v6.2
					C89.1,50.5,90.5,51.8,92.1,51.8z"/>
				<path class="st1" d="M92.1,39.7L92.1,39.7c-1.6,0-2.9,0.9-2.9,1.9v8.2c0,1.1,1.3,1.9,2.9,1.9h0"/>
			</g>
			<path class="st0" d="M80.3,45.4L80.3,45.4c1.6,0,2.9-1.3,2.9-2.9V30c0-1.6-1.3-2.9-2.9-2.9h0c-1.6,0-2.9,1.3-2.9,2.9v12.5
				C77.4,44.1,78.7,45.4,80.3,45.4z"/>
			<path class="st1" d="M80.3,27.1L80.3,27.1c-1.6,0-2.9,1.3-2.9,2.9v12.5c0,1.6,1.3,2.9,2.9,2.9h0"/>
			<g>
				<path class="st0" d="M74.5,45.4L74.5,45.4c1.6,0,2.9-1.3,2.9-2.9V31.9c0-1.6-1.3-2.9-2.9-2.9h0c-1.6,0-2.9,1.3-2.9,2.9v10.6
					C71.5,44.1,72.9,45.4,74.5,45.4z"/>
				<path class="st1" d="M74.5,28.9L74.5,28.9c-1.6,0-2.9,1.2-2.9,2.6v11.2c0,1.5,1.3,2.6,2.9,2.6h0"/>
			</g>
			<g>
				<path class="st0" d="M68.6,45.4L68.6,45.4c1.6,0,2.9-1.3,2.9-2.9v-7c0-1.6-1.3-2.9-2.9-2.9h0c-1.6,0-2.9,1.3-2.9,2.9v7
					C65.7,44.1,67,45.4,68.6,45.4z"/>
				<path class="st1" d="M68.6,32.6L68.6,32.6c-1.6,0-2.9,0.9-2.9,2.1v8.7c0,1.1,1.3,2.1,2.9,2.1h0"/>
			</g>
		</g>
		<path class="st0" d="M80.2,78.8L80.2,78.8c5,0,9.2-4.1,9.2-9.2v-0.7c0-5-4.1-9.2-9.2-9.2h0c-5,0-9.2,4.1-9.2,9.2v0.7
			C71.1,74.7,75.2,78.8,80.2,78.8z"/>
	</g>
	<g>
		<g>
			<path class="st0" d="M35.6,24.7c0,10.8,6.6,19.6,14.8,19.6s14.8-8.8,14.8-19.6c0-0.2-6.6-6.6-14.8-6.6
				C35.8,18.1,35.6,13.9,35.6,24.7z"/>
			<g>
				<path class="st0" d="M56.3,24.3L56.3,24.3c1.6,0,2.9-1.3,2.9-2.9V8.9c0-1.6-1.3-2.9-2.9-2.9h0c-1.6,0-2.9,1.3-2.9,2.9v12.5
					C53.4,23,54.7,24.3,56.3,24.3z"/>
				<path class="st1" d="M56.3,6L56.3,6c-1.6,0-2.9,1.3-2.9,2.9v12.5c0,1.6,1.3,2.9,2.9,2.9h0"/>
			</g>
			<g>
				<path class="st0" d="M62.2,28L62.2,28c1.6,0,2.9-1.3,2.9-2.9v-6.2c0-1.6-1.3-2.9-2.9-2.9h0c-1.6,0-2.9,1.3-2.9,2.9v6.2
					C59.3,26.7,60.6,28,62.2,28z"/>
				<path class="st1" d="M62.2,15.9L62.2,15.9c-1.6,0-2.9,0.9-2.9,1.9v8.2c0,1.1,1.3,1.9,2.9,1.9h0"/>
			</g>
			<path class="st0" d="M50.5,21.6L50.5,21.6c1.6,0,2.9-1.3,2.9-2.9V6.2c0-1.6-1.3-2.9-2.9-2.9h0c-1.6,0-2.9,1.3-2.9,2.9v12.5
				C47.5,20.3,48.8,21.6,50.5,21.6z"/>
			<path class="st1" d="M50.5,3.3L50.5,3.3c-1.6,0-2.9,1.3-2.9,2.9v12.5c0,1.6,1.3,2.9,2.9,2.9h0"/>
			<g>
				<path class="st0" d="M44.6,21.6L44.6,21.6c1.6,0,2.9-1.3,2.9-2.9V8c0-1.6-1.3-2.9-2.9-2.9h0c-1.6,0-2.9,1.3-2.9,2.9v10.6
					C41.7,20.3,43,21.6,44.6,21.6z"/>
				<path class="st1" d="M44.6,5.1L44.6,5.1c-1.6,0-2.9,1.2-2.9,2.6v11.2c0,1.5,1.3,2.6,2.9,2.6h0"/>
			</g>
			<g>
				<path class="st0" d="M38.7,21.6L38.7,21.6c1.6,0,2.9-1.3,2.9-2.9v-7c0-1.6-1.3-2.9-2.9-2.9h0c-1.6,0-2.9,1.3-2.9,2.9v7
					C35.8,20.3,37.1,21.6,38.7,21.6z"/>
				<path class="st1" d="M38.7,8.8L38.7,8.8c-1.6,0-2.9,0.9-2.9,2.1v8.7c0,1.1,1.3,2.1,2.9,2.1h0"/>
			</g>
		</g>
		<path class="st0" d="M50.4,54.9L50.4,54.9c4.5,0,8.2-3.7,8.2-8.2v-2.6c0-4.5-3.7-8.2-8.2-8.2h0c-4.5,0-8.2,3.7-8.2,8.2v2.6
			C42.1,51.2,45.8,54.9,50.4,54.9z"/>
	</g>
	<g>
		<path class="st0" d="M12.9,63.4h13.7c1.6,0,2.9,1.3,2.9,2.9v0.5c3-3.5,4.8-8.6,4.9-14.2c0,1.6-1.3,2.8-2.9,2.8
			c-1.6,0-2.9-0.9-2.9-1.9v-1v-3.7c0,1.6-1.3,2.9-2.9,2.9c-1.6,0-2.9-1.3-2.9-2.9v-2.7c0,1.6-1.3,2.9-2.9,2.9
			c-1.6,0-2.9-1.3-2.9-2.9c0,1.6-1.3,2.9-2.9,2.9S11,47.9,11,46.4v-0.3c0,1.6-1.3,2.9-2.9,2.9h0c-1.6,0-2.9-0.9-2.9-2.1v0
			C5,48.1,5,49.8,5,52.2C5,58,6.9,63.3,9.9,66.9v-0.5C9.9,64.7,11.3,63.4,12.9,63.4z"/>
		<path class="st0" d="M28.6,48v-1.6v-1v-8.9c0-1.6-1.3-2.9-2.9-2.9v13.2C26.8,47.1,27.7,47.5,28.6,48z"/>
		<path class="st0" d="M25.7,46.7v5.1c1.6,0,2.9-1.3,2.9-2.9V48C27.7,47.5,26.8,47.1,25.7,46.7z"/>
		<path class="st1" d="M25.7,46.7V33.5c-1.6,0-2.9,1.3-2.9,2.9v9.5C23.8,46.1,24.8,46.4,25.7,46.7z"/>
		<path class="st1" d="M22.8,45.9v0.3v2.7c0,1.6,1.3,2.9,2.9,2.9v-5.1C24.8,46.4,23.8,46.1,22.8,45.9z"/>
		<path class="st0" d="M34.5,52.6v-0.4C34.5,52.4,34.5,52.5,34.5,52.6C34.5,52.6,34.5,52.6,34.5,52.6z"/>
		<path class="st0" d="M34.5,52.2v-5.9c0-1.6-1.3-2.9-2.9-2.9v6.3C33.4,51,34.5,52.1,34.5,52.2z"/>
		<path class="st0" d="M31.6,49.7v5.8c1.6,0,2.9-1.3,2.9-2.8c0-0.1,0-0.3,0-0.5C34.5,52.1,33.4,51,31.6,49.7z"/>
		<path class="st1" d="M31.6,43.4c-1.6,0-2.9,0.9-2.9,1.9v1C28.6,44.7,30,43.4,31.6,43.4z"/>
		<path class="st1" d="M28.6,52.6v1c0,1.1,1.3,1.9,2.9,1.9C30,55.5,28.6,54.2,28.6,52.6z"/>
		<path class="st1" d="M28.6,46.3V48c1.1,0.6,2.1,1.2,2.9,1.8v-6.3C30,43.4,28.6,44.7,28.6,46.3z"/>
		<path class="st1" d="M28.6,48v0.9v3.7c0,1.6,1.3,2.9,2.9,2.9v-5.8C30.7,49.2,29.8,48.5,28.6,48z"/>
		<path class="st0" d="M22.8,45.9v-9.5v-2.7c0-1.6-1.3-2.9-2.9-2.9v14.8C20.9,45.6,21.8,45.7,22.8,45.9z"/>
		<path class="st0" d="M19.8,45.6v3.5c1.6,0,2.9-1.3,2.9-2.9v-0.3C21.8,45.7,20.9,45.6,19.8,45.6z"/>
		<path class="st1" d="M19.8,45.6C19.8,45.6,19.8,45.6,19.8,45.6l0.1-14.8c-1.6,0-2.9,1.3-2.9,2.9v1.8v10
			C17.8,45.6,18.7,45.6,19.8,45.6z"/>
		<path class="st1" d="M19.8,45.6c-1,0-2,0-2.8-0.1v0.6c0,1.6,1.3,2.9,2.9,2.9L19.8,45.6C19.8,45.6,19.8,45.6,19.8,45.6z"/>
		<path class="st0" d="M16.9,45.5v-10c0-1.6-1.3-2.9-2.9-2.9v12.8C14.9,45.4,15.8,45.5,16.9,45.5z"/>
		<path class="st0" d="M14,45.4v3.7c1.6,0,2.9-1.3,2.9-2.9v-0.6C15.8,45.5,14.9,45.4,14,45.4z"/>
		<path class="st1" d="M14,32.6c-1.6,0-2.9,1.2-2.9,2.6v0.3C11,33.9,12.4,32.6,14,32.6z"/>
		<path class="st1" d="M11,46.2v0.3c0,1.5,1.3,2.6,2.9,2.6C12.4,49.1,11,47.8,11,46.2z"/>
		<path class="st1" d="M14,45.4V32.6c-1.6,0-2.9,1.3-2.9,2.9v3.7v5.9C11.9,45.2,12.9,45.3,14,45.4z"/>
		<path class="st1" d="M11,45.1v1.1c0,1.6,1.3,2.9,2.9,2.9v-3.7C12.9,45.3,11.9,45.2,11,45.1z"/>
		<path class="st0" d="M11,45.1v-5.9c0-1.6-1.3-2.9-2.9-2.9v8.5C8.9,44.8,9.8,44.9,11,45.1z"/>
		<path class="st0" d="M8.1,44.8v4.3c1.6,0,2.9-1.3,2.9-2.9v-1.1C9.8,44.9,8.9,44.8,8.1,44.8z"/>
		<path class="st1" d="M5.2,46.2V47c0-0.1,0-0.2,0.1-0.3C5.2,46.5,5.2,46.3,5.2,46.2z"/>
		<path class="st1" d="M8.1,36.3c-1.6,0-2.9,0.9-2.9,2.1v0.9C5.2,37.6,6.5,36.3,8.1,36.3z"/>
		<path class="st1" d="M8.1,49.1c-1.4,0-2.6-1-2.9-2.4c0,0.1,0,0.2-0.1,0.3v0C5.2,48.2,6.5,49.1,8.1,49.1z"/>
		<path class="st1" d="M8.1,44.8v-8.5h0c-1.6,0-2.9,1.3-2.9,2.9v7c0,0.2,0,0.4,0.1,0.5C5.6,45.1,6.3,44.7,8.1,44.8z"/>
		<path class="st1" d="M5.2,46.7c0.3,1.4,1.5,2.4,2.9,2.4h0v-4.3C6.3,44.7,5.6,45.1,5.2,46.7z"/>
		<path class="st0" d="M28.9,72.9v-6.1c-2.4,3.1-5.6,5-9.2,5s-6.7-1.9-9.2-5v6.1h3.2H28.9z"/>
		<path class="st0" d="M19.8,71.8c3.8,0,7.2-1.9,9.8-5v-0.5c0-1.6-1.3-2.9-2.9-2.9H12.9c-1.6,0-2.9,1.3-2.9,2.9v0.5
			C12.6,69.9,16,71.8,19.8,71.8z"/>
		<path class="st2" d="M26.6,82.4H13.3v12.5h18.2V74.7c0-1-0.8-1.7-1.7-1.7h-0.3v6.6C29.6,81.1,28.2,82.4,26.6,82.4z"/>
		<path class="st2" d="M13.3,82.4h13.3c1.6,0,2.9-1.3,2.9-2.9v-6.6H13.3V82.4z M23.5,78.3c0-1,0.8-1.7,1.7-1.7h2
			c1,0,1.7,0.8,1.7,1.7v2c0,1-0.8,1.7-1.7,1.7h-2c-1,0-1.7-0.8-1.7-1.7V78.3z"/>
		<path class="st3" d="M13.3,82.4h-0.5c-1.6,0-2.9-1.3-2.9-2.9v-6.6H9.7c-1,0-1.7,0.8-1.7,1.7v20.3h5.4V82.4z"/>
		<path class="st3" d="M12.9,82.4h0.5v-9.5H9.9v6.6C9.9,81.1,11.3,82.4,12.9,82.4z"/>
		<g>
			<path class="st4" d="M92.1,94.9V71c0-1-0.8-1.7-1.7-1.7H73.8v25.7H92.1z"/>
			<path class="st5" d="M73.8,69.2h-3.7c-1,0-1.7,0.8-1.7,1.7v23.9h5.4V69.2z"/>
			<path class="st6" d="M62.2,94.9V47.2c0-1-0.8-1.7-1.7-1.7H44v49.5H62.2z"/>
			<path class="st7" d="M44,45.4h-3.7c-1,0-1.7,0.8-1.7,1.7v47.8H44V45.4z"/>
		</g>
		<path class="st8" d="M86.8,78.4L86.8,78.4c1.5,0,2.7-1.2,2.7-2.7v0c0-1.5-1.2-2.7-2.7-2.7h0c-1.5,0-2.7,1.2-2.7,2.7v0
			C84,77.2,85.2,78.4,86.8,78.4z"/>
		<path class="st8" d="M56.9,54.6L56.9,54.6c1.5,0,2.7-1.2,2.7-2.7v0c0-1.5-1.2-2.7-2.7-2.7h0c-1.5,0-2.7,1.2-2.7,2.7v0
			C54.1,53.3,55.4,54.6,56.9,54.6z"/>
		<path class="st8" d="M25.3,82.1h2c1,0,1.7-0.8,1.7-1.7v-2c0-1-0.8-1.7-1.7-1.7h-2c-1,0-1.7,0.8-1.7,1.7v2
			C23.5,81.3,24.3,82.1,25.3,82.1z"/>
	</g>
</g>
</svg>
