<?xml version="1.0" encoding="utf-8"?>
<!-- Generator: Adobe Illustrator 21.0.2, SVG Export Plug-In . SVG Version: 6.00 Build 0)  -->
<svg version="1.1" id="Livello_1" xmlns="http://www.w3.org/2000/svg" xmlns:xlink="http://www.w3.org/1999/xlink" x="0px" y="0px"
	 viewBox="0 0 100 100" style="enable-background:new 0 0 100 100;" xml:space="preserve">
<style type="text/css">
	.st0{fill:#FDC901;}
	.st1{fill:#AACA53;}
	.st2{fill:#5DC2D9;}
	.st3{fill:#EC6A4B;}
</style>
<g>
	<rect x="55.2" y="37.1" class="st0" width="36" height="46.6"/>
	<rect x="7.2" y="37.1" class="st1" width="36" height="46.6"/>
	<g>
		<path class="st2" d="M72.2,51.5h10.8c2.8,0,5.1-2.3,5.1-5.1v-0.5c0-2.8-2.3-5.1-5.1-5.1H72.2c-2.8,0-5.1,2.3-5.1,5.1v0.5
			C67.2,49.2,69.4,51.5,72.2,51.5z"/>
		<path class="st2" d="M72.2,65.9h10.8c2.8,0,5.1-2.3,5.1-5.1v-0.5c0-2.8-2.3-5.1-5.1-5.1H72.2c-2.8,0-5.1,2.3-5.1,5.1v0.5
			C67.2,63.6,69.4,65.9,72.2,65.9z"/>
		<path class="st2" d="M72.2,80.3h10.8c2.8,0,5.1-2.3,5.1-5.1v-0.5c0-2.8-2.3-5.1-5.1-5.1H72.2c-2.8,0-5.1,2.3-5.1,5.1v0.5
			C67.2,78.1,69.4,80.3,72.2,80.3z"/>
	</g>
	<rect x="34.7" y="15.2" class="st3" width="36" height="68.6"/>
	<g>
		<path class="st2" d="M40.9,79.2h-0.2c-1.3,0-2.3-1-2.3-2.3V22c0-1.3,1-2.3,2.3-2.3h0.2c1.3,0,2.3,1,2.3,2.3V77
			C43.2,78.2,42.2,79.2,40.9,79.2z"/>
		<path class="st2" d="M49.4,79.2h-0.2c-1.3,0-2.3-1-2.3-2.3V22c0-1.3,1-2.3,2.3-2.3h0.2c1.3,0,2.3,1,2.3,2.3V77
			C51.7,78.2,50.7,79.2,49.4,79.2z"/>
		<path class="st2" d="M57,79.2h-0.2c-1.3,0-2.3-1-2.3-2.3V22c0-1.3,1-2.3,2.3-2.3H57c1.3,0,2.3,1,2.3,2.3V77
			C59.3,78.2,58.3,79.2,57,79.2z"/>
		<path class="st2" d="M64.8,79.2h-0.2c-1.3,0-2.3-1-2.3-2.3V22c0-1.3,1-2.3,2.3-2.3h0.2c1.3,0,2.3,1,2.3,2.3V77
			C67.1,78.2,66,79.2,64.8,79.2z"/>
	</g>
	<path class="st2" d="M15.4,51.9h-0.5c-2.5,0-4.6-2.1-4.6-4.6v-0.5c0-2.5,2.1-4.6,4.6-4.6h0.5c2.5,0,4.6,2.1,4.6,4.6v0.5
		C19.9,49.8,17.9,51.9,15.4,51.9z"/>
	<path class="st2" d="M27.5,51.9h-0.5c-2.5,0-4.6-2.1-4.6-4.6v-0.5c0-2.5,2.1-4.6,4.6-4.6h0.5c2.5,0,4.6,2.1,4.6,4.6v0.5
		C32.1,49.8,30,51.9,27.5,51.9z"/>
	<path class="st2" d="M27.5,51.9h-0.5c-2.5,0-4.6-2.1-4.6-4.6v-0.5c0-2.5,2.1-4.6,4.6-4.6h0.5c2.5,0,4.6,2.1,4.6,4.6v0.5
		C32.1,49.8,30,51.9,27.5,51.9z"/>
	<path class="st2" d="M15.4,64h-0.5c-2.5,0-4.6-2.1-4.6-4.6V59c0-2.5,2.1-4.6,4.6-4.6h0.5c2.5,0,4.6,2.1,4.6,4.6v0.5
		C19.9,62,17.9,64,15.4,64z"/>
	<path class="st2" d="M27.5,64h-0.5c-2.5,0-4.6-2.1-4.6-4.6V59c0-2.5,2.1-4.6,4.6-4.6h0.5c2.5,0,4.6,2.1,4.6,4.6v0.5
		C32.1,62,30,64,27.5,64z"/>
	<path class="st2" d="M15.4,77h-0.5c-2.5,0-4.6-2.1-4.6-4.6v-0.5c0-2.5,2.1-4.6,4.6-4.6h0.5c2.5,0,4.6,2.1,4.6,4.6v0.5
		C19.9,74.9,17.9,77,15.4,77z"/>
	<path class="st2" d="M27.5,77h-0.5c-2.5,0-4.6-2.1-4.6-4.6v-0.5c0-2.5,2.1-4.6,4.6-4.6h0.5c2.5,0,4.6,2.1,4.6,4.6v0.5
		C32.1,74.9,30,77,27.5,77z"/>
</g>
</svg>
