<?xml version="1.0" encoding="utf-8"?>
<!-- Generator: Adobe Illustrator 21.0.2, SVG Export Plug-In . SVG Version: 6.00 Build 0)  -->
<svg version="1.1" id="Layer_1" xmlns="http://www.w3.org/2000/svg" xmlns:xlink="http://www.w3.org/1999/xlink" x="0px" y="0px"
	 viewBox="0 0 24 24" style="enable-background:new 0 0 24 24;" xml:space="preserve">
<style type="text/css">
	.st0{fill:#B0BEC5;}
</style>
<g id="Layer_53">
	<path class="st0" d="M6.4,22.5c-0.3,0-0.6-0.1-0.8-0.3c-0.4-0.3-0.6-0.8-0.6-1.3l0.5-5.7l-3.7-4.3c-0.3-0.4-0.4-0.9-0.3-1.4
		c0.2-0.5,0.5-0.8,1-1L8,8.2l2.8-5.9c0.4-0.7,1.3-0.9,2-0.6c0.2,0.1,0.4,0.3,0.6,0.6L16,8.2l5.3,0.3c0.5,0.1,0.9,0.5,1,1
		c0.2,0.5,0.1,1-0.3,1.4l-3.6,4.3l0.5,5.7c0,0.5-0.2,1-0.6,1.3c-0.4,0.3-0.9,0.3-1.4,0.1l-5-3.3l-5,3.3C6.8,22.4,6.6,22.5,6.4,22.5z
		 M8.4,7.8L8.4,7.8z"/>
</g>
</svg>
