<?xml version="1.0" encoding="utf-8"?>
<!-- Generator: Adobe Illustrator 21.0.2, SVG Export Plug-In . SVG Version: 6.00 Build 0)  -->
<svg version="1.1" id="Livello_1" xmlns="http://www.w3.org/2000/svg" xmlns:xlink="http://www.w3.org/1999/xlink" x="0px" y="0px"
	 viewBox="0 0 110 110" style="enable-background:new 0 0 110 110;" xml:space="preserve">
<style type="text/css">
	.st0{fill:none;stroke:#232323;stroke-width:4;stroke-linecap:round;stroke-miterlimit:10;}
</style>
<g>
	<g>
		<path class="st0" d="M55.5,42.3c0-6.4,5.2-11.7,11.7-11.7s11.7,5.2,11.7,11.7"/>
		<path class="st0" d="M78.8,80.3"/>
		<path class="st0" d="M32.2,42.3c0-6.4,5.2-11.7,11.7-11.7s11.7,5.2,11.7,11.7"/>
		<path class="st0" d="M8.9,42.3c0-3.1,1.2-5.9,3.1-7.9c2.1-2.3,5.2-3.7,8.5-3.7c6.4,0,11.7,5.2,11.7,11.7"/>
		<line class="st0" x1="32.2" y1="41.4" x2="32.2" y2="80.6"/>
		<line class="st0" x1="55.5" y1="41.4" x2="55.5" y2="80.6"/>
		<line class="st0" x1="78.8" y1="41.4" x2="78.8" y2="80.6"/>
	</g>
	<path class="st0" d="M80.6,47.6c-0.7-1.5-1-3.1-1-4.8c0-6.4,5.2-11.6,11.6-11.6s11.6,5.2,11.6,11.6c0,1.7-0.4,3.4-1,4.8"/>
	<line class="st0" x1="80.5" y1="47.6" x2="99.9" y2="80.5"/>
	<line class="st0" x1="101.8" y1="47.6" x2="82.4" y2="80.5"/>
</g>
</svg>
